<svg id="svg" version="1.1" xmlns="http://www.w3.org/2000/svg" xmlns:xlink="http://www.w3.org/1999/xlink" width="400" height="352.8205128205128" viewBox="0, 0, 400,352.8205128205128"><g id="svgg"><path id="path0" d="M252.714 28.886 C 252.006 29.989,251.240 31.606,251.012 32.480 C 250.784 33.354,250.309 34.545,249.957 35.128 C 249.605 35.711,249.083 36.986,248.796 37.963 C 248.509 38.939,247.939 40.290,247.528 40.964 C 247.117 41.638,246.781 42.451,246.780 42.771 C 246.779 43.091,246.317 44.229,245.754 45.300 C 245.190 46.372,244.614 47.778,244.473 48.425 C 244.331 49.073,243.760 50.459,243.202 51.506 C 242.645 52.553,242.188 53.665,242.188 53.977 C 242.187 54.290,241.711 55.499,241.130 56.664 C 240.549 57.829,240.073 59.038,240.072 59.350 C 240.071 59.663,239.594 60.811,239.011 61.903 C 238.429 62.995,237.952 64.093,237.952 64.345 C 237.952 64.596,237.481 65.751,236.904 66.911 C 236.328 68.071,235.851 69.282,235.845 69.602 C 235.839 69.922,235.373 71.061,234.810 72.132 C 234.246 73.203,233.669 74.609,233.528 75.257 C 233.387 75.904,232.815 77.291,232.258 78.337 C 231.701 79.384,231.244 80.499,231.244 80.814 C 231.244 81.129,230.905 82.020,230.490 82.794 C 230.075 83.568,229.461 84.996,229.126 85.966 C 228.791 86.937,228.178 88.365,227.763 89.139 C 227.348 89.912,227.008 90.799,227.008 91.109 C 227.008 91.419,226.608 92.454,226.120 93.409 C 225.632 94.364,225.015 95.861,224.749 96.734 C 224.484 97.608,223.851 99.101,223.342 100.053 C 222.834 101.004,222.418 102.038,222.418 102.350 C 222.418 102.663,222.038 103.634,221.572 104.508 C 221.107 105.382,220.547 106.761,220.329 107.571 C 220.111 108.382,219.540 109.731,219.061 110.568 C 218.582 111.406,218.188 112.343,218.186 112.650 C 218.184 112.957,217.782 113.989,217.294 114.945 C 216.806 115.900,216.171 117.463,215.883 118.419 C 215.595 119.374,215.108 120.540,214.801 121.009 C 214.494 121.478,214.010 122.645,213.725 123.602 C 213.441 124.560,212.910 125.857,212.546 126.484 C 212.182 127.112,211.696 128.339,211.466 129.211 C 211.236 130.083,210.753 131.212,210.392 131.718 C 208.705 134.086,208.729 137.955,210.449 141.218 C 211.012 142.286,211.473 143.415,211.473 143.728 C 211.474 144.040,211.930 145.152,212.487 146.199 C 213.045 147.246,213.618 148.658,213.761 149.338 C 213.904 150.018,214.327 151.076,214.699 151.691 C 215.072 152.305,215.618 153.618,215.912 154.609 C 216.207 155.600,216.746 156.925,217.110 157.552 C 217.474 158.180,217.960 159.407,218.190 160.279 C 218.420 161.151,218.893 162.265,219.241 162.754 C 219.589 163.243,220.064 164.356,220.296 165.228 C 220.528 166.100,221.006 167.290,221.358 167.873 C 221.710 168.455,222.239 169.752,222.533 170.755 C 222.828 171.758,223.320 172.962,223.627 173.431 C 223.934 173.900,224.431 175.108,224.730 176.115 C 225.029 177.123,225.572 178.460,225.936 179.088 C 226.300 179.716,226.786 180.943,227.016 181.815 C 227.246 182.687,227.716 183.799,228.060 184.286 C 228.404 184.773,228.805 185.728,228.951 186.408 C 229.098 187.087,229.674 188.500,230.231 189.547 C 230.788 190.593,231.244 191.722,231.244 192.054 C 231.244 192.386,231.633 193.389,232.109 194.283 C 232.584 195.177,233.207 196.696,233.493 197.659 C 233.779 198.622,234.264 199.793,234.572 200.262 C 234.879 200.731,235.366 201.897,235.654 202.852 C 235.941 203.808,236.576 205.371,237.065 206.326 C 237.553 207.282,237.952 208.278,237.952 208.540 C 237.952 208.802,238.429 209.909,239.011 211.001 C 239.594 212.092,240.071 213.257,240.071 213.589 C 240.071 213.921,240.459 214.925,240.935 215.818 C 241.410 216.712,242.033 218.232,242.319 219.195 C 242.605 220.158,243.090 221.329,243.398 221.798 C 243.705 222.267,244.210 223.512,244.519 224.565 C 244.829 225.617,245.289 226.717,245.543 227.008 C 245.796 227.299,246.239 228.332,246.526 229.303 C 246.813 230.274,247.464 231.846,247.973 232.798 C 248.481 233.749,248.897 234.824,248.897 235.187 C 248.897 235.550,249.373 236.741,249.956 237.832 C 250.538 238.924,251.015 240.090,251.015 240.424 C 251.015 240.757,251.471 241.887,252.028 242.934 C 252.586 243.980,253.157 245.367,253.299 246.014 C 253.440 246.662,254.017 248.068,254.580 249.139 C 255.144 250.210,255.605 251.335,255.605 251.638 C 255.605 251.941,255.983 252.838,256.444 253.632 C 256.906 254.426,257.403 255.631,257.549 256.311 C 257.695 256.990,258.270 258.403,258.828 259.450 C 259.385 260.496,259.841 261.624,259.841 261.957 C 259.841 262.289,260.219 263.271,260.680 264.139 C 261.142 265.007,261.776 266.599,262.089 267.676 C 262.402 268.753,262.881 269.818,263.152 270.044 C 263.424 270.269,263.833 271.204,264.061 272.120 C 264.290 273.037,264.777 274.300,265.144 274.928 C 265.511 275.556,266.053 276.880,266.347 277.871 C 266.641 278.862,267.187 280.175,267.560 280.789 C 267.933 281.404,268.355 282.462,268.498 283.142 C 268.641 283.822,269.215 285.234,269.772 286.281 C 270.329 287.328,270.786 288.457,270.786 288.791 C 270.786 289.125,271.262 290.291,271.845 291.382 C 272.427 292.474,272.904 293.573,272.904 293.824 C 272.904 294.075,273.375 295.230,273.952 296.390 C 274.528 297.550,275.005 298.761,275.011 299.082 C 275.017 299.402,275.483 300.540,276.047 301.611 C 276.610 302.682,277.182 304.062,277.317 304.678 C 277.452 305.293,278.024 306.673,278.587 307.745 C 279.151 308.816,279.612 309.955,279.612 310.277 C 279.612 310.599,279.991 311.575,280.455 312.448 C 280.918 313.320,281.503 314.748,281.754 315.622 C 282.006 316.496,282.484 317.610,282.817 318.097 C 283.150 318.584,283.614 319.696,283.849 320.568 C 284.084 321.440,284.640 322.789,285.086 323.566 C 285.532 324.342,286.009 325.534,286.146 326.214 C 286.284 326.893,286.701 327.952,287.074 328.566 C 287.447 329.181,287.983 330.452,288.266 331.391 C 288.549 332.330,289.180 333.880,289.668 334.835 C 290.157 335.790,290.556 336.801,290.556 337.082 C 290.556 337.362,290.954 338.328,291.441 339.228 C 291.927 340.129,292.529 341.580,292.779 342.454 C 293.642 345.477,289.532 345.242,341.823 345.261 C 387.097 345.278,387.979 345.265,388.337 344.595 C 388.890 343.562,388.777 342.292,388.049 341.354 C 387.689 340.891,387.132 339.718,386.812 338.747 C 386.491 337.776,385.832 336.200,385.348 335.245 C 384.863 334.289,384.466 333.313,384.466 333.074 C 384.466 332.835,383.989 331.734,383.407 330.627 C 382.824 329.519,382.347 328.351,382.346 328.031 C 382.346 327.711,382.006 326.893,381.591 326.214 C 381.177 325.534,380.540 324.113,380.176 323.055 C 379.812 321.997,379.288 320.788,379.013 320.368 C 378.738 319.948,378.256 318.722,377.942 317.643 C 377.629 316.564,377.161 315.506,376.903 315.292 C 376.645 315.078,376.230 314.151,375.981 313.232 C 375.732 312.314,375.174 310.927,374.741 310.150 C 374.308 309.373,373.751 308.103,373.505 307.327 C 373.258 306.552,372.685 305.217,372.230 304.362 C 371.775 303.507,371.403 302.553,371.402 302.242 C 371.401 301.931,371.062 301.121,370.647 300.441 C 370.232 299.762,369.601 298.356,369.243 297.316 C 368.885 296.277,368.289 294.927,367.918 294.316 C 367.547 293.704,367.131 292.648,366.995 291.968 C 366.859 291.289,366.380 290.177,365.931 289.497 C 365.482 288.817,365.003 287.705,364.867 287.026 C 364.731 286.346,364.316 285.290,363.945 284.678 C 363.573 284.067,362.956 282.654,362.572 281.539 C 362.189 280.424,361.714 279.319,361.518 279.082 C 361.322 278.846,360.866 277.796,360.506 276.749 C 360.146 275.702,359.512 274.289,359.097 273.610 C 358.683 272.930,358.343 272.112,358.342 271.792 C 358.341 271.472,357.864 270.304,357.282 269.197 C 356.699 268.089,356.222 266.988,356.222 266.749 C 356.222 266.511,355.815 265.534,355.317 264.579 C 354.819 263.624,354.166 262.048,353.865 261.077 C 353.565 260.106,353.042 258.914,352.704 258.429 C 352.366 257.944,351.977 257.070,351.840 256.487 C 351.704 255.905,351.125 254.521,350.553 253.413 C 349.982 252.304,349.515 251.175,349.515 250.903 C 349.515 250.631,349.038 249.515,348.455 248.424 C 347.873 247.332,347.396 246.214,347.396 245.938 C 347.396 245.663,346.920 244.532,346.337 243.425 C 345.755 242.317,345.278 241.216,345.278 240.977 C 345.278 240.739,344.871 239.762,344.373 238.807 C 343.875 237.851,343.222 236.275,342.921 235.305 C 342.621 234.334,342.091 233.141,341.745 232.653 C 341.398 232.166,340.936 231.104,340.718 230.293 C 340.499 229.483,339.929 228.134,339.450 227.296 C 338.971 226.458,338.577 225.517,338.574 225.204 C 338.572 224.892,338.094 223.743,337.511 222.651 C 336.929 221.560,336.452 220.441,336.452 220.166 C 336.452 219.891,336.006 218.815,335.461 217.776 C 334.916 216.737,334.261 215.135,334.005 214.217 C 333.749 213.298,333.319 212.364,333.050 212.141 C 332.781 211.917,332.304 210.842,331.990 209.751 C 331.675 208.660,331.137 207.368,330.794 206.881 C 330.451 206.394,329.978 205.282,329.743 204.410 C 329.509 203.538,328.936 202.175,328.471 201.381 C 328.006 200.587,327.626 199.696,327.626 199.401 C 327.626 199.105,327.149 197.971,326.567 196.879 C 325.984 195.787,325.508 194.669,325.508 194.394 C 325.508 194.119,325.062 193.043,324.517 192.004 C 323.971 190.965,323.316 189.363,323.060 188.444 C 322.804 187.526,322.375 186.592,322.106 186.368 C 321.837 186.145,321.360 185.070,321.045 183.979 C 320.731 182.887,320.193 181.596,319.850 181.109 C 319.506 180.622,319.047 179.560,318.829 178.749 C 318.610 177.938,318.040 176.589,317.561 175.751 C 317.082 174.913,316.688 173.972,316.686 173.660 C 316.683 173.347,316.205 172.198,315.622 171.107 C 315.040 170.015,314.563 168.911,314.563 168.654 C 314.563 168.396,314.008 167.082,313.329 165.734 C 312.650 164.386,312.093 163.059,312.093 162.785 C 312.092 162.511,311.711 161.637,311.246 160.843 C 310.781 160.049,310.209 158.686,309.974 157.814 C 309.739 156.942,309.263 155.829,308.914 155.340 C 308.566 154.851,308.103 153.787,307.884 152.976 C 307.666 152.166,307.095 150.817,306.616 149.979 C 306.137 149.141,305.743 148.217,305.740 147.926 C 305.737 147.635,305.179 146.293,304.500 144.945 C 303.821 143.597,303.266 142.283,303.266 142.026 C 303.266 141.768,302.789 140.665,302.207 139.573 C 301.624 138.481,301.147 137.346,301.147 137.051 C 301.147 136.756,300.767 135.864,300.302 135.071 C 299.837 134.277,299.264 132.914,299.030 132.042 C 298.795 131.170,298.322 130.058,297.979 129.571 C 297.636 129.084,297.098 127.792,296.784 126.701 C 296.469 125.610,295.992 124.535,295.723 124.311 C 295.454 124.088,295.024 123.154,294.768 122.235 C 294.513 121.316,293.857 119.715,293.312 118.676 C 292.767 117.636,292.321 116.561,292.321 116.286 C 292.321 116.011,291.845 114.892,291.262 113.801 C 290.680 112.709,290.203 111.597,290.203 111.329 C 290.203 111.062,289.726 109.950,289.144 108.858 C 288.561 107.766,288.083 106.618,288.080 106.305 C 288.078 105.993,287.680 105.045,287.197 104.198 C 286.713 103.352,286.072 101.816,285.772 100.786 C 285.473 99.755,285.016 98.737,284.758 98.522 C 284.500 98.308,284.080 97.381,283.824 96.463 C 283.568 95.544,282.913 93.942,282.368 92.903 C 281.823 91.864,281.377 90.789,281.377 90.514 C 281.377 90.238,280.900 89.120,280.318 88.028 C 279.735 86.937,279.259 85.825,279.259 85.557 C 279.259 85.289,278.782 84.177,278.199 83.086 C 277.617 81.994,277.138 80.845,277.136 80.533 C 277.134 80.220,276.754 79.305,276.293 78.498 C 275.832 77.691,275.178 76.182,274.840 75.144 C 274.502 74.106,274.023 73.019,273.775 72.727 C 273.528 72.436,273.082 71.403,272.784 70.432 C 272.487 69.462,271.836 67.886,271.338 66.930 C 270.840 65.975,270.432 64.957,270.432 64.667 C 270.432 64.377,270.057 63.490,269.597 62.697 C 269.138 61.903,268.563 60.618,268.319 59.841 C 268.075 59.064,267.592 57.952,267.246 57.370 C 266.900 56.787,266.414 55.596,266.166 54.722 C 265.918 53.848,265.444 52.736,265.112 52.251 C 264.781 51.765,264.254 50.508,263.942 49.456 C 263.630 48.404,263.156 47.292,262.889 46.985 C 262.622 46.677,262.120 45.552,261.774 44.484 C 261.428 43.416,260.933 42.216,260.674 41.817 C 260.416 41.418,259.898 40.203,259.524 39.116 C 259.150 38.029,258.610 36.766,258.323 36.310 C 258.036 35.854,257.604 34.846,257.362 34.069 C 257.120 33.292,256.561 32.021,256.121 31.244 C 255.681 30.468,255.216 29.327,255.087 28.709 C 254.661 26.662,254.116 26.703,252.714 28.886 " stroke="none" fill="#060606" fill-rule="evenodd"></path><path id="path1" d="M142.552 15.557 C 142.218 15.751,141.716 16.680,141.437 17.620 C 141.158 18.560,140.518 20.102,140.015 21.047 C 139.511 21.992,139.100 23.023,139.100 23.337 C 139.100 23.651,138.644 24.764,138.086 25.811 C 137.529 26.858,136.956 28.270,136.813 28.950 C 136.669 29.629,136.247 30.688,135.874 31.302 C 135.501 31.917,134.965 33.188,134.682 34.127 C 134.399 35.066,133.768 36.616,133.280 37.571 C 132.791 38.526,132.386 39.559,132.378 39.866 C 132.370 40.173,131.894 41.297,131.319 42.365 C 130.744 43.433,130.273 44.545,130.272 44.837 C 130.272 45.128,129.796 46.320,129.214 47.485 C 128.633 48.650,128.157 49.857,128.157 50.168 C 128.156 50.479,127.740 51.512,127.231 52.463 C 126.723 53.414,126.073 54.974,125.787 55.930 C 125.501 56.886,125.046 58.007,124.774 58.421 C 124.503 58.834,123.978 60.038,123.607 61.096 C 122.690 63.709,121.235 67.240,120.192 69.378 C 119.718 70.352,119.329 71.391,119.329 71.687 C 119.329 71.983,118.998 72.854,118.594 73.623 C 118.189 74.393,117.552 75.887,117.177 76.945 C 116.802 78.003,116.273 79.206,116.002 79.620 C 115.731 80.034,115.257 81.221,114.949 82.259 C 114.641 83.296,114.164 84.488,113.890 84.907 C 113.615 85.325,113.157 86.450,112.871 87.406 C 112.585 88.362,111.935 89.922,111.427 90.873 C 110.919 91.825,110.503 92.875,110.503 93.207 C 110.503 93.539,110.026 94.704,109.444 95.795 C 108.861 96.887,108.385 98.077,108.385 98.440 C 108.385 98.803,107.969 99.879,107.461 100.830 C 106.953 101.781,106.319 103.274,106.054 104.148 C 105.788 105.022,105.171 106.519,104.683 107.474 C 104.195 108.429,103.795 109.462,103.794 109.769 C 103.793 110.075,103.456 110.878,103.046 111.552 C 102.635 112.226,102.071 113.544,101.793 114.480 C 101.515 115.417,100.898 116.915,100.423 117.809 C 99.948 118.703,99.559 119.706,99.559 120.038 C 99.559 120.370,99.103 121.498,98.545 122.545 C 97.988 123.592,97.412 125.004,97.266 125.684 C 97.119 126.364,96.719 127.317,96.377 127.802 C 96.034 128.288,95.503 129.533,95.195 130.569 C 94.888 131.605,94.331 132.955,93.958 133.570 C 93.585 134.184,93.163 135.243,93.020 135.922 C 92.877 136.602,92.303 138.014,91.746 139.061 C 91.189 140.108,90.733 141.237,90.733 141.571 C 90.733 141.905,90.280 143.034,89.727 144.081 C 89.174 145.128,88.619 146.514,88.494 147.161 C 88.369 147.809,87.964 148.763,87.595 149.283 C 87.225 149.802,86.734 150.941,86.504 151.813 C 86.274 152.685,85.720 154.034,85.274 154.810 C 84.828 155.587,84.344 156.778,84.198 157.458 C 84.053 158.138,83.477 159.550,82.920 160.597 C 82.362 161.644,81.906 162.756,81.905 163.068 C 81.904 163.381,81.428 164.590,80.847 165.755 C 80.266 166.920,79.790 168.129,79.790 168.441 C 79.789 168.754,79.312 169.902,78.729 170.994 C 78.147 172.086,77.670 173.184,77.670 173.436 C 77.670 173.687,77.198 174.842,76.622 176.002 C 76.045 177.162,75.569 178.373,75.563 178.693 C 75.557 179.013,75.091 180.152,74.527 181.223 C 73.964 182.294,73.388 183.700,73.249 184.348 C 73.109 184.995,72.630 186.161,72.184 186.937 C 71.738 187.714,71.185 189.063,70.954 189.935 C 70.724 190.807,70.241 191.935,69.880 192.442 C 69.519 192.949,69.052 194.126,68.844 195.057 C 68.635 195.989,68.169 197.166,67.808 197.673 C 67.447 198.179,66.963 199.308,66.733 200.180 C 66.503 201.052,65.950 202.401,65.504 203.177 C 65.058 203.954,64.579 205.119,64.439 205.767 C 64.299 206.415,63.724 207.821,63.160 208.892 C 62.597 209.963,62.136 211.103,62.136 211.424 C 62.136 211.746,61.755 212.725,61.290 213.599 C 60.824 214.473,60.252 215.900,60.017 216.770 C 59.783 217.640,59.307 218.752,58.959 219.241 C 58.610 219.730,58.136 220.843,57.904 221.716 C 57.672 222.588,57.194 223.778,56.842 224.360 C 56.490 224.943,55.961 226.240,55.666 227.242 C 55.372 228.245,54.880 229.449,54.572 229.918 C 54.265 230.387,53.760 231.632,53.451 232.685 C 53.141 233.737,52.679 234.837,52.424 235.128 C 52.170 235.419,51.688 236.611,51.354 237.776 C 51.020 238.941,50.466 240.293,50.123 240.780 C 49.780 241.267,49.308 242.378,49.073 243.247 C 48.839 244.117,48.267 245.544,47.801 246.419 C 47.336 247.293,46.955 248.265,46.955 248.579 C 46.955 248.893,46.499 250.007,45.942 251.054 C 45.384 252.100,44.813 253.487,44.671 254.134 C 44.530 254.782,43.953 256.188,43.390 257.259 C 42.826 258.330,42.360 259.469,42.354 259.789 C 42.348 260.109,41.872 261.320,41.295 262.480 C 40.719 263.640,40.247 264.795,40.247 265.046 C 40.247 265.298,39.771 266.396,39.188 267.488 C 38.605 268.580,38.128 269.728,38.128 270.041 C 38.127 270.353,37.651 271.562,37.070 272.727 C 36.489 273.892,36.013 275.101,36.012 275.414 C 36.011 275.726,35.555 276.838,34.997 277.885 C 34.440 278.932,33.868 280.318,33.727 280.966 C 33.586 281.613,33.009 283.019,32.445 284.091 C 31.882 285.162,31.421 286.263,31.421 286.539 C 31.421 286.814,30.944 287.932,30.362 289.024 C 29.779 290.115,29.302 291.264,29.301 291.577 C 29.301 291.889,28.825 293.098,28.244 294.263 C 27.663 295.428,27.187 296.636,27.186 296.947 C 27.185 297.257,26.769 298.290,26.260 299.241 C 25.752 300.193,25.101 301.765,24.814 302.736 C 24.526 303.707,24.084 304.740,23.831 305.031 C 23.577 305.322,23.116 306.422,22.807 307.474 C 22.497 308.527,21.993 309.772,21.685 310.241 C 21.378 310.710,20.893 311.881,20.607 312.844 C 20.321 313.807,19.698 315.326,19.223 316.220 C 18.747 317.114,18.358 318.100,18.357 318.411 C 18.356 318.722,17.880 319.929,17.299 321.094 C 16.718 322.259,16.242 323.431,16.241 323.699 C 16.241 323.966,15.763 325.122,15.181 326.269 C 14.598 327.415,14.122 328.560,14.122 328.812 C 14.122 329.065,13.722 330.053,13.234 331.008 C 12.746 331.963,12.129 333.460,11.863 334.334 C 11.598 335.207,10.965 336.701,10.456 337.652 C 9.948 338.603,9.532 339.625,9.532 339.923 C 9.532 340.222,9.198 341.155,8.790 341.998 C 7.921 343.794,8.102 345.096,9.264 345.408 C 9.703 345.525,29.447 345.624,53.140 345.626 L 96.217 345.631 97.523 344.744 C 98.504 344.077,98.954 343.431,99.338 342.141 C 99.618 341.196,100.259 339.651,100.762 338.706 C 101.265 337.760,101.677 336.730,101.677 336.416 C 101.677 336.102,102.133 334.989,102.690 333.942 C 103.248 332.895,103.821 331.483,103.964 330.803 C 104.107 330.124,104.530 329.065,104.902 328.451 C 105.275 327.836,105.821 326.523,106.115 325.532 C 106.410 324.541,106.949 323.217,107.313 322.589 C 107.677 321.961,108.150 320.783,108.364 319.970 C 108.578 319.157,109.145 317.807,109.624 316.969 C 110.103 316.131,110.496 315.203,110.499 314.907 C 110.501 314.611,110.975 313.419,111.551 312.259 C 112.128 311.099,112.604 309.894,112.610 309.582 C 112.616 309.269,113.077 308.157,113.635 307.111 C 114.192 306.064,114.765 304.651,114.909 303.972 C 115.052 303.292,115.472 302.237,115.843 301.626 C 116.213 301.015,116.812 299.665,117.174 298.625 C 118.080 296.021,119.226 293.244,120.431 290.733 C 120.990 289.568,121.448 288.360,121.448 288.049 C 121.448 287.738,121.836 286.752,122.312 285.858 C 122.787 284.965,123.404 283.467,123.682 282.530 C 123.960 281.593,124.524 280.275,124.934 279.601 C 125.345 278.927,125.682 278.125,125.683 277.818 C 125.683 277.511,126.084 276.478,126.572 275.523 C 127.060 274.568,127.677 273.071,127.943 272.198 C 128.208 271.324,128.841 269.831,129.350 268.879 C 129.858 267.928,130.274 266.896,130.275 266.585 C 130.276 266.274,130.752 265.066,131.333 263.901 C 131.914 262.736,132.390 261.527,132.391 261.215 C 132.391 260.902,132.868 259.753,133.451 258.662 C 134.034 257.570,134.510 256.463,134.510 256.201 C 134.510 255.939,134.910 254.943,135.398 253.987 C 135.886 253.032,136.521 251.469,136.809 250.513 C 137.097 249.558,137.584 248.393,137.891 247.924 C 138.198 247.454,138.684 246.283,138.970 245.320 C 139.256 244.357,139.878 242.838,140.354 241.944 C 140.829 241.050,141.218 240.047,141.218 239.715 C 141.218 239.383,141.683 238.240,142.251 237.176 C 142.818 236.112,143.392 234.658,143.526 233.946 C 143.660 233.233,144.054 232.289,144.401 231.847 C 144.749 231.405,145.220 230.334,145.449 229.467 C 145.677 228.600,146.189 227.335,146.585 226.655 C 146.981 225.975,147.533 224.657,147.811 223.726 C 148.088 222.795,148.705 221.302,149.180 220.408 C 149.655 219.514,150.044 218.511,150.044 218.179 C 150.044 217.847,150.521 216.682,151.103 215.590 C 151.686 214.499,152.162 213.400,152.162 213.149 C 152.162 212.897,152.634 211.742,153.210 210.582 C 153.787 209.422,154.263 208.222,154.270 207.915 C 154.276 207.608,154.680 206.576,155.168 205.620 C 155.657 204.665,156.274 203.169,156.539 202.295 C 156.805 201.421,157.438 199.928,157.946 198.977 C 158.454 198.025,158.870 196.977,158.870 196.646 C 158.870 196.316,159.260 195.313,159.735 194.418 C 160.211 193.523,160.784 192.111,161.008 191.279 C 161.231 190.448,161.699 189.368,162.048 188.879 C 162.396 188.390,162.871 187.277,163.103 186.405 C 163.335 185.533,163.813 184.342,164.166 183.760 C 164.519 183.177,164.994 181.986,165.222 181.112 C 165.449 180.238,166.001 178.888,166.447 178.111 C 166.893 177.335,167.372 176.169,167.512 175.522 C 167.651 174.874,168.227 173.468,168.790 172.397 C 169.354 171.325,169.820 170.187,169.826 169.867 C 169.832 169.547,170.308 168.336,170.885 167.176 C 171.461 166.016,171.939 164.824,171.947 164.528 C 171.955 164.232,172.431 163.116,173.006 162.048 C 173.581 160.980,174.051 159.850,174.051 159.538 C 174.051 159.225,174.507 158.113,175.065 157.066 C 175.622 156.020,176.194 154.633,176.335 153.986 C 176.476 153.338,177.053 151.932,177.616 150.861 C 178.180 149.790,178.646 148.651,178.652 148.331 C 178.658 148.011,179.135 146.800,179.711 145.640 C 180.287 144.480,180.759 143.325,180.759 143.074 C 180.759 142.822,181.236 141.724,181.818 140.632 C 182.401 139.540,182.877 138.388,182.877 138.070 C 182.877 137.753,183.349 136.544,183.925 135.384 C 184.502 134.224,184.978 133.020,184.985 132.709 C 184.991 132.398,185.411 131.366,185.920 130.414 C 186.428 129.463,187.061 127.970,187.327 127.096 C 187.592 126.222,188.209 124.726,188.697 123.771 C 189.186 122.815,189.585 121.804,189.585 121.524 C 189.585 121.243,189.970 120.277,190.441 119.377 C 190.912 118.477,191.493 117.106,191.733 116.330 C 191.972 115.554,192.540 114.220,192.995 113.365 C 193.450 112.510,193.822 111.540,193.822 111.209 C 193.822 110.879,194.238 109.830,194.746 108.879 C 195.254 107.927,195.887 106.434,196.153 105.560 C 196.418 104.687,197.035 103.190,197.524 102.235 C 198.012 101.280,198.416 100.247,198.422 99.940 C 198.428 99.633,198.905 98.433,199.482 97.273 C 200.058 96.113,200.530 94.958,200.530 94.707 C 200.530 94.455,201.006 93.357,201.589 92.265 C 202.171 91.173,202.648 90.024,202.649 89.712 C 202.650 89.400,203.126 88.191,203.707 87.026 C 204.288 85.861,204.764 84.653,204.765 84.342 C 204.766 84.031,205.182 82.999,205.690 82.047 C 206.198 81.096,206.849 79.523,207.137 78.553 C 207.424 77.582,207.867 76.549,208.120 76.258 C 208.373 75.966,208.816 74.934,209.103 73.963 C 209.391 72.992,210.042 71.419,210.550 70.468 C 211.058 69.517,211.475 68.484,211.475 68.173 C 211.476 67.862,211.952 66.655,212.533 65.490 C 213.114 64.325,213.590 63.116,213.591 62.803 C 213.592 62.491,214.069 61.342,214.651 60.251 C 215.234 59.159,215.711 58.051,215.711 57.789 C 215.711 57.527,216.110 56.531,216.598 55.576 C 217.087 54.621,217.718 53.071,218.000 52.132 C 218.283 51.193,218.820 49.922,219.193 49.308 C 219.566 48.693,219.988 47.635,220.131 46.955 C 220.274 46.275,220.848 44.863,221.405 43.816 C 221.962 42.769,222.418 41.640,222.418 41.306 C 222.418 40.973,222.895 39.806,223.477 38.715 C 224.060 37.623,224.537 36.524,224.537 36.273 C 224.537 36.022,225.008 34.867,225.585 33.707 C 226.161 32.547,226.638 31.336,226.644 31.016 C 226.650 30.695,227.116 29.557,227.679 28.486 C 228.243 27.415,228.819 26.009,228.961 25.361 C 229.102 24.713,229.674 23.327,230.231 22.280 C 230.788 21.234,231.244 20.106,231.244 19.773 C 231.244 19.441,231.636 18.434,232.114 17.534 C 232.955 15.953,232.962 15.886,232.314 15.540 C 231.394 15.047,143.397 15.064,142.552 15.557 M253.436 26.743 C 252.159 28.282,251.036 30.315,250.657 31.774 C 250.430 32.648,249.959 33.839,249.610 34.422 C 249.262 35.004,248.722 36.374,248.410 37.465 C 248.099 38.556,247.622 39.633,247.351 39.859 C 247.079 40.084,246.670 41.018,246.441 41.935 C 246.213 42.851,245.658 44.237,245.209 45.013 C 244.760 45.790,244.273 46.981,244.128 47.661 C 243.982 48.341,243.407 49.753,242.849 50.800 C 242.292 51.847,241.835 52.959,241.835 53.271 C 241.834 53.584,241.358 54.793,240.777 55.958 C 240.196 57.123,239.720 58.332,239.719 58.644 C 239.718 58.957,239.241 60.105,238.658 61.197 C 238.076 62.289,237.599 63.396,237.599 63.658 C 237.599 63.920,237.200 64.916,236.712 65.871 C 236.223 66.827,235.592 68.376,235.309 69.315 C 235.026 70.255,234.490 71.526,234.117 72.140 C 233.744 72.754,233.322 73.813,233.179 74.492 C 233.035 75.172,232.462 76.585,231.905 77.631 C 231.347 78.678,230.891 79.808,230.891 80.141 C 230.891 80.475,230.439 81.604,229.886 82.651 C 229.333 83.698,228.778 85.084,228.653 85.731 C 228.528 86.379,228.123 87.333,227.753 87.853 C 227.384 88.372,226.893 89.511,226.663 90.383 C 226.432 91.255,225.879 92.604,225.433 93.380 C 224.987 94.157,224.503 95.349,224.357 96.028 C 224.211 96.708,223.636 98.120,223.079 99.167 C 222.521 100.214,222.065 101.327,222.065 101.641 C 222.065 101.955,221.688 102.926,221.228 103.798 C 220.767 104.670,220.133 106.277,219.819 107.368 C 219.505 108.459,219.026 109.536,218.754 109.761 C 218.483 109.987,218.072 110.921,217.841 111.838 C 217.611 112.754,217.132 113.981,216.777 114.563 C 216.421 115.146,215.897 116.417,215.611 117.387 C 215.324 118.358,214.769 119.709,214.376 120.388 C 213.982 121.068,213.547 122.180,213.407 122.860 C 213.268 123.539,212.789 124.731,212.343 125.508 C 211.897 126.284,211.350 127.635,211.128 128.508 C 210.906 129.382,210.415 130.530,210.037 131.058 C 208.187 133.642,208.208 139.284,210.077 141.900 C 210.433 142.399,210.908 143.522,211.132 144.395 C 211.355 145.269,211.827 146.461,212.179 147.043 C 212.531 147.626,213.072 148.964,213.381 150.016 C 213.690 151.069,214.194 152.314,214.502 152.783 C 214.809 153.252,215.293 154.419,215.578 155.376 C 215.862 156.334,216.395 157.631,216.762 158.258 C 217.130 158.886,217.617 160.150,217.845 161.066 C 218.073 161.983,218.480 162.914,218.748 163.137 C 219.016 163.360,219.559 164.629,219.955 165.958 C 220.351 167.287,220.824 168.467,221.007 168.580 C 221.190 168.693,221.645 169.774,222.019 170.982 C 222.392 172.190,223.016 173.732,223.406 174.409 C 223.796 175.086,224.229 176.196,224.369 176.876 C 224.508 177.555,224.987 178.747,225.433 179.523 C 225.879 180.300,226.432 181.649,226.663 182.521 C 226.893 183.393,227.366 184.507,227.714 184.996 C 228.062 185.485,228.530 186.565,228.754 187.396 C 228.978 188.227,229.550 189.639,230.026 190.534 C 230.502 191.429,230.891 192.433,230.891 192.765 C 230.891 193.098,231.347 194.226,231.905 195.272 C 232.462 196.319,233.035 197.732,233.179 198.411 C 233.322 199.091,233.744 200.150,234.117 200.764 C 234.490 201.378,235.046 202.729,235.354 203.765 C 235.661 204.801,236.193 206.046,236.536 206.531 C 236.878 207.017,237.278 207.970,237.425 208.650 C 237.571 209.329,238.147 210.742,238.704 211.788 C 239.262 212.835,239.718 213.947,239.719 214.260 C 239.720 214.572,240.196 215.781,240.777 216.946 C 241.358 218.111,241.834 219.319,241.835 219.630 C 241.835 219.941,242.252 220.973,242.760 221.924 C 243.268 222.876,243.921 224.448,244.212 225.419 C 244.502 226.390,245.019 227.582,245.362 228.067 C 245.704 228.553,246.104 229.506,246.251 230.185 C 246.397 230.865,246.973 232.277,247.530 233.324 C 248.088 234.371,248.544 235.526,248.544 235.890 C 248.544 236.255,249.020 237.447,249.603 238.538 C 250.185 239.630,250.662 240.796,250.662 241.130 C 250.662 241.463,251.118 242.593,251.675 243.640 C 252.233 244.686,252.808 246.099,252.954 246.778 C 253.100 247.458,253.597 248.664,254.059 249.457 C 254.521 250.251,254.898 251.148,254.898 251.451 C 254.898 251.755,255.360 252.879,255.923 253.950 C 256.486 255.021,257.063 256.427,257.204 257.075 C 257.346 257.723,257.917 259.109,258.475 260.156 C 259.032 261.202,259.488 262.331,259.488 262.663 C 259.488 262.995,259.866 263.977,260.327 264.845 C 260.789 265.713,261.423 267.305,261.736 268.382 C 262.049 269.459,262.528 270.525,262.799 270.750 C 263.071 270.975,263.480 271.910,263.709 272.826 C 263.937 273.743,264.492 275.128,264.941 275.905 C 265.390 276.681,265.877 277.873,266.022 278.553 C 266.168 279.232,266.743 280.645,267.301 281.691 C 267.858 282.738,268.314 283.866,268.314 284.198 C 268.314 284.530,268.692 285.513,269.154 286.381 C 269.615 287.249,270.249 288.840,270.562 289.918 C 270.875 290.995,271.354 292.060,271.625 292.286 C 271.897 292.511,272.304 293.428,272.529 294.323 C 272.754 295.217,273.328 296.681,273.804 297.575 C 274.280 298.469,274.669 299.463,274.669 299.785 C 274.669 300.106,275.130 301.246,275.694 302.317 C 276.257 303.388,276.829 304.795,276.964 305.442 C 277.099 306.090,277.574 307.255,278.020 308.032 C 278.466 308.808,279.023 310.157,279.258 311.029 C 279.493 311.901,279.962 313.014,280.301 313.501 C 280.639 313.988,281.109 315.170,281.344 316.127 C 281.579 317.084,282.064 318.277,282.421 318.778 C 282.777 319.279,283.261 320.402,283.496 321.274 C 283.730 322.146,284.287 323.495,284.733 324.272 C 285.179 325.049,285.655 326.240,285.790 326.920 C 285.925 327.599,286.401 328.791,286.847 329.568 C 287.293 330.344,287.849 331.693,288.084 332.565 C 288.319 333.437,288.788 334.549,289.127 335.036 C 289.465 335.524,289.932 336.692,290.163 337.632 C 290.394 338.572,290.855 339.750,291.187 340.248 C 291.520 340.747,292.030 341.879,292.321 342.764 C 292.684 343.867,293.229 344.627,294.050 345.179 L 295.250 345.984 341.757 345.984 C 380.288 345.984,388.331 345.903,388.657 345.509 C 389.558 344.423,389.482 343.018,388.411 340.982 C 387.833 339.883,387.250 338.453,387.115 337.806 C 386.981 337.158,386.504 336.072,386.055 335.393 C 385.606 334.713,385.129 333.627,384.994 332.980 C 384.860 332.332,384.289 330.926,383.725 329.855 C 383.162 328.784,382.698 327.645,382.695 327.325 C 382.691 327.005,382.218 325.949,381.642 324.978 C 381.066 324.007,380.592 322.958,380.589 322.647 C 380.585 322.337,380.194 321.351,379.718 320.457 C 379.243 319.563,378.608 318.004,378.308 316.992 C 378.007 315.980,377.538 314.900,377.265 314.593 C 376.991 314.285,376.521 313.194,376.219 312.168 C 375.918 311.142,375.366 309.871,374.993 309.344 C 374.620 308.816,374.202 307.829,374.063 307.149 C 373.924 306.470,373.459 305.357,373.030 304.678 C 372.600 303.998,372.041 302.727,371.787 301.853 C 371.533 300.980,370.946 299.615,370.482 298.822 C 370.018 298.028,369.638 297.137,369.638 296.841 C 369.638 296.546,369.182 295.448,368.625 294.401 C 368.067 293.354,367.491 291.942,367.345 291.262 C 367.199 290.583,366.765 289.582,366.380 289.038 C 365.996 288.494,365.476 287.271,365.225 286.320 C 364.974 285.368,364.451 284.143,364.063 283.598 C 363.674 283.052,363.171 281.893,362.945 281.021 C 362.719 280.149,362.258 279.038,361.920 278.553 C 361.583 278.067,361.099 276.955,360.844 276.081 C 360.589 275.207,360.001 273.843,359.537 273.049 C 359.073 272.256,358.694 271.358,358.694 271.055 C 358.694 270.752,358.217 269.598,357.635 268.491 C 357.052 267.383,356.575 266.282,356.575 266.043 C 356.575 265.805,356.168 264.828,355.670 263.873 C 355.172 262.917,354.519 261.342,354.219 260.371 C 353.918 259.400,353.393 258.208,353.051 257.723 C 352.710 257.237,352.173 255.948,351.859 254.856 C 351.544 253.765,351.061 252.685,350.785 252.456 C 350.509 252.227,350.094 251.255,349.864 250.296 C 349.634 249.337,349.159 248.187,348.808 247.741 C 348.457 247.295,347.980 246.221,347.746 245.354 C 347.513 244.487,346.942 243.128,346.477 242.334 C 346.012 241.541,345.631 240.654,345.631 240.364 C 345.631 240.074,345.224 239.056,344.726 238.100 C 344.228 237.145,343.575 235.569,343.274 234.598 C 342.974 233.628,342.448 232.436,342.107 231.951 C 341.765 231.465,341.229 230.175,340.914 229.084 C 340.600 227.993,340.117 226.913,339.840 226.684 C 339.564 226.454,339.150 225.482,338.920 224.523 C 338.690 223.564,338.215 222.415,337.864 221.969 C 337.513 221.523,337.035 220.449,336.802 219.582 C 336.569 218.715,335.997 217.356,335.532 216.562 C 335.067 215.768,334.687 214.871,334.687 214.568 C 334.687 214.265,334.214 213.118,333.636 212.019 C 333.058 210.920,332.406 209.356,332.187 208.544 C 331.968 207.732,331.509 206.669,331.165 206.182 C 330.822 205.694,330.284 204.403,329.970 203.312 C 329.655 202.221,329.176 201.144,328.904 200.918 C 328.633 200.693,328.225 199.771,327.998 198.870 C 327.771 197.970,327.197 196.570,326.723 195.761 C 326.249 194.952,325.861 194.048,325.861 193.752 C 325.861 193.457,325.384 192.322,324.801 191.230 C 324.219 190.139,323.742 189.020,323.742 188.745 C 323.742 188.470,323.269 187.346,322.691 186.247 C 322.113 185.148,321.461 183.584,321.243 182.772 C 321.024 181.960,320.564 180.896,320.221 180.409 C 319.878 179.922,319.340 178.631,319.025 177.540 C 318.711 176.448,318.228 175.368,317.952 175.139 C 317.675 174.910,317.261 173.938,317.031 172.979 C 316.801 172.020,316.327 170.872,315.979 170.429 C 315.630 169.985,315.108 168.831,314.819 167.865 C 314.530 166.898,313.877 165.329,313.369 164.378 C 312.861 163.427,312.445 162.408,312.445 162.114 C 312.445 161.821,312.064 160.931,311.599 160.137 C 311.134 159.343,310.562 157.980,310.327 157.108 C 310.093 156.236,309.616 155.123,309.267 154.634 C 308.919 154.145,308.449 153.031,308.223 152.159 C 307.997 151.287,307.526 150.173,307.176 149.682 C 306.826 149.192,306.281 147.902,305.965 146.816 C 305.649 145.730,305.171 144.658,304.902 144.435 C 304.633 144.212,304.203 143.277,303.948 142.359 C 303.692 141.440,303.036 139.838,302.491 138.799 C 301.946 137.760,301.500 136.662,301.500 136.359 C 301.500 136.056,301.120 135.158,300.655 134.365 C 300.190 133.571,299.617 132.208,299.383 131.336 C 299.148 130.464,298.675 129.352,298.332 128.865 C 297.989 128.377,297.451 127.086,297.137 125.995 C 296.822 124.904,296.345 123.829,296.076 123.605 C 295.807 123.382,295.387 122.448,295.143 121.529 C 294.899 120.610,294.338 119.303,293.897 118.623 C 293.455 117.944,292.979 116.831,292.838 116.152 C 292.698 115.472,292.127 114.060,291.569 113.013 C 291.012 111.966,290.556 110.868,290.556 110.573 C 290.556 110.277,290.176 109.386,289.711 108.592 C 289.246 107.799,288.673 106.436,288.438 105.564 C 288.204 104.692,287.694 103.532,287.306 102.986 C 286.917 102.441,286.388 101.192,286.129 100.212 C 285.870 99.231,285.426 98.167,285.141 97.846 C 284.856 97.526,284.379 96.470,284.082 95.499 C 283.784 94.528,283.133 92.952,282.635 91.997 C 282.137 91.041,281.730 90.045,281.730 89.783 C 281.730 89.521,281.253 88.414,280.671 87.322 C 280.088 86.231,279.611 85.082,279.610 84.769 C 279.610 84.457,279.270 83.645,278.855 82.966 C 278.441 82.286,277.809 80.880,277.451 79.841 C 277.093 78.802,276.497 77.451,276.126 76.840 C 275.755 76.228,275.340 75.172,275.203 74.492 C 275.067 73.813,274.584 72.701,274.131 72.021 C 273.677 71.342,273.198 70.188,273.065 69.459 C 272.932 68.729,272.541 67.772,272.195 67.332 C 271.850 66.893,271.322 65.709,271.023 64.702 C 270.724 63.695,270.071 62.175,269.573 61.325 C 269.075 60.475,268.667 59.539,268.667 59.245 C 268.667 58.951,268.295 58.011,267.841 57.156 C 267.386 56.301,266.812 54.966,266.566 54.191 C 266.319 53.415,265.763 52.145,265.330 51.368 C 264.896 50.591,264.338 49.204,264.089 48.286 C 263.840 47.367,263.426 46.440,263.168 46.226 C 262.909 46.012,262.438 44.937,262.121 43.836 C 261.803 42.736,261.318 41.584,261.044 41.277 C 260.769 40.969,260.289 39.857,259.978 38.805 C 259.666 37.754,259.031 36.244,258.567 35.450 C 258.103 34.656,257.723 33.765,257.723 33.470 C 257.723 33.174,257.270 32.076,256.717 31.029 C 256.163 29.983,255.594 28.650,255.452 28.069 C 254.989 26.167,254.294 25.710,253.436 26.743 M255.087 28.709 C 255.216 29.327,255.681 30.468,256.121 31.244 C 256.561 32.021,257.120 33.292,257.362 34.069 C 257.604 34.846,258.036 35.854,258.323 36.310 C 258.610 36.766,259.150 38.029,259.524 39.116 C 259.898 40.203,260.416 41.418,260.674 41.817 C 260.933 42.216,261.428 43.416,261.774 44.484 C 262.120 45.552,262.622 46.677,262.889 46.985 C 263.156 47.292,263.630 48.404,263.942 49.456 C 264.254 50.508,264.781 51.765,265.112 52.251 C 265.444 52.736,265.918 53.848,266.166 54.722 C 266.414 55.596,266.900 56.787,267.246 57.370 C 267.592 57.952,268.075 59.064,268.319 59.841 C 268.563 60.618,269.138 61.903,269.597 62.697 C 270.057 63.490,270.432 64.377,270.432 64.667 C 270.432 64.957,270.840 65.975,271.338 66.930 C 271.836 67.886,272.487 69.462,272.784 70.432 C 273.082 71.403,273.528 72.436,273.775 72.727 C 274.023 73.019,274.502 74.106,274.840 75.144 C 275.178 76.182,275.832 77.691,276.293 78.498 C 276.754 79.305,277.134 80.220,277.136 80.533 C 277.138 80.845,277.617 81.994,278.199 83.086 C 278.782 84.177,279.259 85.289,279.259 85.557 C 279.259 85.825,279.735 86.937,280.318 88.028 C 280.900 89.120,281.377 90.238,281.377 90.514 C 281.377 90.789,281.823 91.864,282.368 92.903 C 282.913 93.942,283.568 95.544,283.824 96.463 C 284.080 97.381,284.500 98.308,284.758 98.522 C 285.016 98.737,285.473 99.755,285.772 100.786 C 286.072 101.816,286.713 103.352,287.197 104.198 C 287.680 105.045,288.078 105.993,288.080 106.305 C 288.083 106.618,288.561 107.766,289.144 108.858 C 289.726 109.950,290.203 111.062,290.203 111.329 C 290.203 111.597,290.680 112.709,291.262 113.801 C 291.845 114.892,292.321 116.011,292.321 116.286 C 292.321 116.561,292.767 117.636,293.312 118.676 C 293.857 119.715,294.513 121.316,294.768 122.235 C 295.024 123.154,295.454 124.088,295.723 124.311 C 295.992 124.535,296.469 125.610,296.784 126.701 C 297.098 127.792,297.636 129.084,297.979 129.571 C 298.322 130.058,298.795 131.170,299.030 132.042 C 299.264 132.914,299.837 134.277,300.302 135.071 C 300.767 135.864,301.147 136.756,301.147 137.051 C 301.147 137.346,301.624 138.481,302.207 139.573 C 302.789 140.665,303.266 141.768,303.266 142.026 C 303.266 142.283,303.821 143.597,304.500 144.945 C 305.179 146.293,305.737 147.635,305.740 147.926 C 305.743 148.217,306.137 149.141,306.616 149.979 C 307.095 150.817,307.666 152.166,307.884 152.976 C 308.103 153.787,308.566 154.851,308.914 155.340 C 309.263 155.829,309.739 156.942,309.974 157.814 C 310.209 158.686,310.781 160.049,311.246 160.843 C 311.711 161.637,312.092 162.511,312.093 162.785 C 312.093 163.059,312.650 164.386,313.329 165.734 C 314.008 167.082,314.563 168.396,314.563 168.654 C 314.563 168.911,315.040 170.015,315.622 171.107 C 316.205 172.198,316.683 173.347,316.686 173.660 C 316.688 173.972,317.082 174.913,317.561 175.751 C 318.040 176.589,318.610 177.938,318.829 178.749 C 319.047 179.560,319.506 180.622,319.850 181.109 C 320.193 181.596,320.731 182.887,321.045 183.979 C 321.360 185.070,321.837 186.145,322.106 186.368 C 322.375 186.592,322.804 187.526,323.060 188.444 C 323.316 189.363,323.971 190.965,324.517 192.004 C 325.062 193.043,325.508 194.119,325.508 194.394 C 325.508 194.669,325.984 195.787,326.567 196.879 C 327.149 197.971,327.626 199.105,327.626 199.401 C 327.626 199.696,328.006 200.587,328.471 201.381 C 328.936 202.175,329.509 203.538,329.743 204.410 C 329.978 205.282,330.451 206.394,330.794 206.881 C 331.137 207.368,331.675 208.660,331.990 209.751 C 332.304 210.842,332.781 211.917,333.050 212.141 C 333.319 212.364,333.749 213.298,334.005 214.217 C 334.261 215.135,334.916 216.737,335.461 217.776 C 336.006 218.815,336.452 219.891,336.452 220.166 C 336.452 220.441,336.929 221.560,337.511 222.651 C 338.094 223.743,338.572 224.892,338.574 225.204 C 338.577 225.517,338.971 226.458,339.450 227.296 C 339.929 228.134,340.499 229.483,340.718 230.293 C 340.936 231.104,341.398 232.166,341.745 232.653 C 342.091 233.141,342.621 234.334,342.921 235.305 C 343.222 236.275,343.875 237.851,344.373 238.807 C 344.871 239.762,345.278 240.739,345.278 240.977 C 345.278 241.216,345.755 242.317,346.337 243.425 C 346.920 244.532,347.396 245.663,347.396 245.938 C 347.396 246.214,347.873 247.332,348.455 248.424 C 349.038 249.515,349.515 250.631,349.515 250.903 C 349.515 251.175,349.982 252.304,350.553 253.413 C 351.125 254.521,351.704 255.905,351.840 256.487 C 351.977 257.070,352.366 257.944,352.704 258.429 C 353.042 258.914,353.565 260.106,353.865 261.077 C 354.166 262.048,354.819 263.624,355.317 264.579 C 355.815 265.534,356.222 266.511,356.222 266.749 C 356.222 266.988,356.699 268.089,357.282 269.197 C 357.864 270.304,358.341 271.472,358.342 271.792 C 358.343 272.112,358.683 272.930,359.097 273.610 C 359.512 274.289,360.146 275.702,360.506 276.749 C 360.866 277.796,361.322 278.846,361.518 279.082 C 361.714 279.319,362.189 280.424,362.572 281.539 C 362.956 282.654,363.573 284.067,363.945 284.678 C 364.316 285.290,364.731 286.346,364.867 287.026 C 365.003 287.705,365.482 288.817,365.931 289.497 C 366.380 290.177,366.859 291.289,366.995 291.968 C 367.131 292.648,367.547 293.704,367.918 294.316 C 368.289 294.927,368.885 296.277,369.243 297.316 C 369.601 298.356,370.232 299.762,370.647 300.441 C 371.062 301.121,371.401 301.931,371.402 302.242 C 371.403 302.553,371.775 303.507,372.230 304.362 C 372.685 305.217,373.258 306.552,373.505 307.327 C 373.751 308.103,374.308 309.373,374.741 310.150 C 375.174 310.927,375.732 312.314,375.981 313.232 C 376.230 314.151,376.645 315.078,376.903 315.292 C 377.161 315.506,377.629 316.564,377.942 317.643 C 378.256 318.722,378.738 319.948,379.013 320.368 C 379.288 320.788,379.812 321.997,380.176 323.055 C 380.540 324.113,381.177 325.534,381.591 326.214 C 382.006 326.893,382.346 327.711,382.346 328.031 C 382.347 328.351,382.824 329.519,383.407 330.627 C 383.989 331.734,384.466 332.835,384.466 333.074 C 384.466 333.313,384.863 334.289,385.348 335.245 C 385.832 336.200,386.491 337.776,386.812 338.747 C 387.132 339.718,387.689 340.891,388.049 341.354 C 388.777 342.292,388.890 343.562,388.337 344.595 C 387.979 345.265,387.097 345.278,341.823 345.261 C 289.532 345.242,293.642 345.477,292.779 342.454 C 292.529 341.580,291.927 340.129,291.441 339.228 C 290.954 338.328,290.556 337.362,290.556 337.082 C 290.556 336.801,290.157 335.790,289.668 334.835 C 289.180 333.880,288.549 332.330,288.266 331.391 C 287.983 330.452,287.447 329.181,287.074 328.566 C 286.701 327.952,286.284 326.893,286.146 326.214 C 286.009 325.534,285.532 324.342,285.086 323.566 C 284.640 322.789,284.084 321.440,283.849 320.568 C 283.614 319.696,283.150 318.584,282.817 318.097 C 282.484 317.610,282.006 316.496,281.754 315.622 C 281.503 314.748,280.918 313.320,280.455 312.448 C 279.991 311.575,279.612 310.599,279.612 310.277 C 279.612 309.955,279.151 308.816,278.587 307.745 C 278.024 306.673,277.452 305.293,277.317 304.678 C 277.182 304.062,276.610 302.682,276.047 301.611 C 275.483 300.540,275.017 299.402,275.011 299.082 C 275.005 298.761,274.528 297.550,273.952 296.390 C 273.375 295.230,272.904 294.075,272.904 293.824 C 272.904 293.573,272.427 292.474,271.845 291.382 C 271.262 290.291,270.786 289.125,270.786 288.791 C 270.786 288.457,270.329 287.328,269.772 286.281 C 269.215 285.234,268.641 283.822,268.498 283.142 C 268.355 282.462,267.933 281.404,267.560 280.789 C 267.187 280.175,266.641 278.862,266.347 277.871 C 266.053 276.880,265.511 275.556,265.144 274.928 C 264.777 274.300,264.290 273.037,264.061 272.120 C 263.833 271.204,263.424 270.269,263.152 270.044 C 262.881 269.818,262.402 268.753,262.089 267.676 C 261.776 266.599,261.142 265.007,260.680 264.139 C 260.219 263.271,259.841 262.289,259.841 261.957 C 259.841 261.624,259.385 260.496,258.828 259.450 C 258.270 258.403,257.695 256.990,257.549 256.311 C 257.403 255.631,256.906 254.426,256.444 253.632 C 255.983 252.838,255.605 251.941,255.605 251.638 C 255.605 251.335,255.144 250.210,254.580 249.139 C 254.017 248.068,253.440 246.662,253.299 246.014 C 253.157 245.367,252.586 243.980,252.028 242.934 C 251.471 241.887,251.015 240.757,251.015 240.424 C 251.015 240.090,250.538 238.924,249.956 237.832 C 249.373 236.741,248.897 235.550,248.897 235.187 C 248.897 234.824,248.481 233.749,247.973 232.798 C 247.464 231.846,246.813 230.274,246.526 229.303 C 246.239 228.332,245.796 227.299,245.543 227.008 C 245.289 226.717,244.829 225.617,244.519 224.565 C 244.210 223.512,243.705 222.267,243.398 221.798 C 243.090 221.329,242.605 220.158,242.319 219.195 C 242.033 218.232,241.410 216.712,240.935 215.818 C 240.459 214.925,240.071 213.921,240.071 213.589 C 240.071 213.257,239.594 212.092,239.011 211.001 C 238.429 209.909,237.952 208.802,237.952 208.540 C 237.952 208.278,237.553 207.282,237.065 206.326 C 236.576 205.371,235.941 203.808,235.654 202.852 C 235.366 201.897,234.879 200.731,234.572 200.262 C 234.264 199.793,233.779 198.622,233.493 197.659 C 233.207 196.696,232.584 195.177,232.109 194.283 C 231.633 193.389,231.244 192.386,231.244 192.054 C 231.244 191.722,230.788 190.593,230.231 189.547 C 229.674 188.500,229.098 187.087,228.951 186.408 C 228.805 185.728,228.404 184.773,228.060 184.286 C 227.716 183.799,227.246 182.687,227.016 181.815 C 226.786 180.943,226.300 179.716,225.936 179.088 C 225.572 178.460,225.029 177.123,224.730 176.115 C 224.431 175.108,223.934 173.900,223.627 173.431 C 223.320 172.962,222.828 171.758,222.533 170.755 C 222.239 169.752,221.710 168.455,221.358 167.873 C 221.006 167.290,220.528 166.100,220.296 165.228 C 220.064 164.356,219.589 163.243,219.241 162.754 C 218.893 162.265,218.420 161.151,218.190 160.279 C 217.960 159.407,217.474 158.180,217.110 157.552 C 216.746 156.925,216.207 155.600,215.912 154.609 C 215.618 153.618,215.072 152.305,214.699 151.691 C 214.327 151.076,213.904 150.018,213.761 149.338 C 213.618 148.658,213.045 147.246,212.487 146.199 C 211.930 145.152,211.474 144.040,211.473 143.728 C 211.473 143.415,211.012 142.286,210.449 141.218 C 208.729 137.955,208.705 134.086,210.392 131.718 C 210.753 131.212,211.236 130.083,211.466 129.211 C 211.696 128.339,212.182 127.112,212.546 126.484 C 212.910 125.857,213.441 124.560,213.725 123.602 C 214.010 122.645,214.494 121.478,214.801 121.009 C 215.108 120.540,215.595 119.374,215.883 118.419 C 216.171 117.463,216.806 115.900,217.294 114.945 C 217.782 113.989,218.184 112.957,218.186 112.650 C 218.188 112.343,218.582 111.406,219.061 110.568 C 219.540 109.731,220.111 108.382,220.329 107.571 C 220.547 106.761,221.107 105.382,221.572 104.508 C 222.038 103.634,222.418 102.663,222.418 102.350 C 222.418 102.038,222.834 101.004,223.342 100.053 C 223.851 99.101,224.484 97.608,224.749 96.734 C 225.015 95.861,225.632 94.364,226.120 93.409 C 226.608 92.454,227.008 91.419,227.008 91.109 C 227.008 90.799,227.348 89.912,227.763 89.139 C 228.178 88.365,228.791 86.937,229.126 85.966 C 229.461 84.996,230.075 83.568,230.490 82.794 C 230.905 82.020,231.244 81.129,231.244 80.814 C 231.244 80.499,231.701 79.384,232.258 78.337 C 232.815 77.291,233.387 75.904,233.528 75.257 C 233.669 74.609,234.246 73.203,234.810 72.132 C 235.373 71.061,235.839 69.922,235.845 69.602 C 235.851 69.282,236.328 68.071,236.904 66.911 C 237.481 65.751,237.952 64.596,237.952 64.345 C 237.952 64.093,238.429 62.995,239.011 61.903 C 239.594 60.811,240.071 59.663,240.072 59.350 C 240.073 59.038,240.549 57.829,241.130 56.664 C 241.711 55.499,242.187 54.290,242.188 53.977 C 242.188 53.665,242.645 52.553,243.202 51.506 C 243.760 50.459,244.331 49.073,244.473 48.425 C 244.614 47.778,245.190 46.372,245.754 45.300 C 246.317 44.229,246.779 43.091,246.780 42.771 C 246.781 42.451,247.117 41.638,247.528 40.964 C 247.939 40.290,248.509 38.939,248.796 37.963 C 249.083 36.986,249.605 35.711,249.957 35.128 C 250.309 34.545,250.784 33.354,251.012 32.480 C 252.081 28.382,254.544 26.103,255.087 28.709 " stroke="none" fill="#fcb51e" fill-rule="evenodd"></path><path id="path2" d="M0.000 176.523 L 0.000 353.045 200.000 353.045 L 400.000 353.045 400.000 176.523 L 400.000 0.000 200.000 0.000 L 0.000 0.000 0.000 176.523 M232.314 15.540 C 232.962 15.886,232.955 15.953,232.114 17.534 C 231.636 18.434,231.244 19.441,231.244 19.773 C 231.244 20.106,230.788 21.234,230.231 22.280 C 229.674 23.327,229.102 24.713,228.961 25.361 C 228.819 26.009,228.243 27.415,227.679 28.486 C 227.116 29.557,226.650 30.695,226.644 31.016 C 226.638 31.336,226.161 32.547,225.585 33.707 C 225.008 34.867,224.537 36.022,224.537 36.273 C 224.537 36.524,224.060 37.623,223.477 38.715 C 222.895 39.806,222.418 40.973,222.418 41.306 C 222.418 41.640,221.962 42.769,221.405 43.816 C 220.848 44.863,220.274 46.275,220.131 46.955 C 219.988 47.635,219.566 48.693,219.193 49.308 C 218.820 49.922,218.283 51.193,218.000 52.132 C 217.718 53.071,217.087 54.621,216.598 55.576 C 216.110 56.531,215.711 57.527,215.711 57.789 C 215.711 58.051,215.234 59.159,214.651 60.251 C 214.069 61.342,213.592 62.491,213.591 62.803 C 213.590 63.116,213.114 64.325,212.533 65.490 C 211.952 66.655,211.476 67.862,211.475 68.173 C 211.475 68.484,211.058 69.517,210.550 70.468 C 210.042 71.419,209.391 72.992,209.103 73.963 C 208.816 74.934,208.373 75.966,208.120 76.258 C 207.867 76.549,207.424 77.582,207.137 78.553 C 206.849 79.523,206.198 81.096,205.690 82.047 C 205.182 82.999,204.766 84.031,204.765 84.342 C 204.764 84.653,204.288 85.861,203.707 87.026 C 203.126 88.191,202.650 89.400,202.649 89.712 C 202.648 90.024,202.171 91.173,201.589 92.265 C 201.006 93.357,200.530 94.455,200.530 94.707 C 200.530 94.958,200.058 96.113,199.482 97.273 C 198.905 98.433,198.428 99.633,198.422 99.940 C 198.416 100.247,198.012 101.280,197.524 102.235 C 197.035 103.190,196.418 104.687,196.153 105.560 C 195.887 106.434,195.254 107.927,194.746 108.879 C 194.238 109.830,193.822 110.879,193.822 111.209 C 193.822 111.540,193.450 112.510,192.995 113.365 C 192.540 114.220,191.972 115.554,191.733 116.330 C 191.493 117.106,190.912 118.477,190.441 119.377 C 189.970 120.277,189.585 121.243,189.585 121.524 C 189.585 121.804,189.186 122.815,188.697 123.771 C 188.209 124.726,187.592 126.222,187.327 127.096 C 187.061 127.970,186.428 129.463,185.920 130.414 C 185.411 131.366,184.991 132.398,184.985 132.709 C 184.978 133.020,184.502 134.224,183.925 135.384 C 183.349 136.544,182.877 137.753,182.877 138.070 C 182.877 138.388,182.401 139.540,181.818 140.632 C 181.236 141.724,180.759 142.822,180.759 143.074 C 180.759 143.325,180.287 144.480,179.711 145.640 C 179.135 146.800,178.658 148.011,178.652 148.331 C 178.646 148.651,178.180 149.790,177.616 150.861 C 177.053 151.932,176.476 153.338,176.335 153.986 C 176.194 154.633,175.622 156.020,175.065 157.066 C 174.507 158.113,174.051 159.225,174.051 159.538 C 174.051 159.850,173.581 160.980,173.006 162.048 C 172.431 163.116,171.955 164.232,171.947 164.528 C 171.939 164.824,171.461 166.016,170.885 167.176 C 170.308 168.336,169.832 169.547,169.826 169.867 C 169.820 170.187,169.354 171.325,168.790 172.397 C 168.227 173.468,167.651 174.874,167.512 175.522 C 167.372 176.169,166.893 177.335,166.447 178.111 C 166.001 178.888,165.449 180.238,165.222 181.112 C 164.994 181.986,164.519 183.177,164.166 183.760 C 163.813 184.342,163.335 185.533,163.103 186.405 C 162.871 187.277,162.396 188.390,162.048 188.879 C 161.699 189.368,161.231 190.448,161.008 191.279 C 160.784 192.111,160.211 193.523,159.735 194.418 C 159.260 195.313,158.870 196.316,158.870 196.646 C 158.870 196.977,158.454 198.025,157.946 198.977 C 157.438 199.928,156.805 201.421,156.539 202.295 C 156.274 203.169,155.657 204.665,155.168 205.620 C 154.680 206.576,154.276 207.608,154.270 207.915 C 154.263 208.222,153.787 209.422,153.210 210.582 C 152.634 211.742,152.162 212.897,152.162 213.149 C 152.162 213.400,151.686 214.499,151.103 215.590 C 150.521 216.682,150.044 217.847,150.044 218.179 C 150.044 218.511,149.655 219.514,149.180 220.408 C 148.705 221.302,148.088 222.795,147.811 223.726 C 147.533 224.657,146.981 225.975,146.585 226.655 C 146.189 227.335,145.677 228.600,145.449 229.467 C 145.220 230.334,144.749 231.405,144.401 231.847 C 144.054 232.289,143.660 233.233,143.526 233.946 C 143.392 234.658,142.818 236.112,142.251 237.176 C 141.683 238.240,141.218 239.383,141.218 239.715 C 141.218 240.047,140.829 241.050,140.354 241.944 C 139.878 242.838,139.256 244.357,138.970 245.320 C 138.684 246.283,138.198 247.454,137.891 247.924 C 137.584 248.393,137.097 249.558,136.809 250.513 C 136.521 251.469,135.886 253.032,135.398 253.987 C 134.910 254.943,134.510 255.939,134.510 256.201 C 134.510 256.463,134.034 257.570,133.451 258.662 C 132.868 259.753,132.391 260.902,132.391 261.215 C 132.390 261.527,131.914 262.736,131.333 263.901 C 130.752 265.066,130.276 266.274,130.275 266.585 C 130.274 266.896,129.858 267.928,129.350 268.879 C 128.841 269.831,128.208 271.324,127.943 272.198 C 127.677 273.071,127.060 274.568,126.572 275.523 C 126.084 276.478,125.683 277.511,125.683 277.818 C 125.682 278.125,125.345 278.927,124.934 279.601 C 124.524 280.275,123.960 281.593,123.682 282.530 C 123.404 283.467,122.787 284.965,122.312 285.858 C 121.836 286.752,121.448 287.738,121.448 288.049 C 121.448 288.360,120.990 289.568,120.431 290.733 C 119.226 293.244,118.080 296.021,117.174 298.625 C 116.812 299.665,116.213 301.015,115.843 301.626 C 115.472 302.237,115.052 303.292,114.909 303.972 C 114.765 304.651,114.192 306.064,113.635 307.111 C 113.077 308.157,112.616 309.269,112.610 309.582 C 112.604 309.894,112.128 311.099,111.551 312.259 C 110.975 313.419,110.501 314.611,110.499 314.907 C 110.496 315.203,110.103 316.131,109.624 316.969 C 109.145 317.807,108.578 319.157,108.364 319.970 C 108.150 320.783,107.677 321.961,107.313 322.589 C 106.949 323.217,106.410 324.541,106.115 325.532 C 105.821 326.523,105.275 327.836,104.902 328.451 C 104.530 329.065,104.107 330.124,103.964 330.803 C 103.821 331.483,103.248 332.895,102.690 333.942 C 102.133 334.989,101.677 336.102,101.677 336.416 C 101.677 336.730,101.265 337.760,100.762 338.706 C 100.259 339.651,99.618 341.196,99.338 342.141 C 98.954 343.431,98.504 344.077,97.523 344.744 L 96.217 345.631 53.140 345.626 C 29.447 345.624,9.703 345.525,9.264 345.408 C 8.102 345.096,7.921 343.794,8.790 341.998 C 9.198 341.155,9.532 340.222,9.532 339.923 C 9.532 339.625,9.948 338.603,10.456 337.652 C 10.965 336.701,11.598 335.207,11.863 334.334 C 12.129 333.460,12.746 331.963,13.234 331.008 C 13.722 330.053,14.122 329.065,14.122 328.812 C 14.122 328.560,14.598 327.415,15.181 326.269 C 15.763 325.122,16.241 323.966,16.241 323.699 C 16.242 323.431,16.718 322.259,17.299 321.094 C 17.880 319.929,18.356 318.722,18.357 318.411 C 18.358 318.100,18.747 317.114,19.223 316.220 C 19.698 315.326,20.321 313.807,20.607 312.844 C 20.893 311.881,21.378 310.710,21.685 310.241 C 21.993 309.772,22.497 308.527,22.807 307.474 C 23.116 306.422,23.577 305.322,23.831 305.031 C 24.084 304.740,24.526 303.707,24.814 302.736 C 25.101 301.765,25.752 300.193,26.260 299.241 C 26.769 298.290,27.185 297.257,27.186 296.947 C 27.187 296.636,27.663 295.428,28.244 294.263 C 28.825 293.098,29.301 291.889,29.301 291.577 C 29.302 291.264,29.779 290.115,30.362 289.024 C 30.944 287.932,31.421 286.814,31.421 286.539 C 31.421 286.263,31.882 285.162,32.445 284.091 C 33.009 283.019,33.586 281.613,33.727 280.966 C 33.868 280.318,34.440 278.932,34.997 277.885 C 35.555 276.838,36.011 275.726,36.012 275.414 C 36.013 275.101,36.489 273.892,37.070 272.727 C 37.651 271.562,38.127 270.353,38.128 270.041 C 38.128 269.728,38.605 268.580,39.188 267.488 C 39.771 266.396,40.247 265.298,40.247 265.046 C 40.247 264.795,40.719 263.640,41.295 262.480 C 41.872 261.320,42.348 260.109,42.354 259.789 C 42.360 259.469,42.826 258.330,43.390 257.259 C 43.953 256.188,44.530 254.782,44.671 254.134 C 44.813 253.487,45.384 252.100,45.942 251.054 C 46.499 250.007,46.955 248.893,46.955 248.579 C 46.955 248.265,47.336 247.293,47.801 246.419 C 48.267 245.544,48.839 244.117,49.073 243.247 C 49.308 242.378,49.780 241.267,50.123 240.780 C 50.466 240.293,51.020 238.941,51.354 237.776 C 51.688 236.611,52.170 235.419,52.424 235.128 C 52.679 234.837,53.141 233.737,53.451 232.685 C 53.760 231.632,54.265 230.387,54.572 229.918 C 54.880 229.449,55.372 228.245,55.666 227.242 C 55.961 226.240,56.490 224.943,56.842 224.360 C 57.194 223.778,57.672 222.588,57.904 221.716 C 58.136 220.843,58.610 219.730,58.959 219.241 C 59.307 218.752,59.783 217.640,60.017 216.770 C 60.252 215.900,60.824 214.473,61.290 213.599 C 61.755 212.725,62.136 211.746,62.136 211.424 C 62.136 211.103,62.597 209.963,63.160 208.892 C 63.724 207.821,64.299 206.415,64.439 205.767 C 64.579 205.119,65.058 203.954,65.504 203.177 C 65.950 202.401,66.503 201.052,66.733 200.180 C 66.963 199.308,67.447 198.179,67.808 197.673 C 68.169 197.166,68.635 195.989,68.844 195.057 C 69.052 194.126,69.519 192.949,69.880 192.442 C 70.241 191.935,70.724 190.807,70.954 189.935 C 71.185 189.063,71.738 187.714,72.184 186.937 C 72.630 186.161,73.109 184.995,73.249 184.348 C 73.388 183.700,73.964 182.294,74.527 181.223 C 75.091 180.152,75.557 179.013,75.563 178.693 C 75.569 178.373,76.045 177.162,76.622 176.002 C 77.198 174.842,77.670 173.687,77.670 173.436 C 77.670 173.184,78.147 172.086,78.729 170.994 C 79.312 169.902,79.789 168.754,79.790 168.441 C 79.790 168.129,80.266 166.920,80.847 165.755 C 81.428 164.590,81.904 163.381,81.905 163.068 C 81.906 162.756,82.362 161.644,82.920 160.597 C 83.477 159.550,84.053 158.138,84.198 157.458 C 84.344 156.778,84.828 155.587,85.274 154.810 C 85.720 154.034,86.274 152.685,86.504 151.813 C 86.734 150.941,87.225 149.802,87.595 149.283 C 87.964 148.763,88.369 147.809,88.494 147.161 C 88.619 146.514,89.174 145.128,89.727 144.081 C 90.280 143.034,90.733 141.905,90.733 141.571 C 90.733 141.237,91.189 140.108,91.746 139.061 C 92.303 138.014,92.877 136.602,93.020 135.922 C 93.163 135.243,93.585 134.184,93.958 133.570 C 94.331 132.955,94.888 131.605,95.195 130.569 C 95.503 129.533,96.034 128.288,96.377 127.802 C 96.719 127.317,97.119 126.364,97.266 125.684 C 97.412 125.004,97.988 123.592,98.545 122.545 C 99.103 121.498,99.559 120.370,99.559 120.038 C 99.559 119.706,99.948 118.703,100.423 117.809 C 100.898 116.915,101.515 115.417,101.793 114.480 C 102.071 113.544,102.635 112.226,103.046 111.552 C 103.456 110.878,103.793 110.075,103.794 109.769 C 103.795 109.462,104.195 108.429,104.683 107.474 C 105.171 106.519,105.788 105.022,106.054 104.148 C 106.319 103.274,106.953 101.781,107.461 100.830 C 107.969 99.879,108.385 98.803,108.385 98.440 C 108.385 98.077,108.861 96.887,109.444 95.795 C 110.026 94.704,110.503 93.539,110.503 93.207 C 110.503 92.875,110.919 91.825,111.427 90.873 C 111.935 89.922,112.585 88.362,112.871 87.406 C 113.157 86.450,113.615 85.325,113.890 84.907 C 114.164 84.488,114.641 83.296,114.949 82.259 C 115.257 81.221,115.731 80.034,116.002 79.620 C 116.273 79.206,116.802 78.003,117.177 76.945 C 117.552 75.887,118.189 74.393,118.594 73.623 C 118.998 72.854,119.329 71.983,119.329 71.687 C 119.329 71.391,119.718 70.352,120.192 69.378 C 121.235 67.240,122.690 63.709,123.607 61.096 C 123.978 60.038,124.503 58.834,124.774 58.421 C 125.046 58.007,125.501 56.886,125.787 55.930 C 126.073 54.974,126.723 53.414,127.231 52.463 C 127.740 51.512,128.156 50.479,128.157 50.168 C 128.157 49.857,128.633 48.650,129.214 47.485 C 129.796 46.320,130.272 45.128,130.272 44.837 C 130.273 44.545,130.744 43.433,131.319 42.365 C 131.894 41.297,132.370 40.173,132.378 39.866 C 132.386 39.559,132.791 38.526,133.280 37.571 C 133.768 36.616,134.399 35.066,134.682 34.127 C 134.965 33.188,135.501 31.917,135.874 31.302 C 136.247 30.688,136.669 29.629,136.813 28.950 C 136.956 28.270,137.529 26.858,138.086 25.811 C 138.644 24.764,139.100 23.651,139.100 23.337 C 139.100 23.023,139.511 21.992,140.015 21.047 C 140.518 20.102,141.158 18.560,141.437 17.620 C 141.716 16.680,142.218 15.751,142.552 15.557 C 143.397 15.064,231.394 15.047,232.314 15.540 M254.827 26.569 C 255.029 26.812,255.311 27.488,255.452 28.069 C 255.594 28.650,256.163 29.983,256.717 31.029 C 257.270 32.076,257.723 33.174,257.723 33.470 C 257.723 33.765,258.103 34.656,258.567 35.450 C 259.031 36.244,259.666 37.754,259.978 38.805 C 260.289 39.857,260.769 40.969,261.044 41.277 C 261.318 41.584,261.803 42.736,262.121 43.836 C 262.438 44.937,262.909 46.012,263.168 46.226 C 263.426 46.440,263.840 47.367,264.089 48.286 C 264.338 49.204,264.896 50.591,265.330 51.368 C 265.763 52.145,266.319 53.415,266.566 54.191 C 266.812 54.966,267.386 56.301,267.841 57.156 C 268.295 58.011,268.667 58.951,268.667 59.245 C 268.667 59.539,269.075 60.475,269.573 61.325 C 270.071 62.175,270.724 63.695,271.023 64.702 C 271.322 65.709,271.850 66.893,272.195 67.332 C 272.541 67.772,272.932 68.729,273.065 69.459 C 273.198 70.188,273.677 71.342,274.131 72.021 C 274.584 72.701,275.067 73.813,275.203 74.492 C 275.340 75.172,275.755 76.228,276.126 76.840 C 276.497 77.451,277.093 78.802,277.451 79.841 C 277.809 80.880,278.441 82.286,278.855 82.966 C 279.270 83.645,279.610 84.457,279.610 84.769 C 279.611 85.082,280.088 86.231,280.671 87.322 C 281.253 88.414,281.730 89.521,281.730 89.783 C 281.730 90.045,282.137 91.041,282.635 91.997 C 283.133 92.952,283.784 94.528,284.082 95.499 C 284.379 96.470,284.856 97.526,285.141 97.846 C 285.426 98.167,285.870 99.231,286.129 100.212 C 286.388 101.192,286.917 102.441,287.306 102.986 C 287.694 103.532,288.204 104.692,288.438 105.564 C 288.673 106.436,289.246 107.799,289.711 108.592 C 290.176 109.386,290.556 110.277,290.556 110.573 C 290.556 110.868,291.012 111.966,291.569 113.013 C 292.127 114.060,292.698 115.472,292.838 116.152 C 292.979 116.831,293.455 117.944,293.897 118.623 C 294.338 119.303,294.899 120.610,295.143 121.529 C 295.387 122.448,295.807 123.382,296.076 123.605 C 296.345 123.829,296.822 124.904,297.137 125.995 C 297.451 127.086,297.989 128.377,298.332 128.865 C 298.675 129.352,299.148 130.464,299.383 131.336 C 299.617 132.208,300.190 133.571,300.655 134.365 C 301.120 135.158,301.500 136.056,301.500 136.359 C 301.500 136.662,301.946 137.760,302.491 138.799 C 303.036 139.838,303.692 141.440,303.948 142.359 C 304.203 143.277,304.633 144.212,304.902 144.435 C 305.171 144.658,305.649 145.730,305.965 146.816 C 306.281 147.902,306.826 149.192,307.176 149.682 C 307.526 150.173,307.997 151.287,308.223 152.159 C 308.449 153.031,308.919 154.145,309.267 154.634 C 309.616 155.123,310.093 156.236,310.327 157.108 C 310.562 157.980,311.134 159.343,311.599 160.137 C 312.064 160.931,312.445 161.821,312.445 162.114 C 312.445 162.408,312.861 163.427,313.369 164.378 C 313.877 165.329,314.530 166.898,314.819 167.865 C 315.108 168.831,315.630 169.985,315.979 170.429 C 316.327 170.872,316.801 172.020,317.031 172.979 C 317.261 173.938,317.675 174.910,317.952 175.139 C 318.228 175.368,318.711 176.448,319.025 177.540 C 319.340 178.631,319.878 179.922,320.221 180.409 C 320.564 180.896,321.024 181.960,321.243 182.772 C 321.461 183.584,322.113 185.148,322.691 186.247 C 323.269 187.346,323.742 188.470,323.742 188.745 C 323.742 189.020,324.219 190.139,324.801 191.230 C 325.384 192.322,325.861 193.457,325.861 193.752 C 325.861 194.048,326.249 194.952,326.723 195.761 C 327.197 196.570,327.771 197.970,327.998 198.870 C 328.225 199.771,328.633 200.693,328.904 200.918 C 329.176 201.144,329.655 202.221,329.970 203.312 C 330.284 204.403,330.822 205.694,331.165 206.182 C 331.509 206.669,331.968 207.732,332.187 208.544 C 332.406 209.356,333.058 210.920,333.636 212.019 C 334.214 213.118,334.687 214.265,334.687 214.568 C 334.687 214.871,335.067 215.768,335.532 216.562 C 335.997 217.356,336.569 218.715,336.802 219.582 C 337.035 220.449,337.513 221.523,337.864 221.969 C 338.215 222.415,338.690 223.564,338.920 224.523 C 339.150 225.482,339.564 226.454,339.840 226.684 C 340.117 226.913,340.600 227.993,340.914 229.084 C 341.229 230.175,341.765 231.465,342.107 231.951 C 342.448 232.436,342.974 233.628,343.274 234.598 C 343.575 235.569,344.228 237.145,344.726 238.100 C 345.224 239.056,345.631 240.074,345.631 240.364 C 345.631 240.654,346.012 241.541,346.477 242.334 C 346.942 243.128,347.513 244.487,347.746 245.354 C 347.980 246.221,348.457 247.295,348.808 247.741 C 349.159 248.187,349.634 249.337,349.864 250.296 C 350.094 251.255,350.509 252.227,350.785 252.456 C 351.061 252.685,351.544 253.765,351.859 254.856 C 352.173 255.948,352.710 257.237,353.051 257.723 C 353.393 258.208,353.918 259.400,354.219 260.371 C 354.519 261.342,355.172 262.917,355.670 263.873 C 356.168 264.828,356.575 265.805,356.575 266.043 C 356.575 266.282,357.052 267.383,357.635 268.491 C 358.217 269.598,358.694 270.752,358.694 271.055 C 358.694 271.358,359.073 272.256,359.537 273.049 C 360.001 273.843,360.589 275.207,360.844 276.081 C 361.099 276.955,361.583 278.067,361.920 278.553 C 362.258 279.038,362.719 280.149,362.945 281.021 C 363.171 281.893,363.674 283.052,364.063 283.598 C 364.451 284.143,364.974 285.368,365.225 286.320 C 365.476 287.271,365.996 288.494,366.380 289.038 C 366.765 289.582,367.199 290.583,367.345 291.262 C 367.491 291.942,368.067 293.354,368.625 294.401 C 369.182 295.448,369.638 296.546,369.638 296.841 C 369.638 297.137,370.018 298.028,370.482 298.822 C 370.946 299.615,371.533 300.980,371.787 301.853 C 372.041 302.727,372.600 303.998,373.030 304.678 C 373.459 305.357,373.924 306.470,374.063 307.149 C 374.202 307.829,374.620 308.816,374.993 309.344 C 375.366 309.871,375.918 311.142,376.219 312.168 C 376.521 313.194,376.991 314.285,377.265 314.593 C 377.538 314.900,378.007 315.980,378.308 316.992 C 378.608 318.004,379.243 319.563,379.718 320.457 C 380.194 321.351,380.585 322.337,380.589 322.647 C 380.592 322.958,381.066 324.007,381.642 324.978 C 382.218 325.949,382.691 327.005,382.695 327.325 C 382.698 327.645,383.162 328.784,383.725 329.855 C 384.289 330.926,384.860 332.332,384.994 332.980 C 385.129 333.627,385.606 334.713,386.055 335.393 C 386.504 336.072,386.981 337.158,387.115 337.806 C 387.250 338.453,387.833 339.883,388.411 340.982 C 389.482 343.018,389.558 344.423,388.657 345.509 C 388.331 345.903,380.288 345.984,341.757 345.984 L 295.250 345.984 294.050 345.179 C 293.229 344.627,292.684 343.867,292.321 342.764 C 292.030 341.879,291.520 340.747,291.187 340.248 C 290.855 339.750,290.394 338.572,290.163 337.632 C 289.932 336.692,289.465 335.524,289.127 335.036 C 288.788 334.549,288.319 333.437,288.084 332.565 C 287.849 331.693,287.293 330.344,286.847 329.568 C 286.401 328.791,285.925 327.599,285.790 326.920 C 285.655 326.240,285.179 325.049,284.733 324.272 C 284.287 323.495,283.730 322.146,283.496 321.274 C 283.261 320.402,282.777 319.279,282.421 318.778 C 282.064 318.277,281.579 317.084,281.344 316.127 C 281.109 315.170,280.639 313.988,280.301 313.501 C 279.962 313.014,279.493 311.901,279.258 311.029 C 279.023 310.157,278.466 308.808,278.020 308.032 C 277.574 307.255,277.099 306.090,276.964 305.442 C 276.829 304.795,276.257 303.388,275.694 302.317 C 275.130 301.246,274.669 300.106,274.669 299.785 C 274.669 299.463,274.280 298.469,273.804 297.575 C 273.328 296.681,272.754 295.217,272.529 294.323 C 272.304 293.428,271.897 292.511,271.625 292.286 C 271.354 292.060,270.875 290.995,270.562 289.918 C 270.249 288.840,269.615 287.249,269.154 286.381 C 268.692 285.513,268.314 284.530,268.314 284.198 C 268.314 283.866,267.858 282.738,267.301 281.691 C 266.743 280.645,266.168 279.232,266.022 278.553 C 265.877 277.873,265.390 276.681,264.941 275.905 C 264.492 275.128,263.937 273.743,263.709 272.826 C 263.480 271.910,263.071 270.975,262.799 270.750 C 262.528 270.525,262.049 269.459,261.736 268.382 C 261.423 267.305,260.789 265.713,260.327 264.845 C 259.866 263.977,259.488 262.995,259.488 262.663 C 259.488 262.331,259.032 261.202,258.475 260.156 C 257.917 259.109,257.346 257.723,257.204 257.075 C 257.063 256.427,256.486 255.021,255.923 253.950 C 255.360 252.879,254.898 251.755,254.898 251.451 C 254.898 251.148,254.521 250.251,254.059 249.457 C 253.597 248.664,253.100 247.458,252.954 246.778 C 252.808 246.099,252.233 244.686,251.675 243.640 C 251.118 242.593,250.662 241.463,250.662 241.130 C 250.662 240.796,250.185 239.630,249.603 238.538 C 249.020 237.447,248.544 236.255,248.544 235.890 C 248.544 235.526,248.088 234.371,247.530 233.324 C 246.973 232.277,246.397 230.865,246.251 230.185 C 246.104 229.506,245.704 228.553,245.362 228.067 C 245.019 227.582,244.502 226.390,244.212 225.419 C 243.921 224.448,243.268 222.876,242.760 221.924 C 242.252 220.973,241.835 219.941,241.835 219.630 C 241.834 219.319,241.358 218.111,240.777 216.946 C 240.196 215.781,239.720 214.572,239.719 214.260 C 239.718 213.947,239.262 212.835,238.704 211.788 C 238.147 210.742,237.571 209.329,237.425 208.650 C 237.278 207.970,236.878 207.017,236.536 206.531 C 236.193 206.046,235.661 204.801,235.354 203.765 C 235.046 202.729,234.490 201.378,234.117 200.764 C 233.744 200.150,233.322 199.091,233.179 198.411 C 233.035 197.732,232.462 196.319,231.905 195.272 C 231.347 194.226,230.891 193.098,230.891 192.765 C 230.891 192.433,230.502 191.429,230.026 190.534 C 229.550 189.639,228.978 188.227,228.754 187.396 C 228.530 186.565,228.062 185.485,227.714 184.996 C 227.366 184.507,226.893 183.393,226.663 182.521 C 226.432 181.649,225.879 180.300,225.433 179.523 C 224.987 178.747,224.508 177.555,224.369 176.876 C 224.229 176.196,223.796 175.086,223.406 174.409 C 223.016 173.732,222.392 172.190,222.019 170.982 C 221.645 169.774,221.190 168.693,221.007 168.580 C 220.824 168.467,220.351 167.287,219.955 165.958 C 219.559 164.629,219.016 163.360,218.748 163.137 C 218.480 162.914,218.073 161.983,217.845 161.066 C 217.617 160.150,217.130 158.886,216.762 158.258 C 216.395 157.631,215.862 156.334,215.578 155.376 C 215.293 154.419,214.809 153.252,214.502 152.783 C 214.194 152.314,213.690 151.069,213.381 150.016 C 213.072 148.964,212.531 147.626,212.179 147.043 C 211.827 146.461,211.355 145.269,211.132 144.395 C 210.908 143.522,210.433 142.399,210.077 141.900 C 208.208 139.284,208.187 133.642,210.037 131.058 C 210.415 130.530,210.906 129.382,211.128 128.508 C 211.350 127.635,211.897 126.284,212.343 125.508 C 212.789 124.731,213.268 123.539,213.407 122.860 C 213.547 122.180,213.982 121.068,214.376 120.388 C 214.769 119.709,215.324 118.358,215.611 117.387 C 215.897 116.417,216.421 115.146,216.777 114.563 C 217.132 113.981,217.611 112.754,217.841 111.838 C 218.072 110.921,218.483 109.987,218.754 109.761 C 219.026 109.536,219.505 108.459,219.819 107.368 C 220.133 106.277,220.767 104.670,221.228 103.798 C 221.688 102.926,222.065 101.955,222.065 101.641 C 222.065 101.327,222.521 100.214,223.079 99.167 C 223.636 98.120,224.211 96.708,224.357 96.028 C 224.503 95.349,224.987 94.157,225.433 93.380 C 225.879 92.604,226.432 91.255,226.663 90.383 C 226.893 89.511,227.384 88.372,227.753 87.853 C 228.123 87.333,228.528 86.379,228.653 85.731 C 228.778 85.084,229.333 83.698,229.886 82.651 C 230.439 81.604,230.891 80.475,230.891 80.141 C 230.891 79.808,231.347 78.678,231.905 77.631 C 232.462 76.585,233.035 75.172,233.179 74.492 C 233.322 73.813,233.744 72.754,234.117 72.140 C 234.490 71.526,235.026 70.255,235.309 69.315 C 235.592 68.376,236.223 66.827,236.712 65.871 C 237.200 64.916,237.599 63.920,237.599 63.658 C 237.599 63.396,238.076 62.289,238.658 61.197 C 239.241 60.105,239.718 58.957,239.719 58.644 C 239.720 58.332,240.196 57.123,240.777 55.958 C 241.358 54.793,241.834 53.584,241.835 53.271 C 241.835 52.959,242.292 51.847,242.849 50.800 C 243.407 49.753,243.982 48.341,244.128 47.661 C 244.273 46.981,244.760 45.790,245.209 45.013 C 245.658 44.237,246.213 42.851,246.441 41.935 C 246.670 41.018,247.079 40.084,247.351 39.859 C 247.622 39.633,248.099 38.556,248.410 37.465 C 248.722 36.374,249.262 35.004,249.610 34.422 C 249.959 33.839,250.430 32.648,250.657 31.774 C 251.161 29.833,253.489 26.125,254.204 26.125 C 254.344 26.125,254.625 26.325,254.827 26.569 " stroke="none" fill="#fbfbfb" fill-rule="evenodd"></path></g></svg>