<svg id="svg" version="1.1" xmlns="http://www.w3.org/2000/svg" xmlns:xlink="http://www.w3.org/1999/xlink" width="400" height="400" viewBox="0, 0, 400,400"><g id="svgg"><path id="path0" d="M197.500 28.964 C 196.727 29.237,192.438 30.629,187.969 32.058 C 178.574 35.060,167.041 38.761,154.375 42.837 C 149.477 44.414,142.727 46.583,139.375 47.658 C 136.023 48.733,129.484 50.834,124.844 52.327 C 115.497 55.334,104.274 58.940,91.250 63.121 C 83.165 65.716,77.549 67.520,57.734 73.885 C 53.223 75.335,45.805 77.716,41.250 79.177 C 36.695 80.639,32.282 82.074,31.444 82.367 L 29.918 82.899 30.116 85.121 C 30.299 87.184,31.010 93.574,32.972 110.781 C 33.936 119.240,34.865 127.550,35.469 133.125 C 35.720 135.445,36.279 140.438,36.709 144.219 C 38.210 157.390,39.362 167.678,39.701 170.938 C 39.889 172.742,40.244 175.757,40.490 177.636 C 40.736 179.516,40.938 181.168,40.938 181.308 C 40.938 181.448,42.273 181.563,43.906 181.563 C 46.528 181.563,46.874 181.498,46.869 181.016 C 46.866 180.715,46.441 176.742,45.926 172.188 C 45.410 167.633,44.643 160.742,44.220 156.875 C 43.798 153.008,42.954 145.484,42.345 140.156 C 41.736 134.828,40.962 127.938,40.625 124.844 C 40.289 121.750,39.444 114.227,38.748 108.125 C 36.051 84.482,36.098 87.131,38.359 86.439 C 40.054 85.921,43.778 84.728,65.313 77.811 C 70.211 76.238,77.875 73.776,82.344 72.341 C 86.813 70.905,94.477 68.443,99.375 66.869 C 109.377 63.654,120.261 60.161,133.438 55.936 C 138.336 54.365,144.664 52.328,147.500 51.408 C 150.336 50.488,156.383 48.542,160.938 47.083 C 170.956 43.874,184.820 39.419,193.221 36.709 L 199.410 34.712 205.564 36.705 C 208.949 37.801,217.063 40.408,223.594 42.498 C 230.125 44.589,237.789 47.051,240.625 47.970 C 243.461 48.889,249.508 50.835,254.063 52.295 C 258.617 53.756,266.352 56.238,271.250 57.811 C 276.148 59.385,283.813 61.845,288.281 63.280 C 292.750 64.714,300.414 67.176,305.313 68.750 C 310.211 70.324,317.945 72.809,322.500 74.271 C 327.055 75.734,334.648 78.174,339.375 79.694 C 344.102 81.214,351.133 83.471,355.000 84.710 C 363.305 87.371,362.541 86.875,362.188 89.378 C 362.031 90.493,361.618 94.078,361.269 97.344 C 360.921 100.609,360.070 108.273,359.379 114.375 C 358.687 120.477,357.844 128.000,357.506 131.094 C 357.167 134.188,356.392 141.078,355.783 146.406 C 355.173 151.734,354.399 158.625,354.063 161.719 C 353.727 164.813,353.097 170.434,352.663 174.212 C 352.230 177.989,351.875 181.188,351.875 181.321 C 351.875 181.753,357.817 181.607,357.965 181.172 C 358.037 180.957,358.382 178.039,358.730 174.688 C 359.078 171.336,359.929 163.602,360.621 157.500 C 361.313 151.398,362.155 143.875,362.493 140.781 C 363.173 134.556,363.971 127.420,365.150 117.031 C 366.526 104.906,367.776 93.719,368.277 89.063 C 368.544 86.570,368.840 84.155,368.933 83.694 C 369.102 82.859,369.088 82.853,363.536 81.098 C 360.474 80.130,355.648 78.583,352.813 77.660 C 349.977 76.737,343.648 74.697,338.750 73.125 C 328.786 69.930,317.942 66.449,304.688 62.192 C 299.789 60.618,292.125 58.157,287.656 56.722 C 283.188 55.287,275.523 52.824,270.625 51.250 C 265.727 49.676,258.063 47.214,253.594 45.780 C 249.125 44.345,241.461 41.885,236.563 40.311 C 231.664 38.738,223.930 36.254,219.375 34.793 C 214.820 33.331,208.532 31.303,205.401 30.287 C 199.040 28.221,199.423 28.285,197.500 28.964 M196.809 45.327 C 194.133 46.741,193.251 50.473,194.958 53.164 C 198.267 58.382,206.611 54.732,205.005 48.769 C 204.072 45.305,200.050 43.616,196.809 45.327 M333.170 98.130 C 326.895 100.786,328.658 109.531,335.469 109.531 C 343.462 109.531,343.805 98.270,335.823 97.906 C 334.769 97.858,333.575 97.959,333.170 98.130 M60.313 131.714 L 60.313 165.313 67.498 165.313 L 74.683 165.313 74.764 143.359 C 74.825 126.421,74.924 121.692,75.196 122.656 C 75.390 123.344,75.982 125.805,76.512 128.125 C 78.929 138.706,80.283 144.559,82.151 152.500 C 82.656 154.648,83.538 158.410,84.111 160.859 L 85.152 165.313 93.947 165.313 L 102.743 165.313 103.393 162.578 C 104.054 159.795,105.036 155.554,107.028 146.875 C 107.640 144.211,108.415 140.836,108.750 139.375 C 109.085 137.914,109.859 134.539,110.469 131.875 C 111.079 129.211,111.891 125.766,112.273 124.219 L 112.969 121.406 113.049 143.359 L 113.129 165.313 120.315 165.313 L 127.500 165.313 127.500 131.714 L 127.500 98.116 117.433 98.199 L 107.365 98.281 106.539 101.719 C 105.533 105.903,102.511 118.286,100.170 127.813 C 99.219 131.680,97.659 138.078,96.702 142.031 C 94.745 150.112,94.065 152.607,93.873 152.414 C 93.741 152.282,91.770 144.409,86.699 123.750 C 85.201 117.648,83.166 109.422,82.177 105.469 L 80.379 98.281 70.346 98.199 L 60.313 98.116 60.313 131.714 M137.500 131.704 L 137.500 165.313 144.844 165.313 L 152.188 165.313 152.188 153.313 L 152.188 141.314 158.516 141.171 C 167.301 140.971,171.451 139.629,175.770 135.589 C 180.178 131.465,180.687 129.343,180.563 115.578 L 180.469 105.156 179.572 103.538 C 178.527 101.652,176.951 100.294,174.446 99.120 L 172.656 98.281 155.078 98.189 L 137.500 98.096 137.500 131.704 M188.750 131.719 L 188.750 165.313 206.094 165.313 L 223.438 165.313 223.438 159.223 L 223.438 153.134 213.359 153.051 L 203.281 152.969 203.201 125.547 L 203.122 98.125 195.936 98.125 L 188.750 98.125 188.750 131.719 M245.000 98.767 C 245.000 99.120,244.507 101.686,243.904 104.470 C 243.301 107.254,242.450 111.219,242.013 113.281 C 241.577 115.344,240.949 118.297,240.619 119.844 C 239.481 125.171,235.915 142.043,234.675 147.969 C 233.992 151.234,233.282 154.539,233.098 155.313 C 232.914 156.086,232.421 158.406,232.001 160.469 C 231.582 162.531,231.162 164.465,231.067 164.766 C 230.907 165.276,231.388 165.313,238.239 165.313 C 244.968 165.313,245.595 165.267,245.733 164.766 C 245.815 164.465,246.399 161.758,247.030 158.750 C 247.660 155.742,248.282 152.930,248.411 152.500 L 248.646 151.719 254.870 151.719 L 261.094 151.719 261.485 153.281 C 261.700 154.141,262.302 156.953,262.823 159.531 C 263.343 162.109,263.844 164.465,263.937 164.766 C 264.090 165.266,264.727 165.313,271.461 165.313 L 278.818 165.313 278.601 164.453 C 278.296 163.243,275.714 151.138,273.587 140.938 C 273.174 138.961,272.263 134.672,271.561 131.406 C 270.860 128.141,270.017 124.133,269.688 122.500 C 269.358 120.867,268.515 116.859,267.814 113.594 C 266.188 106.025,265.017 100.436,264.787 99.141 L 264.606 98.125 254.803 98.125 C 245.122 98.125,245.000 98.133,245.000 98.767 M285.000 131.719 L 285.000 165.313 297.422 165.308 C 308.418 165.305,310.175 165.236,312.735 164.708 C 319.297 163.354,324.266 159.814,326.639 154.805 L 327.656 152.656 327.656 145.625 L 327.656 138.594 326.599 136.645 C 325.609 134.818,323.422 132.422,322.040 131.648 C 321.465 131.327,321.504 131.227,322.727 129.901 C 325.853 126.509,326.349 124.094,326.195 113.026 C 326.071 104.185,325.980 103.788,323.518 101.392 C 320.296 98.256,319.384 98.125,300.716 98.125 L 285.000 98.125 285.000 131.719 M338.083 99.769 C 340.756 101.393,340.615 106.336,337.851 107.932 C 334.698 109.753,330.938 107.506,330.938 103.802 C 330.938 99.760,334.634 97.673,338.083 99.769 M333.125 103.707 C 333.125 106.979,333.162 107.188,333.750 107.188 C 334.292 107.188,334.375 106.979,334.375 105.625 C 334.375 104.475,334.493 104.063,334.824 104.063 C 335.071 104.063,335.656 104.766,336.124 105.625 C 336.669 106.626,337.181 107.188,337.550 107.188 C 338.295 107.188,338.278 107.067,337.344 105.692 C 336.914 105.060,336.563 104.457,336.563 104.353 C 336.563 104.248,336.914 104.003,337.344 103.807 C 339.511 102.820,338.109 100.627,335.159 100.390 L 333.125 100.227 333.125 103.707 M336.683 101.728 C 337.452 102.496,336.961 103.125,335.592 103.125 C 334.448 103.125,334.375 103.069,334.375 102.188 C 334.375 101.107,335.782 100.827,336.683 101.728 M166.187 118.259 C 166.059 128.738,165.993 128.817,157.266 129.013 L 152.188 129.127 152.188 119.876 L 152.188 110.625 159.234 110.625 L 166.281 110.625 166.187 118.259 M311.563 116.436 C 311.563 124.925,311.161 125.399,303.828 125.576 L 299.375 125.684 299.375 118.154 L 299.375 110.625 305.469 110.625 L 311.563 110.625 311.563 116.436 M255.638 116.294 C 255.969 119.106,256.450 122.953,256.706 124.844 C 257.106 127.793,258.438 138.868,258.438 139.246 C 258.438 139.317,256.820 139.375,254.844 139.375 C 252.867 139.375,251.250 139.255,251.250 139.109 C 251.250 138.963,252.023 132.678,252.969 125.142 C 253.914 117.606,254.688 111.304,254.688 111.137 C 254.688 110.970,254.766 110.912,254.861 111.007 C 254.957 111.103,255.306 113.482,255.638 116.294 M310.777 138.607 C 313.062 139.729,313.438 140.709,313.438 145.556 C 313.438 152.300,312.784 152.845,304.453 153.059 L 299.375 153.189 299.375 145.683 C 299.375 139.981,299.469 138.135,299.766 138.001 C 300.830 137.520,309.540 138.000,310.777 138.607 M53.553 294.141 C 53.655 294.871,53.890 297.016,54.075 298.906 C 54.260 300.797,54.678 304.523,55.004 307.188 C 55.330 309.852,55.693 313.120,55.810 314.450 C 56.069 317.394,55.465 316.942,62.813 319.679 C 70.329 322.479,83.720 327.523,86.875 328.742 C 88.997 329.562,94.663 331.701,115.469 339.536 C 119.250 340.960,128.391 344.404,135.781 347.189 C 143.172 349.974,153.648 353.920,159.063 355.959 C 164.477 357.997,173.406 361.368,178.906 363.449 C 184.406 365.530,189.820 367.563,190.938 367.966 C 192.055 368.370,194.407 369.254,196.164 369.932 L 199.360 371.164 207.571 368.070 C 224.682 361.621,239.315 356.113,241.875 355.156 C 243.336 354.610,248.680 352.599,253.750 350.687 C 269.261 344.838,287.387 338.009,299.531 333.438 C 335.131 320.039,342.582 317.218,342.657 317.111 C 342.767 316.953,345.312 294.190,345.312 293.359 C 345.312 292.877,344.963 292.813,342.344 292.813 C 340.711 292.813,339.375 292.889,339.375 292.982 C 339.375 293.075,338.962 296.696,338.458 301.029 C 337.954 305.361,337.449 309.775,337.336 310.837 C 337.190 312.214,336.983 312.825,336.613 312.969 C 336.327 313.080,333.141 314.280,329.531 315.636 C 319.381 319.449,308.271 323.639,297.656 327.657 C 292.328 329.674,286.914 331.716,285.625 332.195 C 284.336 332.675,281.805 333.627,280.000 334.312 C 276.703 335.563,256.862 343.046,241.719 348.750 C 224.388 355.277,206.864 361.883,203.245 363.253 L 199.458 364.686 196.057 363.407 C 194.187 362.704,191.602 361.736,190.313 361.256 C 189.023 360.776,183.609 358.734,178.281 356.719 C 167.473 352.632,157.403 348.834,143.906 343.754 C 138.922 341.878,129.219 338.221,122.344 335.627 C 115.469 333.034,104.641 328.954,98.281 326.561 C 91.922 324.168,82.219 320.507,76.719 318.425 C 71.219 316.343,65.708 314.289,64.474 313.861 C 61.492 312.827,61.753 313.557,60.637 303.125 C 60.094 298.055,59.579 293.660,59.492 293.359 C 59.355 292.888,58.922 292.813,56.350 292.813 L 53.367 292.813 53.553 294.141 M70.625 300.647 C 66.678 302.306,66.090 308.021,69.620 310.400 C 75.653 314.465,81.851 305.776,76.066 301.364 C 74.811 300.407,72.059 300.044,70.625 300.647 M322.747 300.952 C 319.990 302.408,319.115 306.653,321.050 309.189 C 325.214 314.648,333.610 309.136,330.292 303.120 C 328.856 300.517,325.434 299.533,322.747 300.952 M197.338 344.185 C 194.106 345.594,193.014 350.013,195.222 352.747 C 199.807 358.422,208.240 351.804,204.004 345.855 C 202.695 344.017,199.539 343.226,197.338 344.185 " stroke="none" fill="#f8f8f9" fill-rule="evenodd"></path><path id="path1" d="M196.719 14.116 C 195.688 14.466,194.141 15.007,193.281 15.316 C 192.422 15.626,190.805 16.161,189.688 16.506 C 188.570 16.850,186.953 17.372,186.094 17.665 C 185.234 17.958,183.406 18.580,182.031 19.047 C 180.656 19.513,178.406 20.283,177.031 20.756 C 175.656 21.229,174.003 21.746,173.358 21.904 C 172.713 22.062,171.306 22.524,170.233 22.931 C 169.159 23.338,166.805 24.136,165.000 24.704 C 163.195 25.273,160.875 26.041,159.844 26.412 C 158.813 26.783,156.492 27.552,154.688 28.122 C 152.883 28.691,150.352 29.542,149.063 30.012 C 147.773 30.482,146.156 31.010,145.469 31.184 C 144.781 31.358,143.305 31.817,142.188 32.204 C 141.070 32.590,139.031 33.287,137.656 33.752 C 136.281 34.217,134.453 34.840,133.594 35.137 C 132.734 35.434,131.116 35.938,129.997 36.258 C 128.879 36.577,127.332 37.124,126.560 37.475 C 125.788 37.825,124.906 38.114,124.599 38.118 C 124.293 38.122,122.957 38.525,121.631 39.013 C 117.752 40.442,115.285 41.292,113.281 41.890 C 112.250 42.198,110.492 42.763,109.375 43.145 C 104.886 44.681,103.090 45.279,98.750 46.684 C 96.258 47.491,93.727 48.337,93.125 48.564 C 92.523 48.791,90.555 49.434,88.750 49.993 C 86.945 50.552,84.700 51.300,83.760 51.656 C 82.820 52.012,81.203 52.543,80.166 52.836 C 79.129 53.129,77.367 53.685,76.250 54.073 C 75.133 54.460,73.305 55.089,72.188 55.469 C 71.070 55.849,69.031 56.544,67.656 57.013 C 66.281 57.482,64.523 58.046,63.750 58.266 C 62.977 58.487,61.430 58.984,60.313 59.372 C 59.195 59.760,57.156 60.468,55.781 60.947 C 51.410 62.468,49.262 63.180,47.656 63.638 C 46.797 63.883,41.734 65.561,36.406 67.366 C 31.078 69.171,26.227 70.775,25.625 70.931 C 24.456 71.234,21.140 72.350,16.954 73.847 L 14.378 74.769 14.558 77.463 C 14.657 78.944,15.072 82.688,15.479 85.781 C 15.887 88.875,16.298 92.526,16.392 93.894 C 16.485 95.262,16.906 99.059,17.327 102.331 C 17.747 105.604,18.174 109.406,18.276 110.781 C 18.378 112.156,18.588 114.055,18.742 115.000 C 18.896 115.945,19.252 118.828,19.532 121.406 C 19.812 123.984,20.446 129.539,20.940 133.750 C 21.434 137.961,21.978 142.813,22.149 144.531 C 22.320 146.250,22.741 149.977,23.085 152.813 C 23.429 155.648,24.012 160.562,24.379 163.731 L 25.048 169.493 24.321 170.054 C 23.921 170.362,23.313 170.703,22.969 170.811 C 22.625 170.919,20.375 171.962,17.969 173.127 C 15.563 174.293,11.484 176.257,8.906 177.492 C 1.743 180.922,1.563 181.020,1.563 181.462 C 1.563 181.800,5.108 181.875,21.119 181.875 L 40.675 181.875 40.472 179.766 C 40.361 178.605,39.937 174.844,39.531 171.406 C 39.125 167.969,38.702 164.172,38.591 162.969 C 38.481 161.766,38.126 158.602,37.802 155.938 C 37.479 153.273,37.063 149.617,36.879 147.813 C 36.695 146.008,36.200 141.508,35.779 137.813 C 35.359 134.117,34.583 127.227,34.055 122.500 C 33.527 117.773,32.754 110.953,32.337 107.344 C 31.920 103.734,31.492 99.867,31.386 98.750 C 31.279 97.633,30.854 93.918,30.440 90.494 C 30.026 87.071,29.689 83.907,29.691 83.463 C 29.694 82.689,29.957 82.572,36.175 80.573 C 44.321 77.955,57.075 73.859,67.813 70.414 C 72.367 68.953,79.961 66.515,84.688 64.996 C 89.414 63.477,97.078 61.021,101.719 59.538 C 106.359 58.055,111.141 56.512,112.344 56.109 C 113.547 55.707,117.484 54.442,121.094 53.298 C 124.703 52.155,128.641 50.888,129.844 50.483 C 131.047 50.078,134.773 48.882,138.125 47.826 C 141.477 46.769,145.203 45.575,146.406 45.172 C 147.609 44.769,151.547 43.504,155.156 42.361 C 158.766 41.217,162.703 39.948,163.906 39.540 C 165.109 39.132,168.836 37.937,172.188 36.884 C 175.539 35.831,179.266 34.635,180.469 34.226 C 181.672 33.817,185.609 32.551,189.219 31.413 C 192.828 30.275,196.603 29.058,197.607 28.707 L 199.433 28.070 201.201 28.692 C 203.024 29.332,204.314 29.748,215.469 33.292 C 219.078 34.439,223.016 35.707,224.219 36.109 C 225.422 36.512,230.203 38.055,234.844 39.538 C 239.484 41.021,247.148 43.477,251.875 44.996 C 256.602 46.515,264.195 48.953,268.750 50.414 C 278.861 53.658,291.061 57.576,302.500 61.251 C 307.227 62.770,314.891 65.229,319.531 66.715 C 324.172 68.202,330.500 70.239,333.594 71.242 C 336.688 72.245,341.961 73.939,345.313 75.008 C 348.664 76.076,353.023 77.476,355.000 78.119 C 356.977 78.762,360.949 80.034,363.828 80.947 C 368.820 82.530,369.062 82.645,369.059 83.413 C 369.055 84.383,368.367 91.015,367.516 98.281 C 367.174 101.203,366.461 107.461,365.932 112.188 C 365.403 116.914,364.622 123.805,364.197 127.500 C 363.771 131.195,363.357 134.922,363.276 135.781 C 363.195 136.641,362.780 140.367,362.354 144.063 C 361.928 147.758,361.429 152.258,361.245 154.063 C 361.061 155.867,360.645 159.523,360.320 162.188 C 359.995 164.852,359.636 168.086,359.522 169.375 C 359.408 170.664,359.047 173.828,358.720 176.406 C 358.393 178.984,358.126 181.270,358.125 181.484 C 358.125 181.793,362.302 181.875,377.969 181.875 C 400.417 181.875,399.754 181.964,394.922 179.589 C 392.285 178.293,385.192 174.893,384.063 174.384 C 383.805 174.268,383.031 173.883,382.344 173.529 C 378.453 171.525,377.221 170.937,376.908 170.937 C 376.453 170.937,373.698 169.221,373.869 169.043 C 373.941 168.968,374.157 167.289,374.348 165.313 C 374.840 160.238,376.121 148.962,377.207 140.156 C 377.715 136.031,378.128 132.234,378.124 131.719 C 378.120 131.203,378.531 127.406,379.037 123.281 C 380.674 109.930,381.655 101.448,381.781 99.531 C 381.850 98.500,382.109 96.109,382.358 94.219 C 383.308 86.997,383.459 85.711,383.628 83.359 C 383.724 82.026,383.986 79.636,384.211 78.046 C 384.721 74.443,385.058 74.732,377.656 72.429 C 376.797 72.162,375.391 71.698,374.531 71.398 C 373.672 71.098,371.844 70.475,370.469 70.013 C 369.094 69.551,366.844 68.786,365.469 68.312 C 364.094 67.838,362.619 67.383,362.192 67.300 C 361.765 67.217,360.570 66.816,359.536 66.409 C 358.502 66.002,357.023 65.505,356.250 65.305 C 355.477 65.105,354.211 64.695,353.438 64.394 C 352.664 64.092,350.977 63.515,349.688 63.110 C 348.398 62.706,347.133 62.279,346.875 62.161 C 346.617 62.043,344.719 61.423,342.656 60.783 C 340.594 60.143,337.992 59.294,336.875 58.898 C 335.758 58.502,332.383 57.375,329.375 56.395 C 323.625 54.521,320.537 53.491,316.406 52.071 C 315.031 51.598,313.273 51.026,312.500 50.799 C 311.040 50.372,308.520 49.511,304.955 48.222 C 303.813 47.808,302.502 47.402,302.042 47.319 C 301.582 47.236,300.337 46.825,299.275 46.406 C 298.213 45.987,296.979 45.583,296.534 45.508 C 296.088 45.433,294.811 45.007,293.697 44.561 C 292.582 44.115,291.517 43.750,291.330 43.750 C 291.144 43.750,289.889 43.348,288.542 42.856 C 287.196 42.365,284.406 41.434,282.344 40.789 C 280.281 40.143,278.313 39.492,277.969 39.341 C 277.271 39.036,269.795 36.563,269.063 36.395 C 268.805 36.335,266.695 35.636,264.375 34.841 C 262.055 34.046,259.313 33.137,258.281 32.821 C 255.562 31.988,252.687 31.011,249.902 29.973 C 248.559 29.472,247.255 29.063,247.005 29.063 C 246.755 29.063,245.678 28.708,244.611 28.275 C 243.545 27.841,242.337 27.426,241.928 27.352 C 241.519 27.278,240.250 26.875,239.108 26.457 C 236.118 25.362,232.158 24.050,231.250 23.854 C 230.820 23.762,229.414 23.299,228.125 22.825 C 226.836 22.352,224.375 21.517,222.656 20.969 C 220.938 20.422,219.109 19.829,218.594 19.651 C 215.314 18.523,209.143 16.488,208.750 16.405 C 208.492 16.351,206.366 15.661,204.025 14.872 C 199.201 13.246,199.261 13.252,196.719 14.116 M196.250 35.955 C 194.789 36.452,190.078 37.982,185.781 39.355 C 181.484 40.728,174.875 42.848,171.094 44.067 C 167.313 45.286,163.375 46.545,162.344 46.864 C 161.313 47.184,157.586 48.386,154.063 49.535 C 150.539 50.684,146.813 51.885,145.781 52.202 C 144.750 52.520,141.023 53.715,137.500 54.856 C 133.977 55.998,130.039 57.264,128.750 57.669 C 127.461 58.075,123.523 59.341,120.000 60.484 C 116.477 61.627,112.750 62.822,111.719 63.140 C 110.688 63.458,107.031 64.626,103.594 65.736 C 100.156 66.846,93.547 68.981,88.906 70.479 C 84.266 71.978,79.414 73.533,78.125 73.934 C 76.836 74.336,72.969 75.570,69.531 76.678 C 55.979 81.044,46.187 84.194,41.575 85.669 C 38.918 86.519,36.712 87.246,36.673 87.285 C 36.634 87.324,36.795 88.830,37.029 90.631 C 37.264 92.432,37.602 95.453,37.781 97.344 C 37.959 99.234,38.464 103.875,38.901 107.656 C 39.339 111.438,40.039 117.484,40.457 121.094 C 40.875 124.703,41.305 128.641,41.413 129.844 C 41.521 131.047,41.875 134.211,42.199 136.875 C 42.523 139.539,42.943 143.266,43.131 145.156 C 43.319 147.047,43.686 150.281,43.946 152.344 C 44.205 154.406,44.681 158.625,45.004 161.719 C 45.326 164.813,45.880 169.875,46.235 172.969 C 46.590 176.063,46.959 179.332,47.056 180.234 L 47.232 181.875 199.397 181.875 C 283.088 181.875,351.563 181.770,351.563 181.641 C 351.563 181.512,351.909 178.454,352.332 174.844 C 352.755 171.235,353.536 164.414,354.066 159.688 C 354.596 154.961,355.372 148.141,355.791 144.531 C 356.209 140.922,356.699 136.422,356.880 134.531 C 357.060 132.641,357.477 128.914,357.805 126.250 C 358.133 123.586,358.491 120.422,358.600 119.219 C 358.709 118.016,359.128 114.289,359.531 110.938 C 359.934 107.586,360.355 103.859,360.465 102.656 C 360.576 101.453,361.009 97.668,361.427 94.244 C 361.845 90.821,362.188 87.855,362.188 87.653 C 362.188 87.451,360.324 86.687,358.047 85.955 C 355.770 85.223,353.133 84.365,352.188 84.047 C 351.242 83.729,346.531 82.208,341.719 80.668 C 330.857 77.192,318.720 73.298,307.500 69.691 C 302.773 68.171,295.109 65.711,290.469 64.224 C 285.828 62.736,279.500 60.699,276.406 59.696 C 273.313 58.693,268.039 57.000,264.688 55.933 C 261.336 54.867,256.273 53.246,253.438 52.330 C 248.381 50.698,239.157 47.734,222.344 42.340 C 217.703 40.851,210.685 38.591,206.748 37.317 C 202.811 36.042,199.436 35.012,199.248 35.026 C 199.060 35.040,197.711 35.459,196.250 35.955 M202.182 44.997 C 205.484 46.682,206.389 51.209,203.974 53.959 C 201.211 57.106,196.203 56.433,194.382 52.671 C 192.007 47.765,197.334 42.524,202.182 44.997 M338.281 98.240 C 344.454 101.139,342.185 110.017,335.276 109.997 C 333.533 109.992,331.093 108.659,330.112 107.177 C 326.621 101.901,332.465 95.508,338.281 98.240 M80.742 98.672 C 80.830 98.973,81.902 103.297,83.126 108.281 C 85.326 117.247,89.162 132.811,92.279 145.418 C 93.352 149.758,93.966 151.738,94.120 151.355 C 94.247 151.039,94.856 148.672,95.472 146.094 C 96.089 143.516,97.491 137.750,98.590 133.281 C 100.509 125.474,102.926 115.626,105.607 104.688 C 106.303 101.852,106.959 99.215,107.066 98.828 L 107.260 98.125 117.536 98.125 L 127.813 98.125 127.813 131.875 L 127.813 165.625 120.313 165.625 L 112.813 165.625 112.791 144.297 L 112.769 122.969 112.034 126.094 C 110.893 130.942,109.405 137.387,108.752 140.313 C 108.425 141.773,107.652 145.148,107.034 147.813 C 106.415 150.477,105.488 154.484,104.973 156.719 C 104.458 158.953,103.792 161.836,103.492 163.125 L 102.946 165.469 93.901 165.469 L 84.856 165.469 84.198 162.500 C 83.836 160.867,83.100 157.633,82.563 155.313 C 82.026 152.992,81.166 149.266,80.651 147.031 C 80.136 144.797,79.210 140.789,78.593 138.125 C 77.976 135.461,77.055 131.453,76.546 129.219 C 76.037 126.984,75.493 124.734,75.337 124.219 C 75.161 123.635,75.044 131.279,75.027 144.453 L 75.000 165.625 67.500 165.625 L 60.000 165.625 60.000 131.875 L 60.000 98.125 70.291 98.125 C 79.824 98.125,80.595 98.165,80.742 98.672 M175.121 99.185 C 177.308 100.258,179.221 102.123,180.125 104.063 C 181.163 106.287,181.115 126.708,180.066 129.506 C 177.105 137.403,170.403 141.153,158.594 141.523 L 152.344 141.719 152.262 153.672 L 152.180 165.625 144.840 165.625 L 137.500 165.625 137.500 131.865 L 137.500 98.105 155.391 98.193 L 173.281 98.281 175.121 99.185 M203.438 125.469 L 203.438 152.813 213.594 152.813 L 223.750 152.813 223.750 159.221 L 223.750 165.630 206.172 165.549 L 188.594 165.469 188.514 131.797 L 188.435 98.125 195.936 98.125 L 203.438 98.125 203.438 125.469 M264.827 98.516 C 264.893 98.730,265.388 101.016,265.927 103.594 C 266.466 106.172,267.310 110.180,267.802 112.500 C 268.293 114.820,269.141 118.828,269.685 121.406 C 270.229 123.984,271.006 127.641,271.412 129.531 C 271.818 131.422,272.661 135.430,273.285 138.438 C 273.909 141.445,274.757 145.453,275.169 147.344 C 275.582 149.234,276.354 152.891,276.886 155.469 C 277.954 160.647,278.728 164.238,278.958 165.084 C 279.099 165.603,278.648 165.631,271.530 165.552 L 263.951 165.469 263.697 164.531 C 263.558 164.016,263.011 161.484,262.482 158.906 C 261.953 156.328,261.384 153.691,261.217 153.047 L 260.913 151.875 254.876 151.875 L 248.838 151.875 248.021 155.391 C 247.571 157.324,246.922 160.286,246.577 161.973 C 246.232 163.659,245.869 165.171,245.769 165.332 C 245.438 165.868,230.938 165.706,230.938 165.167 C 230.938 164.645,231.734 160.608,233.113 154.141 C 234.967 145.447,235.965 140.736,236.705 137.188 C 237.117 135.211,237.966 131.203,238.591 128.281 C 239.217 125.359,240.066 121.352,240.479 119.375 C 240.891 117.398,241.667 113.742,242.203 111.250 C 242.738 108.758,243.519 105.031,243.939 102.969 C 244.359 100.906,244.779 98.973,244.872 98.672 C 245.092 97.964,264.611 97.811,264.827 98.516 M320.367 98.957 C 325.384 101.275,326.365 103.523,326.506 113.021 C 326.663 123.568,326.104 126.393,323.214 129.661 L 321.993 131.041 324.232 133.255 C 327.552 136.538,327.929 137.671,328.061 144.793 C 328.237 154.231,326.603 157.946,320.541 161.896 C 315.679 165.063,312.044 165.623,296.328 165.624 L 284.688 165.625 284.688 131.862 L 284.688 98.100 301.797 98.191 C 318.575 98.279,318.935 98.294,320.367 98.957 M333.561 99.659 C 330.137 101.214,330.231 106.357,333.711 107.896 C 337.907 109.753,341.614 105.167,339.110 101.219 C 337.802 99.156,335.866 98.612,333.561 99.659 M337.813 100.938 C 338.659 101.784,338.604 103.024,337.684 103.843 L 336.930 104.515 337.714 105.851 L 338.497 107.188 337.607 107.188 C 336.872 107.188,336.588 106.944,335.972 105.781 C 335.561 105.008,335.034 104.375,334.800 104.375 C 334.505 104.375,334.375 104.803,334.375 105.781 C 334.375 107.073,334.311 107.188,333.594 107.188 L 332.813 107.188 332.813 103.958 C 332.813 102.182,332.906 100.635,333.021 100.521 C 333.546 99.996,337.187 100.312,337.813 100.938 M334.431 102.266 C 334.551 103.108,335.532 103.334,336.378 102.715 C 337.198 102.116,336.742 101.563,335.429 101.563 C 334.470 101.563,334.344 101.651,334.431 102.266 M152.396 110.833 C 152.281 110.948,152.188 115.026,152.188 119.896 L 152.188 128.750 157.109 128.743 C 165.757 128.731,165.751 128.739,165.875 118.405 L 165.968 110.625 159.286 110.625 C 155.611 110.625,152.510 110.719,152.396 110.833 M299.688 117.962 L 299.688 125.313 303.845 125.313 C 310.975 125.313,311.638 124.495,311.492 115.875 L 311.406 110.781 305.547 110.696 L 299.688 110.611 299.688 117.962 M254.556 114.063 C 254.429 115.180,253.976 118.836,253.551 122.188 C 253.126 125.539,252.585 129.969,252.349 132.031 C 252.113 134.094,251.821 136.520,251.701 137.422 L 251.482 139.063 254.803 139.063 L 258.125 139.063 258.125 138.279 C 258.125 137.848,257.922 136.126,257.675 134.451 C 257.427 132.776,256.997 129.367,256.719 126.875 C 256.441 124.383,255.893 120.023,255.501 117.188 L 254.789 112.031 254.556 114.063 M299.688 145.469 L 299.688 152.813 304.261 152.813 C 309.315 152.813,310.841 152.507,312.217 151.223 L 313.125 150.374 313.125 145.698 C 313.125 138.738,312.444 138.143,304.453 138.132 L 299.688 138.125 299.688 145.469 M1.875 185.665 C 1.875 185.859,2.543 186.699,3.359 187.532 L 4.844 189.046 199.844 189.053 L 394.844 189.059 396.484 187.398 C 397.387 186.484,398.125 185.641,398.125 185.525 C 398.125 185.408,308.969 185.313,200.000 185.313 C 53.044 185.313,1.875 185.404,1.875 185.665 M6.915 200.228 C 7.151 200.525,15.403 208.837,25.254 218.698 C 35.104 228.559,43.120 236.677,43.066 236.738 C 42.786 237.055,15.277 264.581,11.260 268.564 C 8.676 271.126,6.563 273.341,6.563 273.486 C 6.563 273.631,13.488 273.749,21.953 273.748 L 37.344 273.747 47.011 264.061 C 52.328 258.734,56.758 254.376,56.855 254.378 C 56.952 254.379,57.414 253.922,57.881 253.362 L 58.731 252.344 69.428 263.047 L 80.125 273.750 83.656 273.750 C 85.598 273.750,87.188 273.640,87.188 273.505 C 87.188 273.370,83.300 269.327,78.548 264.521 C 73.796 259.714,59.417 245.165,46.595 232.190 C 33.772 219.214,21.279 206.593,18.831 204.143 L 14.380 199.688 10.433 199.688 C 6.735 199.688,6.513 199.722,6.915 200.228 M19.787 200.614 C 20.640 201.628,27.047 208.141,43.125 224.337 C 48.883 230.137,62.234 243.628,72.794 254.316 L 91.995 273.750 101.466 273.750 C 106.675 273.750,110.938 273.631,110.938 273.485 C 110.938 273.340,102.714 265.000,92.664 254.954 L 74.390 236.687 92.663 218.422 C 102.713 208.376,110.936 200.051,110.937 199.922 C 110.937 199.793,104.015 199.688,95.554 199.688 L 80.171 199.688 77.195 202.650 C 69.282 210.526,58.930 220.625,58.771 220.621 C 58.674 220.620,53.817 215.909,47.979 210.153 L 37.365 199.688 28.186 199.688 L 19.007 199.688 19.787 200.614 M157.500 236.719 L 157.500 273.750 168.438 273.750 L 179.375 273.750 179.375 236.719 L 179.375 199.688 168.438 199.688 L 157.500 199.688 157.500 236.719 M200.000 236.707 L 200.000 273.750 233.607 273.750 C 261.891 273.750,267.571 273.677,269.466 273.292 C 270.705 273.040,272.205 272.752,272.799 272.651 C 274.155 272.422,279.563 270.057,280.036 269.487 C 280.230 269.254,280.569 269.063,280.788 269.063 C 281.235 269.063,286.899 263.515,288.150 261.853 C 288.937 260.806,292.864 253.300,292.799 252.966 C 292.781 252.873,293.125 251.711,293.564 250.383 C 294.003 249.055,294.422 247.477,294.495 246.875 C 294.569 246.273,294.879 244.516,295.183 242.969 C 296.705 235.247,294.902 223.673,291.022 216.250 C 289.143 212.656,288.173 211.178,286.507 209.370 C 286.046 208.870,285.554 208.280,285.413 208.058 C 285.183 207.697,284.366 206.973,282.206 205.215 C 279.952 203.381,276.644 201.830,271.563 200.224 C 270.799 199.983,259.823 199.847,235.234 199.772 L 200.000 199.665 200.000 236.707 M312.188 236.719 L 312.188 273.750 351.406 273.750 L 390.625 273.750 390.625 265.469 L 390.625 257.188 361.094 257.188 L 331.563 257.188 331.563 250.781 L 331.563 244.375 348.906 244.375 L 366.250 244.375 366.250 236.094 L 366.250 227.813 348.906 227.813 L 331.563 227.813 331.563 221.563 L 331.563 215.313 361.250 215.313 L 390.938 215.313 390.938 207.500 L 390.938 199.688 351.563 199.688 L 312.188 199.688 312.188 236.719 M264.078 215.899 C 266.477 216.488,268.828 217.647,270.508 219.068 C 271.606 219.997,274.688 223.854,274.688 224.299 C 274.688 224.470,275.031 225.224,275.450 225.976 C 275.869 226.728,276.277 227.695,276.356 228.125 C 276.434 228.555,276.754 229.820,277.066 230.938 C 279.052 238.050,276.473 248.193,271.388 253.267 C 268.986 255.663,268.220 256.139,265.105 257.172 L 262.232 258.125 240.647 258.125 L 219.063 258.125 219.063 236.719 L 219.063 215.313 240.391 215.316 C 260.096 215.320,261.898 215.364,264.078 215.899 M16.899 286.162 C 16.026 286.973,15.313 287.746,15.313 287.881 C 15.313 288.015,98.281 288.125,199.688 288.125 C 301.094 288.125,384.063 288.041,384.063 287.937 C 384.062 287.834,383.395 287.063,382.578 286.223 L 381.094 284.697 199.789 284.692 L 18.485 284.688 16.899 286.162 M15.313 293.084 C 15.313 293.234,16.684 294.014,18.359 294.818 C 20.035 295.622,22.953 297.028,24.844 297.941 C 26.734 298.855,30.250 300.546,32.656 301.700 C 39.737 305.095,40.323 305.425,40.465 306.094 C 40.787 307.607,41.875 316.540,41.874 317.664 C 41.872 321.054,42.892 326.613,43.562 326.864 C 43.923 327.000,45.273 327.533,46.563 328.050 C 48.856 328.970,54.864 331.274,58.594 332.665 C 59.625 333.050,61.594 333.786,62.969 334.302 C 64.344 334.817,66.172 335.490,67.031 335.796 C 67.891 336.102,69.156 336.594,69.844 336.889 C 70.531 337.184,71.797 337.659,72.656 337.944 C 73.516 338.229,74.711 338.693,75.313 338.974 C 75.914 339.255,77.250 339.793,78.281 340.171 C 79.313 340.549,81.352 341.316,82.813 341.875 C 86.854 343.423,89.063 344.248,90.781 344.854 C 92.661 345.516,93.159 345.713,95.061 346.545 C 95.868 346.899,96.629 347.188,96.753 347.188 C 96.977 347.188,100.032 348.339,104.219 350.001 C 109.438 352.073,111.427 352.817,111.738 352.815 C 111.921 352.814,112.799 353.164,113.690 353.594 C 114.581 354.023,115.460 354.375,115.644 354.375 C 115.827 354.375,116.637 354.647,117.442 354.980 C 118.736 355.514,122.050 356.790,127.500 358.852 C 128.445 359.210,129.359 359.595,129.531 359.708 C 129.703 359.821,130.263 360.014,130.776 360.137 C 131.289 360.261,132.454 360.702,133.364 361.118 C 134.274 361.534,135.199 361.875,135.420 361.875 C 135.640 361.875,136.537 362.221,137.413 362.643 C 138.288 363.065,139.404 363.506,139.893 363.621 C 140.382 363.737,141.524 364.165,142.431 364.572 C 143.339 364.979,144.268 365.313,144.497 365.313 C 144.726 365.313,145.844 365.734,146.981 366.250 C 148.118 366.766,149.253 367.188,149.503 367.188 C 149.752 367.188,150.868 367.609,151.982 368.125 C 153.096 368.641,154.156 369.063,154.339 369.063 C 154.521 369.063,155.482 369.430,156.475 369.879 C 157.469 370.328,158.703 370.807,159.219 370.943 C 159.734 371.079,160.930 371.502,161.875 371.882 C 168.245 374.445,173.014 376.250,173.413 376.250 C 173.589 376.250,174.475 376.599,175.382 377.027 C 176.289 377.454,177.664 378.004,178.438 378.250 C 179.211 378.497,181.180 379.217,182.813 379.852 C 184.445 380.486,186.836 381.400,188.125 381.881 C 189.414 382.363,191.453 383.141,192.656 383.610 C 199.663 386.342,199.224 386.306,203.906 384.521 C 204.938 384.128,206.977 383.353,208.438 382.798 C 209.898 382.244,211.797 381.505,212.656 381.157 C 213.516 380.809,215.063 380.208,216.094 379.821 C 220.976 377.990,225.620 376.231,229.688 374.671 C 231.148 374.111,233.398 373.270,234.688 372.802 C 235.977 372.335,238.508 371.362,240.313 370.642 C 242.117 369.922,244.019 369.223,244.539 369.090 C 245.058 368.957,245.824 368.666,246.239 368.443 C 246.655 368.221,248.058 367.653,249.357 367.181 C 250.656 366.709,253.195 365.738,255.000 365.023 C 256.805 364.308,258.584 363.659,258.955 363.580 C 259.326 363.501,260.380 363.086,261.299 362.659 C 262.217 362.231,263.157 361.880,263.387 361.878 C 263.617 361.876,264.717 361.453,265.831 360.938 C 266.945 360.422,268.054 360.000,268.295 360.000 C 268.537 360.000,269.655 359.578,270.781 359.063 C 271.907 358.547,273.032 358.125,273.281 358.125 C 273.529 358.125,274.475 357.776,275.382 357.348 C 276.289 356.921,277.664 356.369,278.438 356.121 C 280.397 355.492,283.860 354.170,285.480 353.432 C 286.228 353.091,286.992 352.813,287.177 352.813 C 287.510 352.813,290.270 351.746,294.531 349.972 C 295.734 349.471,296.898 349.061,297.116 349.062 C 297.335 349.062,298.444 348.641,299.581 348.125 C 300.719 347.609,301.841 347.188,302.076 347.188 C 302.311 347.188,303.240 346.832,304.140 346.398 C 305.040 345.964,306.291 345.470,306.919 345.301 C 307.547 345.132,308.743 344.686,309.577 344.311 C 310.411 343.935,311.331 343.588,311.620 343.538 C 311.910 343.488,312.894 343.110,313.808 342.698 C 314.721 342.286,315.820 341.853,316.250 341.736 C 316.680 341.619,317.313 341.392,317.656 341.232 C 318.563 340.810,323.995 338.770,325.530 338.275 C 326.251 338.043,327.147 337.689,327.520 337.489 C 327.893 337.290,329.342 336.704,330.740 336.187 C 333.628 335.119,336.768 333.943,340.625 332.484 C 342.086 331.931,343.984 331.235,344.844 330.936 C 345.703 330.637,347.039 330.116,347.813 329.779 C 349.254 329.149,350.988 328.500,354.127 327.413 C 355.861 326.814,355.915 326.760,356.054 325.508 C 356.971 317.244,357.312 314.399,357.684 311.875 C 357.924 310.242,358.122 308.098,358.123 307.109 C 358.125 305.653,358.222 305.313,358.637 305.313 C 358.919 305.313,359.833 304.892,360.669 304.378 C 361.504 303.864,362.188 303.516,362.188 303.605 C 362.188 303.749,365.128 302.355,367.656 301.013 C 368.172 300.739,368.805 300.423,369.063 300.311 C 369.794 299.993,373.818 298.084,374.688 297.643 C 376.284 296.832,377.419 296.281,380.391 294.871 C 382.066 294.076,383.438 293.288,383.438 293.119 C 383.438 292.922,376.703 292.813,364.566 292.813 L 345.695 292.813 345.521 293.828 C 345.425 294.387,345.261 295.828,345.156 297.031 C 345.052 298.234,344.623 302.172,344.205 305.781 C 343.786 309.391,343.337 313.464,343.206 314.833 L 342.969 317.322 340.625 318.211 C 339.336 318.699,337.578 319.353,336.719 319.662 C 335.290 320.177,327.243 323.197,319.063 326.289 C 317.258 326.971,315.289 327.731,314.688 327.977 C 314.086 328.224,308.672 330.271,302.656 332.527 C 287.114 338.354,268.670 345.296,257.031 349.699 C 251.531 351.780,246.117 353.814,245.000 354.219 C 243.883 354.624,238.469 356.658,232.969 358.739 C 212.160 366.612,199.710 371.250,199.382 371.250 C 199.043 371.250,194.594 369.601,175.781 362.501 C 170.281 360.426,160.508 356.750,154.063 354.333 C 147.617 351.917,141.711 349.686,140.938 349.376 C 138.999 348.599,135.974 347.453,125.625 343.575 C 120.727 341.739,115.805 339.890,114.688 339.465 C 113.570 339.040,111.602 338.296,110.313 337.812 C 109.023 337.328,106.773 336.479,105.313 335.926 C 103.852 335.373,101.602 334.528,100.313 334.047 C 99.023 333.566,95.508 332.239,92.500 331.097 C 89.492 329.956,86.328 328.764,85.469 328.448 C 83.314 327.657,79.446 326.203,76.094 324.923 C 74.547 324.332,69.414 322.399,64.688 320.626 C 59.961 318.854,56.052 317.372,56.000 317.332 C 55.949 317.293,55.695 315.381,55.437 313.083 C 55.179 310.786,54.553 305.381,54.046 301.072 C 53.540 296.764,53.125 293.143,53.125 293.026 C 53.125 292.908,44.617 292.813,34.219 292.813 C 23.714 292.813,15.313 292.933,15.313 293.084 M59.688 293.203 C 59.688 293.418,59.970 295.773,60.314 298.438 C 60.658 301.102,61.150 305.379,61.408 307.944 C 61.666 310.508,61.912 312.627,61.954 312.653 C 61.997 312.678,63.789 313.352,65.938 314.149 C 68.086 314.947,74.484 317.349,80.156 319.487 C 108.403 330.136,114.702 332.507,124.375 336.133 C 130.133 338.292,136.039 340.528,137.500 341.102 C 138.961 341.676,142.688 343.085,145.781 344.232 C 148.875 345.380,152.250 346.642,153.281 347.037 C 156.852 348.404,167.035 352.250,171.953 354.089 C 173.371 354.620,175.375 355.388,176.406 355.797 C 177.438 356.206,179.195 356.874,180.313 357.282 C 184.971 358.982,190.735 361.150,196.317 363.302 L 199.353 364.472 201.004 363.849 C 211.880 359.746,226.963 354.065,229.063 353.281 C 230.523 352.735,235.938 350.696,241.094 348.750 C 246.250 346.804,251.664 344.765,253.125 344.218 C 254.586 343.671,258.875 342.054,262.656 340.625 C 266.438 339.196,270.797 337.548,272.344 336.964 C 273.891 336.379,276.281 335.475,277.656 334.954 C 280.060 334.042,282.111 333.271,287.500 331.250 C 293.576 328.971,294.972 328.446,297.031 327.662 C 301.006 326.148,304.350 324.890,311.563 322.192 C 312.852 321.710,315.242 320.795,316.875 320.158 C 318.508 319.522,320.547 318.753,321.406 318.450 C 322.962 317.902,328.666 315.767,333.125 314.064 C 334.414 313.571,335.785 313.079,336.172 312.969 C 336.559 312.860,336.875 312.604,336.875 312.401 C 336.876 312.198,337.152 309.885,337.490 307.261 C 337.828 304.637,338.250 300.981,338.427 299.136 C 338.605 297.291,338.834 295.113,338.936 294.297 L 339.121 292.813 199.404 292.813 C 87.839 292.813,59.688 292.891,59.688 293.203 M74.932 300.485 C 80.791 302.933,79.139 311.563,72.813 311.563 C 68.815 311.563,66.084 307.856,67.326 304.116 C 68.421 300.820,71.833 299.191,74.932 300.485 M328.824 301.106 C 330.968 302.525,331.815 305.544,330.769 308.045 C 328.344 313.850,319.688 312.044,319.688 305.734 C 319.688 301.197,324.941 298.536,328.824 301.106 M202.224 344.147 C 206.796 346.064,206.127 353.367,201.246 354.816 C 196.572 356.204,192.146 351.221,194.312 347.008 C 195.945 343.831,198.913 342.758,202.224 344.147 " stroke="none" fill="#042c3c" fill-rule="evenodd"></path><path id="path2" d="M188.588 131.719 C 188.588 150.281,188.626 157.829,188.672 148.492 C 188.718 139.154,188.718 123.967,188.672 114.742 C 188.626 105.517,188.588 113.156,188.588 131.719 M332.929 103.906 C 332.930 105.797,332.982 106.530,333.044 105.535 C 333.106 104.541,333.105 102.994,333.042 102.098 C 332.980 101.202,332.929 102.016,332.929 103.906 M329.135 103.750 C 329.135 104.352,329.199 104.598,329.278 104.297 C 329.357 103.996,329.357 103.504,329.278 103.203 C 329.199 102.902,329.135 103.148,329.135 103.750 M180.764 116.094 C 180.765 121.594,180.807 123.800,180.859 120.996 C 180.911 118.192,180.911 113.692,180.859 110.996 C 180.807 108.300,180.764 110.594,180.764 116.094 M326.385 114.375 C 326.385 118.586,326.429 120.309,326.483 118.203 C 326.538 116.098,326.538 112.652,326.483 110.547 C 326.429 108.441,326.385 110.164,326.385 114.375 M112.771 122.422 C 112.708 122.723,112.728 132.602,112.816 144.375 L 112.975 165.781 113.050 143.828 C 113.119 123.502,113.086 120.919,112.771 122.422 M301.497 125.544 C 302.578 125.605,304.265 125.605,305.247 125.543 C 306.228 125.481,305.344 125.431,303.281 125.432 C 301.219 125.432,300.416 125.483,301.497 125.544 M154.127 128.981 C 155.280 129.041,157.248 129.042,158.502 128.982 C 159.756 128.923,158.813 128.874,156.406 128.873 C 154.000 128.873,152.974 128.921,154.127 128.981 M322.377 130.278 C 321.714 130.969,321.609 131.238,321.928 131.422 C 322.156 131.554,322.236 131.544,322.105 131.400 C 321.974 131.255,322.246 130.741,322.710 130.256 C 323.175 129.771,323.484 129.375,323.398 129.375 C 323.312 129.375,322.853 129.781,322.377 130.278 M258.125 138.739 C 258.125 138.909,256.649 139.085,254.766 139.142 L 251.406 139.242 254.922 139.309 C 257.868 139.364,258.438 139.299,258.438 138.906 C 258.438 138.648,258.367 138.438,258.281 138.438 C 258.195 138.438,258.125 138.573,258.125 138.739 M313.246 145.469 C 313.247 147.703,313.297 148.576,313.357 147.409 C 313.417 146.242,313.417 144.413,313.356 143.346 C 313.295 142.279,313.246 143.234,313.246 145.469 M208.535 153.046 C 211.425 153.098,216.066 153.098,218.848 153.046 C 221.630 152.994,219.266 152.952,213.594 152.952 C 207.922 152.952,205.646 152.995,208.535 153.046 M301.484 153.044 C 302.559 153.105,304.316 153.105,305.391 153.044 C 306.465 152.983,305.586 152.933,303.438 152.933 C 301.289 152.933,300.410 152.983,301.484 153.044 " stroke="none" fill="#58737a" fill-rule="evenodd"></path><path id="path3" d="M199.141 55.840 C 199.441 55.919,199.934 55.919,200.234 55.840 C 200.535 55.762,200.289 55.698,199.688 55.698 C 199.086 55.698,198.840 55.762,199.141 55.840 M127.577 131.635 L 127.500 165.301 120.234 165.391 L 112.969 165.481 120.244 165.553 C 125.831 165.608,127.554 165.534,127.668 165.234 C 127.750 165.020,127.780 149.797,127.735 131.406 L 127.653 97.969 127.577 131.635 M203.275 125.469 C 203.275 140.594,203.313 146.827,203.359 139.320 C 203.406 131.814,203.406 119.439,203.359 111.820 C 203.313 104.202,203.275 110.344,203.275 125.469 M166.072 117.969 C 166.072 122.094,166.117 123.738,166.171 121.623 C 166.225 119.507,166.225 116.132,166.171 114.123 C 166.116 112.113,166.072 113.844,166.072 117.969 M301.953 138.044 C 303.113 138.104,305.012 138.104,306.172 138.044 C 307.332 137.984,306.383 137.935,304.063 137.935 C 301.742 137.935,300.793 137.984,301.953 138.044 M327.938 145.625 C 327.938 148.289,327.986 149.379,328.045 148.047 C 328.103 146.715,328.103 144.535,328.045 143.203 C 327.986 141.871,327.938 142.961,327.938 145.625 M154.297 141.482 C 155.543 141.541,157.582 141.541,158.828 141.482 C 160.074 141.423,159.055 141.374,156.563 141.374 C 154.070 141.374,153.051 141.423,154.297 141.482 M251.813 151.796 C 253.584 151.852,256.397 151.851,258.063 151.795 C 259.730 151.739,258.281 151.694,254.844 151.694 C 251.406 151.694,250.043 151.740,251.813 151.796 M223.508 159.138 L 223.438 165.307 206.016 165.391 L 188.594 165.474 206.025 165.550 C 219.961 165.610,223.488 165.545,223.611 165.225 C 223.695 165.005,223.723 162.157,223.672 158.897 L 223.579 152.969 223.508 159.138 M63.828 165.546 C 65.848 165.600,69.152 165.600,71.172 165.546 C 73.191 165.491,71.539 165.447,67.500 165.447 C 63.461 165.447,61.809 165.491,63.828 165.546 M89.628 165.546 C 92.088 165.599,96.025 165.599,98.378 165.546 C 100.731 165.493,98.719 165.450,93.906 165.450 C 89.094 165.450,87.169 165.493,89.628 165.546 M141.346 165.546 C 143.375 165.601,146.609 165.600,148.533 165.546 C 150.457 165.491,148.797 165.446,144.844 165.446 C 140.891 165.447,139.317 165.492,141.346 165.546 M234.627 165.546 C 236.743 165.600,240.118 165.600,242.127 165.546 C 244.137 165.491,242.406 165.447,238.281 165.447 C 234.156 165.447,232.512 165.492,234.627 165.546 M267.578 165.546 C 269.598 165.600,272.902 165.600,274.922 165.546 C 276.941 165.491,275.289 165.447,271.250 165.447 C 267.211 165.447,265.559 165.491,267.578 165.546 M290.880 165.547 C 294.028 165.598,299.090 165.597,302.130 165.546 C 305.169 165.495,302.594 165.453,296.406 165.454 C 290.219 165.454,287.732 165.495,290.880 165.547 M354.844 181.563 L 351.719 181.754 354.922 181.814 C 356.889 181.852,358.125 181.754,358.125 181.563 C 358.125 181.391,358.090 181.277,358.047 181.311 C 358.004 181.344,356.563 181.457,354.844 181.563 M42.432 181.793 C 43.340 181.857,44.747 181.856,45.557 181.792 C 46.368 181.728,45.625 181.676,43.906 181.677 C 42.188 181.677,41.524 181.730,42.432 181.793 " stroke="none" fill="#84949c" fill-rule="evenodd"></path><path id="path4" d="M60.151 131.719 C 60.151 150.281,60.188 157.829,60.234 148.492 C 60.280 139.154,60.280 123.967,60.234 114.742 C 60.188 105.517,60.151 113.156,60.151 131.719 M284.762 131.622 C 284.721 150.132,284.793 165.341,284.922 165.421 C 285.134 165.552,285.132 142.245,284.918 110.156 C 284.873 103.453,284.803 113.113,284.762 131.622 M299.509 118.125 C 299.509 122.164,299.554 123.816,299.608 121.797 C 299.663 119.777,299.663 116.473,299.608 114.453 C 299.554 112.434,299.509 114.086,299.509 118.125 M74.760 143.984 C 74.800 155.801,74.870 162.023,74.916 157.813 C 75.132 137.928,75.134 122.500,74.922 122.500 C 74.793 122.500,74.720 132.168,74.760 143.984 M299.510 145.469 C 299.510 149.594,299.554 151.238,299.609 149.123 C 299.663 147.007,299.663 143.632,299.608 141.623 C 299.554 139.613,299.510 141.344,299.510 145.469 " stroke="none" fill="#7c9499" fill-rule="evenodd"></path></g></svg>