<svg id="svg" version="1.1" xmlns="http://www.w3.org/2000/svg" xmlns:xlink="http://www.w3.org/1999/xlink" width="400" height="264.11483253588517" viewBox="0, 0, 400,264.11483253588517"><g id="svgg"><path fill="#0079C0" id="path0" d="M31.898 90.227 L 31.898 155.662 54.226 155.662 L 76.555 155.662 76.555 108.398 L 76.555 61.134 83.784 61.349 C 90.484 61.547,91.178 61.689,93.264 63.281 C 102.201 70.106,97.254 84.211,85.923 84.211 L 82.935 84.211 82.935 100.797 L 82.935 117.384 93.377 117.384 C 126.365 117.384,141.817 103.449,141.830 73.684 C 141.842 47.713,129.807 32.174,105.227 26.426 C 101.111 25.463,95.912 25.280,66.188 25.053 L 31.898 24.792 31.898 90.227 M148.006 47.018 C 148.006 59.790,148.244 68.898,148.568 68.549 C 148.876 68.215,154.900 58.969,161.954 48.001 C 169.008 37.032,175.247 27.343,175.820 26.469 L 176.861 24.880 162.434 24.880 L 148.006 24.880 148.006 47.018 M233.493 42.743 C 233.493 52.568,233.623 60.606,233.782 60.606 C 233.942 60.606,237.721 55.223,242.181 48.644 C 246.641 42.065,252.123 34.027,254.363 30.781 L 258.436 24.880 245.964 24.880 L 233.493 24.880 233.493 42.743 M311.962 90.271 L 311.962 155.662 335.885 155.662 L 359.809 155.662 359.809 90.271 L 359.809 24.880 335.885 24.880 L 311.962 24.880 311.962 90.271 M169.541 128.990 L 153.117 155.343 169.477 155.513 C 178.475 155.607,185.941 155.580,186.067 155.453 C 186.194 155.326,186.223 143.390,186.132 128.929 L 185.965 102.636 169.541 128.990 M245.474 129.100 L 229.066 155.343 245.410 155.513 C 254.399 155.607,261.858 155.580,261.984 155.453 C 262.111 155.326,262.140 143.440,262.049 129.040 L 261.882 102.858 245.474 129.100 M373.856 138.916 C 369.133 141.290,367.329 147.279,370.013 151.680 C 374.987 159.840,386.608 156.543,386.600 146.974 C 386.595 139.825,380.154 135.753,373.856 138.916 M382.505 141.149 C 389.651 147.698,381.755 158.933,373.779 153.565 C 367.534 149.363,370.598 139.075,378.094 139.075 C 379.628 139.075,380.889 139.668,382.505 141.149 M375.598 142.061 C 374.331 142.398,373.868 152.472,375.120 152.472 C 375.470 152.472,375.758 151.448,375.758 150.197 C 375.758 146.985,378.889 147.144,379.726 150.399 C 380.020 151.539,380.539 152.472,380.879 152.472 C 381.684 152.472,381.667 151.083,380.838 148.901 C 380.381 147.699,380.381 146.956,380.838 146.499 C 383.182 144.155,379.486 141.024,375.598 142.061 M379.585 143.860 C 380.219 144.623,380.219 145.010,379.585 145.774 C 377.888 147.818,375.049 146.307,375.988 143.860 C 376.190 143.333,376.904 142.903,377.573 142.903 C 378.243 142.903,379.149 143.333,379.585 143.860 M189.758 180.175 C 176.313 184.606,169.380 199.564,172.970 216.396 C 178.935 244.363,216.316 243.876,221.968 215.758 C 226.652 192.457,209.611 173.632,189.758 180.175 M24.880 208.325 L 24.880 236.108 28.549 235.917 L 32.217 235.726 32.392 225.429 L 32.567 215.132 39.409 214.882 C 52.907 214.389,59.824 208.763,60.453 197.767 C 61.164 185.347,53.991 180.542,34.737 180.542 L 24.880 180.542 24.880 208.325 M68.262 208.268 L 68.262 236.045 71.770 236.045 L 75.279 236.045 75.294 211.962 L 75.309 187.879 82.790 204.335 L 90.271 220.791 92.491 220.603 L 94.711 220.415 102.061 204.309 L 109.410 188.204 109.577 212.156 L 109.744 236.108 113.405 235.917 L 117.065 235.726 117.232 208.109 L 117.398 180.492 111.941 180.677 L 106.484 180.861 99.683 196.087 L 92.882 211.312 91.705 208.846 C 91.058 207.489,87.876 200.638,84.633 193.620 L 78.737 180.861 73.499 180.676 L 68.262 180.491 68.262 208.268 M128.868 208.346 L 128.868 236.240 140.829 235.876 C 151.041 235.566,153.342 235.306,156.559 234.101 C 169.496 229.252,171.846 211.755,160.283 206.365 C 158.970 205.752,157.799 205.170,157.682 205.071 C 157.565 204.972,158.902 203.504,160.653 201.808 C 167.181 195.484,166.350 186.672,158.827 182.456 C 156.079 180.916,155.511 180.854,142.424 180.656 L 128.868 180.451 128.868 208.346 M231.094 208.134 L 231.260 235.726 234.928 235.917 L 238.596 236.108 238.596 224.922 L 238.596 213.736 240.351 211.777 L 242.105 209.817 252.632 222.923 L 263.158 236.030 267.783 236.037 C 270.327 236.041,272.408 235.885,272.408 235.690 C 272.408 235.495,267.026 228.730,260.447 220.656 C 253.868 212.583,248.485 205.593,248.485 205.124 C 248.485 204.654,253.607 198.931,259.866 192.406 L 271.248 180.542 266.565 180.558 L 261.882 180.574 250.399 193.136 L 238.915 205.697 238.742 193.120 L 238.570 180.542 234.748 180.542 L 230.927 180.542 231.094 208.134 M305.038 205.582 C 309.901 219.354,314.334 231.842,314.888 233.333 L 315.895 236.045 319.839 236.045 L 323.783 236.045 333.293 209.091 C 338.524 194.266,342.928 181.778,343.081 181.340 C 343.283 180.760,342.319 180.542,339.547 180.542 L 335.736 180.542 328.223 202.711 C 324.090 214.904,320.507 225.110,320.259 225.391 C 320.012 225.671,317.712 219.786,315.149 212.312 C 312.586 204.839,309.066 194.633,307.328 189.633 L 304.167 180.542 300.181 180.542 L 296.195 180.542 305.038 205.582 M350.239 194.595 L 350.239 208.648 354.545 208.152 C 368.617 206.530,373.832 209.050,374.333 217.710 C 375.012 229.450,364.446 233.985,351.591 227.471 L 348.325 225.816 348.325 229.955 L 348.325 234.095 351.994 235.229 C 368.949 240.472,381.806 232.985,381.815 217.863 C 381.821 206.610,376.193 201.595,363.556 201.595 L 357.895 201.595 357.895 194.272 L 357.895 186.950 369.856 186.776 L 381.818 186.603 382.013 183.573 L 382.207 180.542 366.223 180.542 L 350.239 180.542 350.239 194.595 M204.490 186.844 C 218.590 193.249,218.234 223.587,203.992 229.345 C 190.962 234.613,180.199 224.924,180.251 207.974 C 180.296 193.380,186.239 185.674,197.448 185.674 C 200.418 185.674,202.777 186.066,204.490 186.844 M47.594 188.266 C 52.887 190.928,54.537 197.118,51.490 202.881 C 49.328 206.969,46.451 208.241,38.756 208.513 L 32.536 208.732 32.536 197.421 L 32.536 186.110 38.547 186.424 C 43.177 186.667,45.256 187.090,47.594 188.266 M150.631 186.920 C 155.317 187.787,156.938 189.660,156.938 194.208 C 156.938 200.757,153.596 202.871,143.242 202.871 L 136.523 202.871 136.523 194.577 L 136.523 186.284 141.859 186.284 C 144.793 186.284,148.741 186.570,150.631 186.920 M154.742 210.268 C 158.920 212.250,160.678 216.388,159.527 221.531 C 158.236 227.297,153.202 229.665,142.233 229.665 L 136.523 229.665 136.523 219.042 L 136.523 208.418 144.593 208.849 C 149.734 209.124,153.417 209.639,154.742 210.268 " stroke="none" fill-rule="evenodd"></path></g></svg>