<svg width="360" height="600" viewBox="0 0 360 600" fill="none" xmlns="http://www.w3.org/2000/svg">
<path d="M294.482 371.719C267.674 356.774 250.985 336.371 244.878 311.076C240.344 292.295 241.647 271.161 248.75 248.261C254.016 231.377 261.912 215.429 272.145 201.004C326.437 124.156 331.337 74.0808 325.888 45.6054C319.913 14.383 300.5 1.41596 300.305 1.28874L301.143 0C301.343 0.130222 321.267 13.3985 327.386 45.2545C330.913 63.6197 329.254 84.5608 322.454 107.496C313.99 136.04 297.486 167.799 273.401 201.891C263.261 216.184 255.437 231.986 250.218 248.715C238.568 286.274 236.92 337.87 295.231 370.377L294.482 371.719Z" fill="#2F2E41"/>
<path d="M307.374 371.719C334.182 356.774 350.871 336.371 356.978 311.076C361.512 292.295 360.209 271.161 353.106 248.261C347.84 231.377 339.945 215.429 329.711 201.004C275.419 124.156 270.519 74.0808 275.968 45.6054C281.943 14.383 301.356 1.41596 301.551 1.28874L300.713 0C300.513 0.130222 280.589 13.3986 274.47 45.2546C270.943 63.6197 272.602 84.5608 279.403 107.496C287.866 136.04 304.37 167.799 328.455 201.891C338.596 216.184 346.419 231.986 351.638 248.715C363.288 286.274 364.937 337.87 306.626 370.377L307.374 371.719Z" fill="#2F2E41"/>
<path d="M262.797 466.645L285.134 546.326C285.134 546.326 280.531 616.903 302.011 603.095C323.993 588.964 315.82 529.449 315.82 529.449L302.945 457.965L262.797 466.645Z" fill="#E0AF81"/>
<path d="M274.733 243.121L293.179 261.567V349.458C293.179 349.458 304.03 365.734 301.859 370.074C299.689 374.414 297.519 374.414 299.689 377.67C301.859 380.925 304.03 383.095 301.859 385.265C299.689 387.435 299.689 392.861 301.859 395.031C304.03 397.201 308.37 400.456 305.115 403.711C301.859 406.966 297.519 404.796 301.859 416.732C306.2 428.668 313.795 431.923 311.625 436.263C309.455 440.603 309.455 451.454 309.455 451.454L262.797 457.965L253.031 335.352L274.733 243.121Z" fill="#D0CDE1"/>
<path d="M311.625 450.369L257.372 452.539L259.542 475.326L307.285 466.645L311.625 450.369Z" fill="#3F3D56"/>
<path d="M162.429 129.732L155.918 194.835L222.107 204.601L226.99 167.167L231.873 129.732H162.429Z" fill="#E0AF81"/>
<path opacity="0.1" d="M162.429 129.379L155.918 194.483L222.107 204.249L226.99 166.814L231.873 129.379H162.429Z" fill="black"/>
<path d="M18.6571 439.518L55.5494 518.728C55.5494 518.728 62.0598 555.62 71.8254 556.706C81.591 557.791 91.3566 518.728 91.3566 518.728L78.3358 498.112L63.1448 439.518H18.6571Z" fill="#E0AF81"/>
<path d="M271.196 601.13H62.6243C64.277 574.99 65.3166 558.874 65.3166 558.874L68.0866 554.514L81.5176 533.409L91.1078 518.341L94.4519 513.08L95.6934 511.133L108.83 508.735L244.349 484.007C246.591 494.044 249.762 503.85 253.823 513.298C254.746 515.4 255.74 517.503 256.803 519.582C260.209 526.232 264.368 532.532 269.31 537.172C270.435 538.228 271.25 541.044 271.778 545.374C273.081 555.98 272.709 575.704 271.196 601.13Z" fill="#2F2E41"/>
<path d="M198.778 150.891C227.543 150.891 250.861 127.572 250.861 98.8074C250.861 70.0427 227.543 46.7242 198.778 46.7242C170.013 46.7242 146.695 70.0427 146.695 98.8074C146.695 127.572 170.013 150.891 198.778 150.891Z" fill="#E0AF81"/>
<path d="M82.676 205.144L75.0805 200.804C75.0805 200.804 41.4434 223.59 30.5928 274.588C19.7421 325.586 12.1466 338.607 12.1466 338.607C12.1466 338.607 1.29596 340.777 8.89142 348.373C16.4869 355.968 16.4869 354.883 9.97652 359.224C3.46612 363.564 -0.874161 354.883 3.46611 363.564C7.80638 372.244 13.2317 370.074 8.89142 375.5C4.55115 380.925 -3.04431 380.925 1.29596 385.265C5.63623 389.605 -3.04424 399.371 2.38106 403.711C7.80636 408.052 9.97652 409.137 9.97652 416.732C9.94336 421.165 10.6775 425.57 12.1466 429.753H68.5701C68.5701 429.753 57.7194 409.137 60.9746 404.796C64.2298 400.456 65.3149 396.116 63.1448 393.946C60.9747 391.776 54.4642 396.116 60.9746 390.69C67.485 385.265 69.6552 388.52 67.485 382.01C65.3149 375.5 60.9746 378.755 65.3149 375.5C69.6552 372.244 72.9104 373.329 70.7402 370.074C68.5701 366.819 64.2298 366.819 68.5701 364.649C72.9104 362.479 76.1656 364.649 75.0805 359.224C73.9954 353.798 72.9104 355.968 75.0805 353.798C77.2506 351.628 100.037 277.844 100.037 275.673C100.037 273.503 82.676 205.144 82.676 205.144Z" fill="#D0CDE1"/>
<path d="M71.8254 425.413L3.46619 429.753L20.8271 446.029L68.5705 447.114L71.8254 425.413Z" fill="#3F3D56"/>
<path d="M91.3566 506.793L77.2507 532.834C77.2507 532.834 119.568 538.26 134.759 543.685C149.95 549.11 189.013 556.706 189.013 556.706L198.778 518.728L91.3566 506.793Z" fill="#3F3D56"/>
<path d="M215.054 518.728L226.99 554.535L274.733 544.77L269.307 511.133L215.054 518.728Z" fill="#3F3D56"/>
<path d="M234.585 168.252C234.585 168.252 231.33 166.082 223.735 170.422C216.139 174.762 191.183 176.932 179.247 163.911C167.311 150.891 158.631 140.04 155.375 142.21C152.12 144.38 149.95 169.337 149.95 169.337L139.099 178.017L75.0804 200.804L80.5058 347.288L90.2714 380.925C90.2714 380.925 82.6759 406.966 92.4415 422.157C102.207 437.348 87.0162 442.774 87.0162 442.774C87.0162 442.774 83.761 447.114 85.9311 457.965C88.1012 468.815 83.761 508.963 83.761 508.963C83.761 508.963 175.992 550.195 272.563 514.388L261.712 473.156L256.287 380.925C256.287 380.925 261.712 365.734 260.627 359.224C259.542 352.713 293.179 261.568 293.179 261.568C293.179 261.568 287.754 215.995 259.542 206.229C231.33 196.464 226.99 186.698 226.99 186.698C226.99 186.698 240.011 172.592 234.585 168.252Z" fill="#D0CDE1"/>
<path d="M146.334 105.479C146.334 105.479 140.925 97.3665 143.005 88.6296C144.248 83.6692 144.739 78.5502 144.462 73.444C144.462 73.444 148.83 59.2985 153.198 51.3937C157.567 43.4889 155.487 40.1605 169.216 37.6642C182.946 35.168 177.329 17.2781 213.525 36.6241C214.746 38.3292 216.445 39.6343 218.407 40.3747C220.369 41.1152 222.507 41.2578 224.55 40.7846C232.039 39.3284 234.743 49.7295 234.743 49.7295C234.743 49.7295 239.736 46.8172 241.608 50.9777C243.48 55.1381 256.829 48.4806 256.829 76.5636C256.829 104.647 241.638 129.732 241.638 129.732C241.638 129.732 242.752 82.493 217.997 77.7085C193.243 72.9239 166.616 58.9865 160.167 76.8764C153.719 94.7663 146.334 105.479 146.334 105.479Z" fill="#2F2E41"/>
<path d="M242.181 116.711C244.877 116.711 247.064 113.796 247.064 110.201C247.064 106.605 244.877 103.69 242.181 103.69C239.484 103.69 237.298 106.605 237.298 110.201C237.298 113.796 239.484 116.711 242.181 116.711Z" fill="#E0AF81"/>
</svg>
