<svg width="523" height="397" viewBox="0 0 523 397" fill="none" xmlns="http://www.w3.org/2000/svg">
<g clip-path="url(#clip0_14_481)">
<path d="M304.647 69.9865C314.449 69.9865 322.395 61.6932 322.395 51.463C322.395 41.2328 314.449 32.9395 304.647 32.9395C294.845 32.9395 286.899 41.2328 286.899 51.463C286.899 61.6932 294.845 69.9865 304.647 69.9865Z" fill="#F2F2F2"/>
<path d="M442.324 344.896C468.704 323.925 481.304 288.685 473.416 255.068C473.22 254.233 473.013 253.4 472.795 252.568C467.566 232.614 454.628 213.649 435.771 207.273C419.938 201.919 402.656 206.036 386.139 203.907C353.714 199.728 328.575 172.346 310.887 143.677C293.199 115.008 279.605 82.9165 256.101 59.2315C217.359 20.1908 154.162 11.7854 106.127 37.1979C58.0927 62.6105 27.4953 118.991 28.8001 175.18C30.1051 231.37 62.066 285.091 108.481 313.594C125.532 324.064 145.253 331.482 164.88 328.886C181.91 326.634 197.383 317.084 214.333 314.249C240.981 309.791 267.46 322.366 290.509 337.02C313.558 351.674 335.822 369.043 362.014 375.837C387.446 382.433 418.955 363.473 442.324 344.896Z" fill="#F2F2F2"/>
<path d="M404.421 38.3779C403.843 37.9755 403.258 37.5939 402.68 37.2054C385.963 26.0471 368.046 16.9822 349.298 10.198L344.951 72.7875H317.392V1.0614C315.657 0.686774 313.909 0.332966 312.161 -3.05176e-05V72.7875H279.411C261.382 72.7875 244.091 65.3126 231.343 52.007C218.594 38.7015 211.432 20.6553 211.432 1.83847V1.83841C209.677 2.23384 207.936 2.65702 206.194 3.10796V72.7875H179.52L175.379 13.1048C156.112 20.8166 137.821 30.9581 120.913 43.3034C120.621 43.5116 120.328 43.7266 120.042 43.9347C118.573 45.01 117.124 46.1062 115.682 47.2162V285.996H194.296L192.907 265.912L185.263 155.641H339.201L331.557 265.912L330.168 285.996H407.911V40.7921C406.754 39.9735 405.591 39.1687 404.421 38.3779ZM206.194 137.431H184L179.899 78.2542H206.194V137.431ZM312.161 137.431H274.884V136.258C274.884 135.694 274.778 135.136 274.571 134.616C274.364 134.095 274.061 133.622 273.679 133.224C273.297 132.826 272.843 132.51 272.344 132.295C271.845 132.08 271.31 131.97 270.77 131.971H254.564C254.025 131.971 253.491 132.081 252.992 132.297C252.494 132.512 252.041 132.828 251.659 133.226C251.278 133.624 250.975 134.097 250.769 134.617C250.563 135.137 250.456 135.695 250.457 136.258V137.431H211.432V78.2542H312.161V137.431ZM317.392 137.431V78.2542H344.572L340.47 137.431H317.392Z" fill="#3F3D56"/>
<path d="M-2.28882e-05 301.286C5.7744 308.427 12.0201 315.138 18.6914 321.37L504.309 322.064C510.98 315.832 517.226 309.121 523 301.98L-2.28882e-05 301.286Z" fill="#3F3D56"/>
<path d="M329.313 236.977V296.433C329.313 297.191 329.602 297.917 330.115 298.453C330.629 298.989 331.325 299.29 332.051 299.291H416.471C417.197 299.29 417.893 298.989 418.406 298.453C418.919 297.917 419.208 297.191 419.209 296.433V236.977C419.207 236.22 418.918 235.494 418.405 234.959C417.891 234.424 417.196 234.123 416.471 234.122H332.051C331.325 234.123 330.63 234.424 330.117 234.959C329.604 235.494 329.315 236.22 329.313 236.977Z" fill="#3F3D56"/>
<path d="M331.293 237.716V295.7C331.294 296.105 331.448 296.493 331.722 296.779C331.997 297.065 332.369 297.226 332.756 297.227H415.768C416.156 297.226 416.528 297.065 416.802 296.779C417.076 296.493 417.231 296.105 417.231 295.7V237.716C417.231 237.311 417.077 236.922 416.803 236.636C416.528 236.349 416.156 236.187 415.768 236.186H332.756C332.368 236.187 331.996 236.349 331.722 236.636C331.447 236.922 331.293 237.311 331.293 237.716Z" fill="#3D5AF1"/>
<path d="M327.547 308.029C327.702 308.231 327.898 308.394 328.122 308.506C328.346 308.618 328.591 308.675 328.839 308.674H419.233C419.48 308.674 419.724 308.616 419.947 308.505C420.17 308.394 420.367 308.232 420.523 308.032C420.678 307.831 420.789 307.597 420.848 307.346C420.906 307.096 420.91 306.834 420.859 306.582L419.456 299.626C419.398 299.342 419.272 299.078 419.091 298.858C418.91 298.637 418.68 298.468 418.42 298.364C418.232 298.287 418.032 298.248 417.83 298.248H330.237C330.035 298.248 329.834 298.287 329.646 298.364C329.387 298.468 329.156 298.637 328.975 298.858C328.794 299.078 328.669 299.342 328.611 299.626L327.207 306.582C327.158 306.834 327.162 307.095 327.221 307.345C327.28 307.596 327.391 307.829 327.547 308.029Z" fill="#2F2E41"/>
<path d="M414.728 301.244H416.863C417.042 301.244 417.188 301.093 417.188 300.906V299.84C417.188 299.653 417.042 299.501 416.863 299.501H414.728C414.549 299.501 414.404 299.653 414.404 299.84V300.906C414.404 301.093 414.549 301.244 414.728 301.244Z" fill="#3F3D56"/>
<path d="M409.16 301.244H411.295C411.474 301.244 411.62 301.093 411.62 300.906V299.84C411.62 299.653 411.474 299.501 411.295 299.501H409.16C408.981 299.501 408.836 299.653 408.836 299.84V300.906C408.836 301.093 408.981 301.244 409.16 301.244Z" fill="#3F3D56"/>
<path d="M403.592 301.244H405.727C405.906 301.244 406.051 301.093 406.051 300.906V299.84C406.051 299.653 405.906 299.501 405.727 299.501H403.592C403.413 299.501 403.267 299.653 403.267 299.84V300.906C403.267 301.093 403.413 301.244 403.592 301.244Z" fill="#3F3D56"/>
<path d="M398.024 301.244H400.159C400.338 301.244 400.483 301.093 400.483 300.906V299.84C400.483 299.653 400.338 299.501 400.159 299.501H398.024C397.844 299.501 397.699 299.653 397.699 299.84V300.906C397.699 301.093 397.844 301.244 398.024 301.244Z" fill="#3F3D56"/>
<path d="M392.455 301.244H394.591C394.77 301.244 394.915 301.093 394.915 300.906V299.84C394.915 299.653 394.77 299.501 394.591 299.501H392.455C392.276 299.501 392.131 299.653 392.131 299.84V300.906C392.131 301.093 392.276 301.244 392.455 301.244Z" fill="#3F3D56"/>
<path d="M386.887 301.244H389.022C389.202 301.244 389.347 301.093 389.347 300.906V299.84C389.347 299.653 389.202 299.501 389.022 299.501H386.887C386.708 299.501 386.563 299.653 386.563 299.84V300.906C386.563 301.093 386.708 301.244 386.887 301.244Z" fill="#3F3D56"/>
<path d="M381.319 301.244H383.454C383.633 301.244 383.779 301.093 383.779 300.906V299.84C383.779 299.653 383.633 299.501 383.454 299.501H381.319C381.14 299.501 380.995 299.653 380.995 299.84V300.906C380.995 301.093 381.14 301.244 381.319 301.244Z" fill="#3F3D56"/>
<path d="M375.751 301.244H377.886C378.065 301.244 378.21 301.093 378.21 300.906V299.84C378.21 299.653 378.065 299.501 377.886 299.501H375.751C375.572 299.501 375.426 299.653 375.426 299.84V300.906C375.426 301.093 375.572 301.244 375.751 301.244Z" fill="#3F3D56"/>
<path d="M370.183 301.244H372.318C372.497 301.244 372.642 301.093 372.642 300.906V299.84C372.642 299.653 372.497 299.501 372.318 299.501H370.183C370.003 299.501 369.858 299.653 369.858 299.84V300.906C369.858 301.093 370.003 301.244 370.183 301.244Z" fill="#3F3D56"/>
<path d="M364.614 301.244H366.75C366.929 301.244 367.074 301.093 367.074 300.906V299.84C367.074 299.653 366.929 299.501 366.75 299.501H364.614C364.435 299.501 364.29 299.653 364.29 299.84V300.906C364.29 301.093 364.435 301.244 364.614 301.244Z" fill="#3F3D56"/>
<path d="M359.046 301.244H361.181C361.361 301.244 361.506 301.093 361.506 300.906V299.84C361.506 299.653 361.361 299.501 361.181 299.501H359.046C358.867 299.501 358.722 299.653 358.722 299.84V300.906C358.722 301.093 358.867 301.244 359.046 301.244Z" fill="#3F3D56"/>
<path d="M353.478 301.244H355.613C355.792 301.244 355.938 301.093 355.938 300.906V299.84C355.938 299.653 355.792 299.501 355.613 299.501H353.478C353.299 299.501 353.154 299.653 353.154 299.84V300.906C353.154 301.093 353.299 301.244 353.478 301.244Z" fill="#3F3D56"/>
<path d="M347.91 301.244H350.045C350.224 301.244 350.37 301.093 350.37 300.906V299.84C350.37 299.653 350.224 299.501 350.045 299.501H347.91C347.731 299.501 347.585 299.653 347.585 299.84V300.906C347.585 301.093 347.731 301.244 347.91 301.244Z" fill="#3F3D56"/>
<path d="M342.342 301.244H344.477C344.656 301.244 344.801 301.093 344.801 300.906V299.84C344.801 299.653 344.656 299.501 344.477 299.501H342.342C342.163 299.501 342.017 299.653 342.017 299.84V300.906C342.017 301.093 342.163 301.244 342.342 301.244Z" fill="#3F3D56"/>
<path d="M336.774 301.244H338.909C339.088 301.244 339.233 301.093 339.233 300.906V299.84C339.233 299.653 339.088 299.501 338.909 299.501H336.774C336.594 299.501 336.449 299.653 336.449 299.84V300.906C336.449 301.093 336.594 301.244 336.774 301.244Z" fill="#3F3D56"/>
<path d="M331.205 301.244H333.34C333.52 301.244 333.665 301.093 333.665 300.906V299.84C333.665 299.653 333.52 299.501 333.34 299.501H331.205C331.026 299.501 330.881 299.653 330.881 299.84V300.906C330.881 301.093 331.026 301.244 331.205 301.244Z" fill="#3F3D56"/>
<path d="M414.794 304.15H416.929C417.108 304.15 417.254 303.999 417.254 303.812V302.745C417.254 302.558 417.108 302.407 416.929 302.407H414.794C414.615 302.407 414.469 302.558 414.469 302.745V303.812C414.469 303.999 414.615 304.15 414.794 304.15Z" fill="#3F3D56"/>
<path d="M409.226 304.15H411.361C411.54 304.15 411.685 303.999 411.685 303.812V302.745C411.685 302.558 411.54 302.407 411.361 302.407H409.226C409.047 302.407 408.901 302.558 408.901 302.745V303.812C408.901 303.999 409.047 304.15 409.226 304.15Z" fill="#3F3D56"/>
<path d="M403.658 304.15H405.793C405.972 304.15 406.117 303.999 406.117 303.812V302.745C406.117 302.558 405.972 302.407 405.793 302.407H403.658C403.478 302.407 403.333 302.558 403.333 302.745V303.812C403.333 303.999 403.478 304.15 403.658 304.15Z" fill="#3F3D56"/>
<path d="M398.089 304.15H400.225C400.404 304.15 400.549 303.999 400.549 303.812V302.745C400.549 302.558 400.404 302.407 400.225 302.407H398.089C397.91 302.407 397.765 302.558 397.765 302.745V303.812C397.765 303.999 397.91 304.15 398.089 304.15Z" fill="#3F3D56"/>
<path d="M392.521 304.15H394.656C394.836 304.15 394.981 303.999 394.981 303.812V302.745C394.981 302.558 394.836 302.407 394.656 302.407H392.521C392.342 302.407 392.197 302.558 392.197 302.745V303.812C392.197 303.999 392.342 304.15 392.521 304.15Z" fill="#3F3D56"/>
<path d="M386.953 304.15H389.088C389.267 304.15 389.413 303.999 389.413 303.812V302.745C389.413 302.558 389.267 302.407 389.088 302.407H386.953C386.774 302.407 386.629 302.558 386.629 302.745V303.812C386.629 303.999 386.774 304.15 386.953 304.15Z" fill="#3F3D56"/>
<path d="M381.385 304.15H383.52C383.699 304.15 383.844 303.999 383.844 303.812V302.745C383.844 302.558 383.699 302.407 383.52 302.407H381.385C381.206 302.407 381.06 302.558 381.06 302.745V303.812C381.06 303.999 381.206 304.15 381.385 304.15Z" fill="#3F3D56"/>
<path d="M375.817 304.15H377.952C378.131 304.15 378.276 303.999 378.276 303.812V302.745C378.276 302.558 378.131 302.407 377.952 302.407H375.817C375.637 302.407 375.492 302.558 375.492 302.745V303.812C375.492 303.999 375.637 304.15 375.817 304.15Z" fill="#3F3D56"/>
<path d="M370.248 304.15H372.384C372.563 304.15 372.708 303.999 372.708 303.812V302.745C372.708 302.558 372.563 302.407 372.384 302.407H370.248C370.069 302.407 369.924 302.558 369.924 302.745V303.812C369.924 303.999 370.069 304.15 370.248 304.15Z" fill="#3F3D56"/>
<path d="M364.68 304.15H366.815C366.995 304.15 367.14 303.999 367.14 303.812V302.745C367.14 302.558 366.995 302.407 366.815 302.407H364.68C364.501 302.407 364.356 302.558 364.356 302.745V303.812C364.356 303.999 364.501 304.15 364.68 304.15Z" fill="#3F3D56"/>
<path d="M359.112 304.15H361.247C361.426 304.15 361.572 303.999 361.572 303.812V302.745C361.572 302.558 361.426 302.407 361.247 302.407H359.112C358.933 302.407 358.788 302.558 358.788 302.745V303.812C358.788 303.999 358.933 304.15 359.112 304.15Z" fill="#3F3D56"/>
<path d="M353.544 304.15H355.679C355.858 304.15 356.004 303.999 356.004 303.812V302.745C356.004 302.558 355.858 302.407 355.679 302.407H353.544C353.365 302.407 353.219 302.558 353.219 302.745V303.812C353.219 303.999 353.365 304.15 353.544 304.15Z" fill="#3F3D56"/>
<path d="M347.976 304.15H350.111C350.29 304.15 350.435 303.999 350.435 303.812V302.745C350.435 302.558 350.29 302.407 350.111 302.407H347.976C347.797 302.407 347.651 302.558 347.651 302.745V303.812C347.651 303.999 347.797 304.15 347.976 304.15Z" fill="#3F3D56"/>
<path d="M342.408 304.15H344.543C344.722 304.15 344.867 303.999 344.867 303.812V302.745C344.867 302.558 344.722 302.407 344.543 302.407H342.408C342.228 302.407 342.083 302.558 342.083 302.745V303.812C342.083 303.999 342.228 304.15 342.408 304.15Z" fill="#3F3D56"/>
<path d="M336.839 304.15H338.974C339.154 304.15 339.299 303.999 339.299 303.812V302.745C339.299 302.558 339.154 302.407 338.974 302.407H336.839C336.66 302.407 336.515 302.558 336.515 302.745V303.812C336.515 303.999 336.66 304.15 336.839 304.15Z" fill="#3F3D56"/>
<path d="M331.271 304.15H333.406C333.585 304.15 333.731 303.999 333.731 303.812V302.745C333.731 302.558 333.585 302.407 333.406 302.407H331.271C331.092 302.407 330.947 302.558 330.947 302.745V303.812C330.947 303.999 331.092 304.15 331.271 304.15Z" fill="#3F3D56"/>
<path d="M368.578 307.637H390.202C390.381 307.637 390.526 307.485 390.526 307.298V306.232C390.526 306.045 390.381 305.894 390.202 305.894H368.578C368.399 305.894 368.254 306.045 368.254 306.232V307.298C368.254 307.485 368.399 307.637 368.578 307.637Z" fill="#3F3D56"/>
<path d="M345.668 248.871H343.778C343.205 248.871 342.74 249.356 342.74 249.954C342.74 250.553 343.205 251.037 343.778 251.037H345.668C346.241 251.037 346.706 250.553 346.706 249.954C346.706 249.356 346.241 248.871 345.668 248.871Z" fill="white"/>
<path d="M367.286 248.871H365.396C364.823 248.871 364.359 249.356 364.359 249.954C364.359 250.553 364.823 251.037 365.396 251.037H367.286C367.859 251.037 368.324 250.553 368.324 249.954C368.324 249.356 367.859 248.871 367.286 248.871Z" fill="white"/>
<path d="M373.412 248.871H371.521C370.948 248.871 370.484 249.356 370.484 249.954C370.484 250.553 370.948 251.037 371.521 251.037H373.412C373.985 251.037 374.449 250.553 374.449 249.954C374.449 249.356 373.985 248.871 373.412 248.871Z" fill="white"/>
<path d="M361.406 248.691H349.658C349.085 248.691 348.621 249.176 348.621 249.774C348.621 250.372 349.085 250.857 349.658 250.857H361.406C361.979 250.857 362.444 250.372 362.444 249.774C362.444 249.176 361.979 248.691 361.406 248.691Z" fill="white"/>
<path d="M390.23 248.691H378.482C377.909 248.691 377.445 249.176 377.445 249.774C377.445 250.372 377.909 250.857 378.482 250.857H390.23C390.803 250.857 391.268 250.372 391.268 249.774C391.268 249.176 390.803 248.691 390.23 248.691Z" fill="white"/>
<path d="M351.433 253.76H349.543C348.97 253.76 348.505 254.245 348.505 254.843C348.505 255.441 348.97 255.926 349.543 255.926H351.433C352.006 255.926 352.471 255.441 352.471 254.843C352.471 254.245 352.006 253.76 351.433 253.76Z" fill="white"/>
<path d="M373.051 253.76H371.161C370.588 253.76 370.123 254.245 370.123 254.843C370.123 255.441 370.588 255.926 371.161 255.926H373.051C373.624 255.926 374.089 255.441 374.089 254.843C374.089 254.245 373.624 253.76 373.051 253.76Z" fill="white"/>
<path d="M379.176 253.76H377.286C376.713 253.76 376.249 254.245 376.249 254.843C376.249 255.441 376.713 255.926 377.286 255.926H379.176C379.749 255.926 380.214 255.441 380.214 254.843C380.214 254.245 379.749 253.76 379.176 253.76Z" fill="white"/>
<path d="M367.171 253.579H355.423C354.85 253.579 354.385 254.064 354.385 254.662C354.385 255.261 354.85 255.745 355.423 255.745H367.171C367.744 255.745 368.209 255.261 368.209 254.662C368.209 254.064 367.744 253.579 367.171 253.579Z" fill="white"/>
<path d="M395.995 253.579H384.247C383.674 253.579 383.21 254.064 383.21 254.662C383.21 255.261 383.674 255.745 384.247 255.745H395.995C396.568 255.745 397.033 255.261 397.033 254.662C397.033 254.064 396.568 253.579 395.995 253.579Z" fill="white"/>
<path d="M357.198 258.649H355.308C354.735 258.649 354.27 259.133 354.27 259.732C354.27 260.33 354.735 260.815 355.308 260.815H357.198C357.771 260.815 358.236 260.33 358.236 259.732C358.236 259.133 357.771 258.649 357.198 258.649Z" fill="white"/>
<path d="M378.816 258.649H376.926C376.353 258.649 375.888 259.133 375.888 259.732C375.888 260.33 376.353 260.815 376.926 260.815H378.816C379.389 260.815 379.854 260.33 379.854 259.732C379.854 259.133 379.389 258.649 378.816 258.649Z" fill="white"/>
<path d="M384.941 258.649H383.051C382.478 258.649 382.013 259.133 382.013 259.732C382.013 260.33 382.478 260.815 383.051 260.815H384.941C385.514 260.815 385.979 260.33 385.979 259.732C385.979 259.133 385.514 258.649 384.941 258.649Z" fill="white"/>
<path d="M372.936 258.468H361.188C360.615 258.468 360.15 258.953 360.15 259.551C360.15 260.149 360.615 260.634 361.188 260.634H372.936C373.509 260.634 373.974 260.149 373.974 259.551C373.974 258.953 373.509 258.468 372.936 258.468Z" fill="white"/>
<path d="M401.76 258.468H390.012C389.439 258.468 388.974 258.953 388.974 259.551C388.974 260.149 389.439 260.634 390.012 260.634H401.76C402.333 260.634 402.798 260.149 402.798 259.551C402.798 258.953 402.333 258.468 401.76 258.468Z" fill="white"/>
<path d="M362.963 263.537H361.073C360.5 263.537 360.035 264.022 360.035 264.62C360.035 265.218 360.5 265.703 361.073 265.703H362.963C363.536 265.703 364 265.218 364 264.62C364 264.022 363.536 263.537 362.963 263.537Z" fill="white"/>
<path d="M384.581 263.537H382.691C382.118 263.537 381.653 264.022 381.653 264.62C381.653 265.218 382.118 265.703 382.691 265.703H384.581C385.154 265.703 385.619 265.218 385.619 264.62C385.619 264.022 385.154 263.537 384.581 263.537Z" fill="white"/>
<path d="M390.706 263.537H388.816C388.243 263.537 387.778 264.022 387.778 264.62C387.778 265.218 388.243 265.703 388.816 265.703H390.706C391.279 265.703 391.744 265.218 391.744 264.62C391.744 264.022 391.279 263.537 390.706 263.537Z" fill="white"/>
<path d="M378.701 263.357H366.953C366.38 263.357 365.915 263.841 365.915 264.44C365.915 265.038 366.38 265.523 366.953 265.523H378.701C379.274 265.523 379.738 265.038 379.738 264.44C379.738 263.841 379.274 263.357 378.701 263.357Z" fill="white"/>
<path d="M367.286 282.976H365.396C364.823 282.976 364.359 283.461 364.359 284.059C364.359 284.657 364.823 285.142 365.396 285.142H367.286C367.859 285.142 368.324 284.657 368.324 284.059C368.324 283.461 367.859 282.976 367.286 282.976Z" fill="white"/>
<path d="M373.412 282.976H371.521C370.948 282.976 370.484 283.461 370.484 284.059C370.484 284.657 370.948 285.142 371.521 285.142H373.412C373.985 285.142 374.449 284.657 374.449 284.059C374.449 283.461 373.985 282.976 373.412 282.976Z" fill="white"/>
<path d="M390.23 283.157H378.482C377.909 283.157 377.445 283.642 377.445 284.24C377.445 284.838 377.909 285.323 378.482 285.323H390.23C390.803 285.323 391.268 284.838 391.268 284.24C391.268 283.642 390.803 283.157 390.23 283.157Z" fill="white"/>
<path d="M345.668 282.976H343.778C343.205 282.976 342.74 283.461 342.74 284.059C342.74 284.657 343.205 285.142 343.778 285.142H345.668C346.241 285.142 346.706 284.657 346.706 284.059C346.706 283.461 346.241 282.976 345.668 282.976Z" fill="white"/>
<path d="M361.406 283.157H349.658C349.085 283.157 348.621 283.642 348.621 284.24C348.621 284.838 349.085 285.323 349.658 285.323H361.406C361.979 285.323 362.444 284.838 362.444 284.24C362.444 283.642 361.979 283.157 361.406 283.157Z" fill="white"/>
<path d="M351.433 278.088H349.543C348.97 278.088 348.505 278.572 348.505 279.171C348.505 279.769 348.97 280.254 349.543 280.254H351.433C352.006 280.254 352.471 279.769 352.471 279.171C352.471 278.572 352.006 278.088 351.433 278.088Z" fill="white"/>
<path d="M373.051 278.088H371.161C370.588 278.088 370.123 278.572 370.123 279.171C370.123 279.769 370.588 280.254 371.161 280.254H373.051C373.624 280.254 374.089 279.769 374.089 279.171C374.089 278.572 373.624 278.088 373.051 278.088Z" fill="white"/>
<path d="M379.176 278.088H377.286C376.713 278.088 376.249 278.572 376.249 279.171C376.249 279.769 376.713 280.254 377.286 280.254H379.176C379.749 280.254 380.214 279.769 380.214 279.171C380.214 278.572 379.749 278.088 379.176 278.088Z" fill="white"/>
<path d="M367.171 278.268H355.423C354.85 278.268 354.385 278.753 354.385 279.351C354.385 279.949 354.85 280.434 355.423 280.434H367.171C367.744 280.434 368.209 279.949 368.209 279.351C368.209 278.753 367.744 278.268 367.171 278.268Z" fill="white"/>
<path d="M357.198 273.199H355.308C354.735 273.199 354.27 273.684 354.27 274.282C354.27 274.88 354.735 275.365 355.308 275.365H357.198C357.771 275.365 358.236 274.88 358.236 274.282C358.236 273.684 357.771 273.199 357.198 273.199Z" fill="white"/>
<path d="M378.816 273.199H376.926C376.353 273.199 375.888 273.684 375.888 274.282C375.888 274.88 376.353 275.365 376.926 275.365H378.816C379.389 275.365 379.854 274.88 379.854 274.282C379.854 273.684 379.389 273.199 378.816 273.199Z" fill="white"/>
<path d="M384.941 273.199H383.051C382.478 273.199 382.013 273.684 382.013 274.282C382.013 274.88 382.478 275.365 383.051 275.365H384.941C385.514 275.365 385.979 274.88 385.979 274.282C385.979 273.684 385.514 273.199 384.941 273.199Z" fill="white"/>
<path d="M372.936 273.38H361.188C360.615 273.38 360.15 273.864 360.15 274.463C360.15 275.061 360.615 275.546 361.188 275.546H372.936C373.509 275.546 373.974 275.061 373.974 274.463C373.974 273.864 373.509 273.38 372.936 273.38Z" fill="white"/>
<path d="M362.963 268.31H361.073C360.5 268.31 360.035 268.795 360.035 269.393C360.035 269.992 360.5 270.476 361.073 270.476H362.963C363.536 270.476 364 269.992 364 269.393C364 268.795 363.536 268.31 362.963 268.31Z" fill="white"/>
<path d="M384.581 268.31H382.691C382.118 268.31 381.653 268.795 381.653 269.393C381.653 269.992 382.118 270.476 382.691 270.476H384.581C385.154 270.476 385.619 269.992 385.619 269.393C385.619 268.795 385.154 268.31 384.581 268.31Z" fill="white"/>
<path d="M390.706 268.31H388.816C388.243 268.31 387.778 268.795 387.778 269.393C387.778 269.992 388.243 270.476 388.816 270.476H390.706C391.279 270.476 391.744 269.992 391.744 269.393C391.744 268.795 391.279 268.31 390.706 268.31Z" fill="white"/>
<path d="M378.701 268.491H366.953C366.38 268.491 365.915 268.976 365.915 269.574C365.915 270.172 366.38 270.657 366.953 270.657H378.701C379.274 270.657 379.738 270.172 379.738 269.574C379.738 268.976 379.274 268.491 378.701 268.491Z" fill="white"/>
<path d="M335.619 340.268L326.746 325.629L354.598 302.456L366.094 289.163C367.588 287.436 369.489 286.149 371.609 285.429C373.729 284.71 375.992 284.583 378.174 285.063C380.355 285.542 382.377 286.611 384.039 288.161C385.701 289.712 386.943 291.691 387.642 293.9C388.679 297.174 388.456 300.739 387.021 303.845C385.586 306.95 383.051 309.352 379.952 310.544L361.773 317.534L335.619 340.268Z" fill="#E0AF81"/>
<path d="M127.417 234.125V305.275H175.175V234.125C175.176 233.613 175.02 233.115 174.729 232.703C174.438 232.291 174.028 231.987 173.56 231.836C173.339 231.76 173.108 231.722 172.875 231.725H129.723C129.421 231.724 129.121 231.786 128.841 231.906C128.562 232.026 128.307 232.203 128.093 232.426C127.879 232.649 127.709 232.914 127.593 233.205C127.477 233.497 127.417 233.809 127.417 234.125ZM146.055 258.573C146.067 257.17 146.61 255.829 147.565 254.842C148.519 253.855 149.809 253.301 151.153 253.301C152.497 253.301 153.787 253.855 154.741 254.842C155.696 255.829 156.239 257.17 156.251 258.573V266.828C156.244 268.235 155.704 269.581 154.749 270.573C153.793 271.565 152.501 272.122 151.153 272.122C149.805 272.122 148.512 271.565 147.557 270.573C146.602 269.581 146.062 268.235 146.055 266.828V258.573Z" fill="#2F2E41"/>
<path d="M127.27 303V309.861C127.271 310.216 127.407 310.557 127.647 310.809C127.887 311.061 128.213 311.204 128.553 311.207H174.039C174.38 311.205 174.706 311.063 174.946 310.81C175.187 310.558 175.322 310.217 175.322 309.861V303H127.27Z" fill="#3F3D56"/>
<path d="M52.2854 126.928V256.838C52.2866 258.494 52.9173 260.081 54.0389 261.252C55.1606 262.422 56.6815 263.081 58.2677 263.082H242.722C244.308 263.081 245.829 262.422 246.951 261.252C248.073 260.081 248.703 258.494 248.705 256.838V126.928C248.701 125.274 248.069 123.689 246.948 122.52C245.826 121.351 244.307 120.693 242.722 120.691H58.2677C56.6828 120.693 55.1634 121.351 54.0421 122.52C52.9208 123.689 52.2892 125.274 52.2854 126.928Z" fill="#3F3D56"/>
<path d="M56.6126 128.544V255.236C56.614 256.12 56.9513 256.968 57.5506 257.594C58.1499 258.219 58.9623 258.571 59.8098 258.573H241.187C242.034 258.571 242.847 258.219 243.446 257.594C244.045 256.968 244.382 256.12 244.384 255.236V128.544C244.384 127.659 244.047 126.809 243.448 126.182C242.848 125.555 242.035 125.202 241.187 125.2H59.8098C58.9613 125.202 58.1481 125.555 57.5487 126.182C56.9493 126.809 56.6127 127.659 56.6126 128.544Z" fill="white"/>
<path d="M90.273 310.742C90.4576 310.984 90.6923 311.178 90.9594 311.312C91.2265 311.445 91.5191 311.514 91.8151 311.512H199.723C200.018 311.512 200.309 311.443 200.575 311.31C200.842 311.177 201.076 310.984 201.262 310.745C201.448 310.506 201.581 310.227 201.65 309.927C201.72 309.628 201.724 309.316 201.664 309.015L199.989 300.711C199.919 300.372 199.77 300.057 199.554 299.794C199.338 299.531 199.062 299.329 198.752 299.205C198.528 299.113 198.289 299.066 198.048 299.066H93.4835C93.2424 299.066 93.0034 299.113 92.779 299.205C92.4689 299.329 92.1934 299.531 91.9774 299.794C91.7615 300.057 91.612 300.372 91.5426 300.711L89.8676 309.015C89.808 309.316 89.8134 309.627 89.8836 309.926C89.9537 310.225 90.0867 310.504 90.273 310.742Z" fill="#2F2E41"/>
<path d="M235.301 142.653H65.5868C65.4104 142.649 65.2425 142.573 65.1192 142.441C64.9958 142.309 64.9267 142.132 64.9267 141.948C64.9267 141.764 64.9958 141.587 65.1192 141.456C65.2425 141.324 65.4104 141.248 65.5868 141.244H235.301C235.477 141.248 235.645 141.324 235.768 141.456C235.891 141.587 235.961 141.764 235.961 141.948C235.961 142.132 235.891 142.309 235.768 142.441C235.645 142.573 235.477 142.649 235.301 142.653Z" fill="#3F3D56"/>
<path d="M77.1394 137.647C79.3239 137.647 81.0947 135.758 81.0947 133.427C81.0947 131.097 79.3239 129.207 77.1394 129.207C74.955 129.207 73.1842 131.097 73.1842 133.427C73.1842 135.758 74.955 137.647 77.1394 137.647Z" fill="#3F3D56"/>
<path d="M90.803 137.647C92.9875 137.647 94.7583 135.758 94.7583 133.427C94.7583 131.097 92.9875 129.207 90.803 129.207C88.6186 129.207 86.8478 131.097 86.8478 133.427C86.8478 135.758 88.6186 137.647 90.803 137.647Z" fill="#3F3D56"/>
<path d="M104.467 137.647C106.651 137.647 108.422 135.758 108.422 133.427C108.422 131.097 106.651 129.207 104.467 129.207C102.282 129.207 100.511 131.097 100.511 133.427C100.511 135.758 102.282 137.647 104.467 137.647Z" fill="#3F3D56"/>
<path d="M227.073 130.251H217.368C217.176 130.256 216.994 130.338 216.86 130.482C216.726 130.625 216.651 130.817 216.651 131.017C216.651 131.218 216.726 131.41 216.86 131.553C216.994 131.697 217.176 131.779 217.368 131.784H227.073C227.266 131.781 227.45 131.699 227.585 131.556C227.721 131.412 227.797 131.219 227.797 131.017C227.797 130.816 227.721 130.623 227.585 130.479C227.45 130.336 227.266 130.254 227.073 130.251Z" fill="#3F3D56"/>
<path d="M227.073 133.13H217.368C217.176 133.134 216.993 133.217 216.859 133.36C216.725 133.504 216.65 133.696 216.65 133.897C216.65 134.097 216.725 134.289 216.859 134.433C216.993 134.576 217.176 134.659 217.368 134.663H227.073C227.266 134.661 227.451 134.579 227.586 134.435C227.722 134.292 227.798 134.098 227.798 133.897C227.798 133.695 227.722 133.501 227.586 133.358C227.451 133.214 227.266 133.132 227.073 133.13Z" fill="#3F3D56"/>
<path d="M227.073 136.009H217.368C217.176 136.014 216.994 136.096 216.86 136.24C216.726 136.383 216.651 136.575 216.651 136.776C216.651 136.976 216.726 137.168 216.86 137.311C216.994 137.455 217.176 137.537 217.368 137.542H227.073C227.266 137.539 227.45 137.457 227.585 137.314C227.721 137.17 227.797 136.977 227.797 136.776C227.797 136.574 227.721 136.381 227.585 136.237C227.45 136.094 227.266 136.012 227.073 136.009Z" fill="#3F3D56"/>
<path d="M461.034 306.011C461.327 306.901 461.882 307.671 462.621 308.211C463.359 308.751 464.242 309.033 465.144 309.016L482.753 308.543C483.661 308.524 484.539 308.2 485.255 307.617C485.972 307.035 486.489 306.226 486.728 305.312L489.22 277.502C490.104 277.92 491.067 278.126 492.037 278.106C492.88 278.084 493.711 277.889 494.482 277.531C495.252 277.174 495.948 276.662 496.53 276.024C497.111 275.387 497.566 274.636 497.869 273.814C498.172 272.993 498.317 272.117 498.296 271.237C498.275 270.357 498.088 269.49 497.746 268.686C497.403 267.881 496.913 267.155 496.302 266.549C495.69 265.942 494.971 265.467 494.184 265.151C493.397 264.834 492.558 264.683 491.715 264.705C491.327 264.704 490.94 264.746 490.561 264.83C490.148 264.365 489.647 263.994 489.089 263.743C488.531 263.492 487.929 263.365 487.321 263.371L460.234 264.101C460.009 264.11 459.786 264.139 459.566 264.188C458.972 264.304 458.409 264.551 457.914 264.912C457.419 265.274 457.004 265.743 456.697 266.286C456.39 266.829 456.198 267.435 456.134 268.062C456.071 268.689 456.136 269.323 456.327 269.922L461.034 306.011ZM489.731 275.613L491.504 268.986C491.706 268.221 491.711 267.413 491.518 266.645C491.604 266.645 491.68 266.602 491.766 266.602C492.982 266.576 494.158 267.054 495.037 267.931C495.915 268.809 496.425 270.014 496.453 271.283C496.481 272.552 496.027 273.781 495.188 274.7C494.35 275.62 493.197 276.155 491.981 276.188C491.195 276.213 490.417 276.015 489.731 275.613Z" fill="#2F2E41"/>
<path d="M459.566 264.188C460.143 267.632 466.631 270.053 474.433 269.632C481.606 269.287 487.472 266.658 488.547 263.542C488.149 263.419 487.736 263.362 487.321 263.371L460.234 264.101C460.009 264.11 459.786 264.139 459.566 264.188Z" fill="#3F3D56"/>
<path d="M475.862 290.729C475.898 290.72 475.932 290.704 475.963 290.683L479.787 288.071C479.833 288.039 479.871 287.996 479.897 287.946C479.924 287.895 479.937 287.838 479.937 287.781C479.937 287.723 479.924 287.666 479.897 287.616C479.871 287.565 479.833 287.522 479.787 287.491L475.812 284.773C475.776 284.748 475.735 284.731 475.692 284.722C475.649 284.713 475.605 284.714 475.562 284.723C475.519 284.732 475.478 284.75 475.442 284.776C475.406 284.801 475.375 284.834 475.351 284.872C475.327 284.911 475.311 284.953 475.303 284.998C475.294 285.043 475.295 285.089 475.304 285.134C475.313 285.179 475.33 285.221 475.355 285.259C475.38 285.296 475.411 285.328 475.448 285.353L478.998 287.78L475.599 290.103C475.533 290.148 475.485 290.215 475.462 290.294C475.44 290.373 475.445 290.457 475.476 290.532C475.508 290.607 475.564 290.668 475.635 290.704C475.705 290.741 475.786 290.749 475.862 290.729H475.862Z" fill="#3D5AF1"/>
<path d="M469.822 291.02C469.887 291.003 469.944 290.966 469.989 290.915C470.033 290.863 470.061 290.799 470.07 290.731C470.079 290.662 470.068 290.593 470.039 290.531C470.01 290.469 469.964 290.417 469.906 290.383L466.381 288.273L469.788 285.632C469.823 285.605 469.853 285.571 469.875 285.532C469.898 285.493 469.912 285.45 469.919 285.405C469.925 285.36 469.923 285.314 469.912 285.27C469.902 285.225 469.883 285.184 469.857 285.147C469.831 285.111 469.798 285.08 469.761 285.057C469.723 285.033 469.682 285.018 469.639 285.011C469.595 285.004 469.551 285.007 469.509 285.018C469.467 285.029 469.427 285.049 469.392 285.076L465.578 288.033C465.533 288.067 465.498 288.113 465.474 288.165C465.451 288.217 465.441 288.274 465.444 288.332C465.447 288.389 465.464 288.445 465.493 288.494C465.522 288.543 465.562 288.583 465.61 288.612L469.575 290.984C469.65 291.029 469.739 291.042 469.822 291.02Z" fill="#3D5AF1"/>
<path d="M475.482 293.018C475.514 293.01 475.545 292.997 475.573 292.978C475.61 292.955 475.643 292.924 475.669 292.887C475.694 292.85 475.713 292.808 475.723 292.764C475.734 292.72 475.736 292.674 475.729 292.629C475.722 292.584 475.707 292.541 475.684 292.502L470.263 283.2C470.217 283.121 470.144 283.065 470.058 283.043C469.972 283.022 469.882 283.037 469.807 283.084C469.732 283.132 469.678 283.209 469.657 283.299C469.636 283.388 469.65 283.482 469.695 283.561L475.116 292.863C475.153 292.926 475.209 292.975 475.275 293.003C475.34 293.031 475.413 293.037 475.482 293.018Z" fill="#3D5AF1"/>
<path d="M170.721 180.947H141.348C140.15 180.947 139.178 181.961 139.178 183.212V186.207C139.178 187.457 140.15 188.471 141.348 188.471H170.721C171.92 188.471 172.891 187.457 172.891 186.207V183.212C172.891 181.961 171.92 180.947 170.721 180.947Z" fill="#3D5AF1"/>
<path d="M187.843 195.995H124.226C123.028 195.995 122.056 197.009 122.056 198.26V201.255C122.056 202.506 123.028 203.519 124.226 203.519H187.843C189.041 203.519 190.013 202.506 190.013 201.255V198.26C190.013 197.009 189.041 195.995 187.843 195.995Z" fill="#E6E6E6"/>
<path d="M187.843 211.044H124.226C123.028 211.044 122.056 212.057 122.056 213.308V216.303C122.056 217.554 123.028 218.568 124.226 218.568H187.843C189.041 218.568 190.013 217.554 190.013 216.303V213.308C190.013 212.057 189.041 211.044 187.843 211.044Z" fill="#E6E6E6"/>
<path d="M193.236 261.434L193.38 261.909L193.388 261.925L197.725 275.687L202.714 291.547L212.102 321.351L212.193 325.981V325.997L212.89 363.24L210.957 368.289L213.133 376.567C213.133 376.567 212.132 364.054 206.764 371.24C203.723 375.324 200.167 379.502 197.247 383.42C201.501 385.216 205.823 386.841 210.214 388.295C211.162 388.611 212.117 388.912 213.072 389.213C213.277 389.276 213.482 389.339 213.687 389.403C228.24 393.895 243.286 396.419 258.455 396.913C259.243 396.937 260.017 396.953 260.767 396.968C261.033 396.976 261.291 396.984 261.548 396.984C262.398 396.992 263.239 397 264.089 397C265.802 397 267.508 396.974 269.207 396.921C281.779 396.551 294.277 394.787 306.491 391.658C306.408 386.395 306.18 380.246 305.854 373.677C305.702 370.456 302.298 366.966 302.093 363.595C301.949 361.063 305.005 358.68 304.846 356.108C303.814 340.272 302.525 346.351 301.57 335.137C301.471 334.037 301.38 332.985 301.297 331.98C300.683 324.778 300.258 320.275 300.258 320.275L304.338 293.439L310.745 251.304L310.252 250.458L309.699 250.173L275.902 232.714L274.067 227.808C273.533 226.394 272.605 225.18 271.404 224.321C270.203 223.462 268.783 222.998 267.326 222.988L245.064 222.893C243.908 222.888 242.768 223.17 241.738 223.716C240.708 224.263 239.818 225.058 239.142 226.035L233.113 234.748L193.236 261.434Z" fill="#3F3D56"/>
<path d="M217.235 314.719L212.193 325.981L208.75 333.673L202.828 366.034L199.863 369.318L197.323 357.691L170.737 363.852C169.865 358.795 170.503 364.023 169.965 358.476C170.116 358.317 170.276 358.159 170.435 358.001C170.86 357.589 171.216 357.202 171.208 356.83C170.905 337.694 171.815 305.127 179.413 285.398C180.603 282.177 182.172 279.122 184.084 276.305C184.235 276.091 184.379 275.877 184.524 275.664C188.027 270.543 190.241 265.502 193.38 261.917V261.909C193.4 261.893 193.417 261.874 193.433 261.854C193.445 261.848 193.455 261.84 193.464 261.83L215.029 249.896L215.954 277.025L216.613 296.525L217.235 314.719Z" fill="#3F3D56"/>
<path d="M294.995 317.918L301.294 331.983L303.492 336.882L309.413 369.239L312.368 372.516L314.914 360.892L316.11 360.636L337.685 355.972L343.974 376.816C345.391 374.352 345.95 371.452 345.555 368.607C345.16 365.762 343.836 363.147 341.806 361.203C341.377 360.798 341.019 360.403 341.029 360.029C341.387 337.522 340.068 296.424 328.156 279.509C324.372 274.141 322.102 268.795 318.799 265.06C318.789 265.049 318.789 265.038 318.779 265.038L310.742 251.304L310.251 250.46L309.699 250.172L294.995 317.918Z" fill="#3F3D56"/>
<path d="M256.838 216.281C273.196 216.281 286.456 202.441 286.456 185.369C286.456 168.296 273.196 154.457 256.838 154.457C240.481 154.457 227.22 168.296 227.22 185.369C227.22 202.441 240.481 216.281 256.838 216.281Z" fill="#E0AF81"/>
<path d="M296.87 163.777C296.641 163.521 296.364 163.316 296.057 163.174C295.75 163.032 295.418 162.956 295.082 162.951L295.528 161.661C295.673 161.254 295.712 160.815 295.641 160.387C295.57 159.96 295.392 159.56 295.124 159.228C294.856 158.896 294.509 158.645 294.117 158.499C293.725 158.354 293.304 158.32 292.895 158.4L291.273 158.726L291.426 157.595C291.485 157.174 291.438 156.744 291.289 156.348C291.14 155.952 290.895 155.603 290.578 155.336C290.26 155.068 289.882 154.892 289.48 154.823C289.077 154.755 288.664 154.797 288.282 154.945C287.935 155.088 287.561 155.148 287.188 155.12C286.816 155.093 286.453 154.978 286.129 154.786C285.803 154.599 285.519 154.34 285.299 154.028C285.079 153.715 284.926 153.356 284.852 152.975L284.287 150.131L284.228 149.978C281.476 145.191 276.185 141.709 269.711 140.432C263.948 139.288 258.038 139.87 252.342 140.418C250.082 140.64 247.53 140.89 245.402 142.25C243.594 143.415 242.066 145.746 242.378 148.098C236.761 146.301 230.739 149.888 227.755 154.411C224.218 159.795 223.64 166.538 223.547 171.81C223.295 184.284 225.761 194.489 230.859 202.148C231.231 202.703 231.324 203.861 232.062 204.25L231.909 203.993C232.733 204.423 233.571 205.117 233.258 205.859C232.361 207.996 238.323 212.72 242.524 214.281C250.188 217.132 260.378 216.89 267.544 215.863L267.796 214.094C270.382 213.726 272.203 213.026 272.715 211.929C273.619 211.125 274.39 210.403 275.061 209.737L275.068 209.73C275.081 209.716 275.108 209.696 275.121 209.682C278.358 206.442 279.109 204.597 279.448 201.787C279.774 199.033 279.196 196.237 278.604 193.719C291.061 195.731 273.699 179.872 285.304 176.805C285.438 176.762 285.573 176.728 285.71 176.701C286.049 176.618 286.388 176.535 286.714 176.438C288.284 175.993 289.787 175.323 291.18 174.446C294.424 172.386 295.494 169.653 297.169 166.572C297.411 166.134 297.512 165.626 297.459 165.123C297.405 164.621 297.199 164.149 296.87 163.777Z" fill="#2F2E41"/>
<path d="M361.592 320.119C361.586 321.333 361.572 323.032 361.519 325.134C361.512 325.426 361.506 325.724 361.499 326.029C361.413 329.894 361.326 333.133 361.187 336.734C361.18 336.984 361.173 337.226 361.16 337.476C360.974 342.499 360.682 348.347 360.176 357.609C359.239 374.716 357.604 359.96 355.962 365.961C355.882 366.26 355.796 366.613 355.716 367.03C355.468 368.54 355.048 370.014 354.467 371.421C353.596 371.962 352.699 372.482 351.814 373.003C349.295 374.467 346.736 375.875 344.157 377.214C342.708 377.963 341.252 378.698 339.79 379.406C339.557 379.517 339.331 379.628 339.105 379.732C331.617 383.347 323.899 386.421 316.007 388.931C314.465 389.417 312.93 389.888 311.374 390.326C309.752 390.797 308.13 391.241 306.489 391.658C294.275 394.787 281.777 396.552 269.205 396.923C267.51 396.979 265.802 396.999 264.087 396.999C263.236 396.999 262.399 396.992 261.548 396.985C261.289 396.985 261.03 396.979 260.77 396.972C260.019 396.951 259.242 396.937 258.457 396.916C243.288 396.422 228.242 393.897 213.69 389.403L213.071 389.216C212.114 388.91 211.164 388.612 210.213 388.293C205.826 386.843 201.503 385.22 197.245 383.423C193.995 382.056 190.782 380.59 187.607 379.024C187.578 379.016 187.551 379.002 187.527 378.983C186.862 378.664 186.191 378.331 185.526 377.991C185.44 377.942 185.347 377.894 185.254 377.845C182.774 376.582 180.322 375.26 177.895 373.877C175.855 368.986 172.983 368.049 171.202 363.748C170.683 362.47 170.309 361.134 170.085 359.766C170.085 359.752 170.079 359.738 170.079 359.718C170.265 362.298 169.288 355.139 170.072 359.69C170.065 359.607 170.059 359.516 170.052 359.412C170.032 359.163 170.006 358.857 169.966 358.476C167.686 335.242 167.832 308.672 166.842 286.777C166.775 285.362 166.706 284.007 166.635 282.712C166.616 282.282 166.589 281.859 166.562 281.442C166.609 281.318 166.662 281.186 166.722 281.061C166.735 281.025 166.75 280.99 166.768 280.957C166.788 280.914 166.81 280.872 166.835 280.832C166.848 280.811 166.868 280.783 166.881 280.763C166.891 280.739 166.902 280.716 166.915 280.693C166.974 280.596 167.041 280.492 167.114 280.395C167.147 280.353 167.174 280.319 167.207 280.284C167.23 280.248 167.257 280.216 167.287 280.187C167.307 280.153 167.332 280.123 167.36 280.097C167.387 280.069 167.413 280.034 167.446 280C167.461 279.978 167.479 279.959 167.5 279.944C167.552 279.881 167.61 279.823 167.672 279.771C167.91 279.543 168.163 279.334 168.43 279.146C168.523 279.084 168.623 279.021 168.716 278.952C169.386 278.534 170.091 278.181 170.823 277.897C171.076 277.8 171.328 277.71 171.601 277.613C171.7 277.585 171.794 277.551 171.893 277.516C172.039 277.467 172.186 277.419 172.339 277.384C173.096 277.148 173.914 276.947 174.798 276.76C174.904 276.739 175.017 276.718 175.13 276.69C175.29 276.656 175.456 276.628 175.622 276.6C175.848 276.559 176.081 276.517 176.313 276.475C178.288 276.149 180.528 275.906 183 275.747C183.233 275.733 183.466 275.719 183.698 275.705C183.971 275.691 184.243 275.678 184.523 275.664C184.755 275.65 184.994 275.643 185.234 275.636C185.466 275.622 185.706 275.615 185.952 275.608C186.623 275.587 187.314 275.566 188.019 275.553C190.026 275.511 192.14 275.525 194.36 275.573C195.39 275.601 196.441 275.629 197.517 275.677C197.591 275.677 197.657 275.684 197.724 275.684C198.661 275.719 199.605 275.761 200.575 275.816C201.253 275.851 201.938 275.886 202.622 275.927C203.267 275.969 203.918 276.011 204.577 276.059C205.088 276.087 205.6 276.128 206.119 276.163C206.557 276.198 206.996 276.233 207.435 276.26L208.033 276.302C208.359 276.33 208.684 276.35 209.017 276.385C209.748 276.448 210.479 276.51 211.224 276.572C211.961 276.642 212.712 276.711 213.464 276.781C214.215 276.85 214.972 276.926 215.73 277.003C215.81 277.01 215.883 277.016 215.956 277.023C216.648 277.1 217.339 277.169 218.037 277.245C218.196 277.259 218.362 277.273 218.522 277.294C219.187 277.364 219.866 277.445 220.537 277.52C220.743 277.543 220.948 277.566 221.155 277.589C221.681 277.649 222.2 277.701 222.729 277.766C223.427 277.849 224.139 277.925 224.83 278.022C225.368 278.085 225.907 278.147 226.445 278.217C227.289 278.321 228.147 278.432 229.004 278.55C229.33 278.591 229.656 278.633 229.981 278.681C232.427 279.001 234.9 279.354 237.413 279.722C241.221 280.284 245.09 280.894 248.985 281.554C252.887 282.213 256.811 282.909 260.757 283.642C261.754 283.829 262.751 284.016 263.755 284.211C264.207 284.301 264.659 284.391 265.111 284.481C265.882 284.627 266.653 284.779 267.424 284.932C268.195 285.085 268.966 285.237 269.737 285.397C270.654 285.584 271.578 285.771 272.496 285.959C278.538 287.207 284.547 288.539 290.409 289.934C291.373 290.163 292.337 290.399 293.294 290.628C295.208 291.092 297.105 291.564 298.984 292.043C299.502 292.168 300.014 292.3 300.526 292.431C301.802 292.764 303.079 293.097 304.335 293.437L304.554 293.5C305.478 293.736 306.382 293.978 307.286 294.228C309.42 294.811 311.518 295.401 313.581 295.997C314.95 296.393 316.304 296.793 317.642 297.197C319.643 297.801 321.604 298.411 323.511 299.029C323.983 299.182 324.455 299.334 324.921 299.48C326.316 299.931 327.692 300.389 329.028 300.846C330.092 301.207 331.129 301.575 332.153 301.943C333.176 302.31 334.18 302.678 335.164 303.046C335.795 303.282 336.42 303.531 337.045 303.767C337.942 304.114 338.826 304.461 339.69 304.808C339.956 304.912 340.215 305.023 340.475 305.127C340.641 305.203 340.8 305.266 340.96 305.335C341.272 305.467 341.591 305.592 341.897 305.723C342.209 305.848 342.515 305.98 342.821 306.119C343.12 306.244 343.426 306.376 343.718 306.507C344.017 306.632 344.31 306.764 344.602 306.903C344.848 307.007 345.088 307.118 345.32 307.229C345.792 307.444 346.264 307.659 346.723 307.881C346.949 307.992 347.175 308.096 347.401 308.207L347.919 308.457C347.992 308.498 348.065 308.533 348.139 308.568C348.305 308.651 348.478 308.741 348.644 308.825C349.029 309.012 349.408 309.213 349.78 309.4C350.279 309.664 350.764 309.928 351.229 310.184C351.701 310.448 352.16 310.712 352.599 310.968C352.672 311.01 352.738 311.051 352.811 311.093C352.911 311.149 353.011 311.211 353.111 311.267C353.45 311.468 353.775 311.676 354.101 311.877C354.739 312.286 355.344 312.689 355.909 313.091C356.035 313.181 356.155 313.271 356.281 313.355C356.7 313.667 357.099 313.972 357.471 314.284C357.471 314.291 357.471 314.291 357.478 314.291C357.604 314.388 357.724 314.492 357.843 314.589C357.943 314.687 358.049 314.77 358.149 314.867C358.495 315.179 358.814 315.477 359.106 315.783C359.204 315.877 359.297 315.977 359.385 316.081C359.424 316.115 359.46 316.152 359.492 316.192C359.625 316.331 359.744 316.47 359.857 316.608C359.875 316.627 359.89 316.648 359.904 316.671C360.063 316.865 360.21 317.059 360.349 317.253C360.416 317.351 360.489 317.448 360.549 317.545C360.628 317.663 360.708 317.788 360.775 317.906C360.834 318.003 360.888 318.107 360.941 318.204C361.082 318.454 361.202 318.716 361.3 318.988C361.374 319.172 361.434 319.362 361.479 319.557C361.53 319.741 361.567 319.929 361.592 320.119Z" fill="#2F2E41"/>
<path opacity="0.2" d="M361.592 320.119C361.586 321.333 361.572 323.032 361.519 325.134C361.512 325.426 361.499 325.724 361.492 326.029C361.426 328.978 361.326 332.62 361.187 336.734C361.18 336.984 361.173 337.226 361.16 337.476C360.974 342.499 360.682 348.347 360.176 357.609C359.239 374.716 357.604 359.96 355.962 365.961C351.402 363.034 346.404 359.967 341.06 356.818C340.096 356.249 339.123 355.678 338.142 355.104C327.453 348.881 315.515 342.36 303.052 335.901C302.56 335.645 302.062 335.388 301.57 335.138C273.021 320.41 241.86 306.084 216.614 296.524C211.742 294.679 207.089 293.014 202.715 291.55C193.503 288.477 185.539 286.326 179.411 285.397C173.03 284.426 168.623 284.772 166.841 286.777C166.775 285.362 166.706 284.007 166.635 282.712C166.609 282.282 166.582 281.859 166.556 281.442C166.597 281.328 166.65 281.219 166.702 281.109C166.709 281.093 166.714 281.077 166.722 281.061C166.735 281.025 166.75 280.99 166.768 280.957C166.788 280.914 166.81 280.872 166.835 280.832C166.856 280.783 166.883 280.736 166.915 280.693C166.974 280.596 167.041 280.492 167.114 280.395C167.168 280.322 167.225 280.253 167.287 280.187C167.307 280.153 167.332 280.123 167.36 280.097C167.386 280.069 167.413 280.034 167.446 279.999C167.461 279.978 167.479 279.959 167.499 279.944C167.552 279.881 167.61 279.823 167.672 279.771C167.909 279.543 168.163 279.334 168.43 279.146C168.523 279.084 168.623 279.021 168.716 278.952C169.386 278.534 170.091 278.181 170.823 277.897C171.076 277.8 171.328 277.71 171.601 277.613C171.7 277.585 171.793 277.551 171.893 277.516C172.039 277.467 172.186 277.419 172.339 277.384C173.096 277.148 173.914 276.947 174.798 276.76C175.064 276.704 175.343 276.649 175.622 276.6C175.848 276.559 176.081 276.517 176.313 276.475C178.288 276.149 180.528 275.906 183 275.747C183.233 275.733 183.466 275.719 183.698 275.705C183.971 275.691 184.243 275.677 184.522 275.664C184.755 275.65 184.994 275.643 185.234 275.636C185.466 275.622 185.706 275.615 185.952 275.608C186.623 275.587 187.314 275.566 188.019 275.553C190.026 275.518 192.14 275.532 194.36 275.58C195.39 275.601 196.441 275.636 197.517 275.684C197.584 275.684 197.657 275.691 197.723 275.691C198.661 275.719 199.611 275.768 200.575 275.816C201.253 275.851 201.938 275.886 202.622 275.927C203.267 275.969 203.918 276.01 204.576 276.059C205.088 276.087 205.6 276.128 206.119 276.163C206.557 276.198 206.996 276.232 207.435 276.26C207.96 276.302 208.485 276.343 209.017 276.385C209.748 276.448 210.479 276.51 211.223 276.572C211.961 276.642 212.712 276.711 213.464 276.78C214.215 276.85 214.972 276.926 215.73 277.002C215.81 277.009 215.883 277.016 215.956 277.023C216.647 277.1 217.339 277.169 218.037 277.245C221.905 277.655 225.887 278.133 229.981 278.681C232.427 279.007 234.905 279.357 237.413 279.729C241.221 280.291 245.09 280.901 248.985 281.553C252.887 282.213 256.811 282.909 260.757 283.642C261.754 283.829 262.751 284.016 263.755 284.211C264.978 284.446 266.201 284.687 267.424 284.932C268.195 285.085 268.966 285.237 269.737 285.397C270.654 285.584 271.578 285.771 272.496 285.959C278.538 287.207 284.547 288.539 290.409 289.934C291.373 290.163 292.337 290.399 293.294 290.628C295.208 291.092 297.105 291.564 298.984 292.043C299.502 292.175 300.014 292.306 300.526 292.438C301.809 292.771 303.078 293.104 304.335 293.437V293.444C304.408 293.458 304.481 293.479 304.554 293.5C305.471 293.743 306.382 293.985 307.286 294.235C309.42 294.818 311.518 295.405 313.581 295.997C314.95 296.4 316.306 296.795 317.642 297.197C319.643 297.808 321.604 298.418 323.511 299.029C323.983 299.181 324.455 299.334 324.921 299.48C326.316 299.938 327.686 300.393 329.028 300.846C330.092 301.207 331.129 301.575 332.153 301.943C333.176 302.31 334.18 302.678 335.164 303.046C335.802 303.282 336.427 303.524 337.045 303.76C337.949 304.107 338.826 304.454 339.69 304.808C339.956 304.912 340.215 305.023 340.475 305.127C340.96 305.321 341.432 305.522 341.897 305.724C342.209 305.848 342.515 305.98 342.821 306.119C343.12 306.244 343.426 306.376 343.718 306.507C344.017 306.632 344.31 306.764 344.602 306.903C344.848 307.007 345.088 307.118 345.32 307.229C345.792 307.444 346.264 307.659 346.723 307.881C346.949 307.992 347.175 308.096 347.401 308.207L347.919 308.457C347.992 308.498 348.065 308.533 348.139 308.568C348.704 308.845 349.249 309.123 349.78 309.4C350.279 309.664 350.764 309.928 351.229 310.184C351.781 310.489 352.306 310.788 352.811 311.093C352.911 311.149 353.011 311.211 353.111 311.267C353.45 311.468 353.775 311.676 354.101 311.877C354.739 312.286 355.344 312.689 355.909 313.091C356.467 313.493 356.986 313.889 357.471 314.284C357.471 314.291 357.471 314.291 357.478 314.291C357.71 314.485 357.936 314.68 358.149 314.867C358.495 315.179 358.814 315.477 359.106 315.783C359.204 315.877 359.297 315.977 359.385 316.081C359.424 316.114 359.46 316.152 359.492 316.192C359.631 316.352 359.771 316.511 359.904 316.671C360.063 316.865 360.21 317.059 360.349 317.253C360.416 317.351 360.489 317.448 360.549 317.545C360.628 317.663 360.708 317.788 360.775 317.906C360.834 318.003 360.888 318.107 360.941 318.204C361.082 318.454 361.202 318.716 361.3 318.988C361.372 319.173 361.432 319.363 361.479 319.557C361.53 319.741 361.567 319.929 361.592 320.119Z" fill="black"/>
</g>
<defs>
<clipPath id="clip0_14_481">
<rect width="523" height="397" fill="white"/>
</clipPath>
</defs>
</svg>
